<svg width="70" height="71" viewBox="0 0 70 71" fill="none" xmlns="http://www.w3.org/2000/svg">
<rect y="0.800049" width="70" height="70" rx="16" fill="url(#paint0_linear_112_1052)"/>
<path d="M40 60.5C52.1503 60.5 62 58.7091 62 56.5C62 54.2909 52.1503 52.5 40 52.5C27.8497 52.5 18 54.2909 18 56.5C18 58.7091 27.8497 60.5 40 60.5Z" fill="url(#paint1_linear_112_1052)"/>
<path d="M27 62.5C30.866 62.5 34 59.5899 34 56C34 52.4101 30.866 49.5 27 49.5C23.134 49.5 20 52.4101 20 56C20 59.5899 23.134 62.5 27 62.5Z" fill="#2C3E50"/>
<path d="M54 62.5C57.866 62.5 61 59.5899 61 56C61 52.4101 57.866 49.5 54 49.5C50.134 49.5 47 52.4101 47 56C47 59.5899 50.134 62.5 54 62.5Z" fill="#2C3E50"/>
<path d="M27 60.5C29.7614 60.5 32 58.4853 32 56C32 53.5147 29.7614 51.5 27 51.5C24.2386 51.5 22 53.5147 22 56C22 58.4853 24.2386 60.5 27 60.5Z" fill="#95A5A6"/>
<path d="M54 60.5C56.7614 60.5 59 58.4853 59 56C59 53.5147 56.7614 51.5 54 51.5C51.2386 51.5 49 53.5147 49 56C49 58.4853 51.2386 60.5 54 60.5Z" fill="#95A5A6"/>
<path d="M27 57.5C28.1046 57.5 29 56.6046 29 55.5C29 54.3954 28.1046 53.5 27 53.5C25.8954 53.5 25 54.3954 25 55.5C25 56.6046 25.8954 57.5 27 57.5Z" fill="#34495E"/>
<path d="M54 57.5C55.1046 57.5 56 56.6046 56 55.5C56 54.3954 55.1046 53.5 54 53.5C52.8954 53.5 52 54.3954 52 55.5C52 56.6046 52.8954 57.5 54 57.5Z" fill="#34495E"/>
<path d="M49.25 50.5H32.75C31.2312 50.5 30 51.6193 30 53C30 54.3807 31.2312 55.5 32.75 55.5H49.25C50.7688 55.5 52 54.3807 52 53C52 51.6193 50.7688 50.5 49.25 50.5Z" fill="url(#paint2_linear_112_1052)"/>
<path d="M34.6 47.5H34.4C33.6268 47.5 33 48.3775 33 49.46V52.54C33 53.6225 33.6268 54.5 34.4 54.5H34.6C35.3732 54.5 36 53.6225 36 52.54V49.46C36 48.3775 35.3732 47.5 34.6 47.5Z" fill="#34495E"/>
<path d="M37.44 46.5H31.56C31.2507 46.5 31 46.7239 31 47C31 47.2761 31.2507 47.5 31.56 47.5H37.44C37.7493 47.5 38 47.2761 38 47C38 46.7239 37.7493 46.5 37.44 46.5Z" fill="#95A5A6"/>
<path d="M31 47.5C31.5523 47.5 32 47.2761 32 47C32 46.7239 31.5523 46.5 31 46.5C30.4477 46.5 30 46.7239 30 47C30 47.2761 30.4477 47.5 31 47.5Z" fill="#7F8C8D"/>
<path d="M37 47.5C37.5523 47.5 38 47.2761 38 47C38 46.7239 37.5523 46.5 37 46.5C36.4477 46.5 36 46.7239 36 47C36 47.2761 36.4477 47.5 37 47.5Z" fill="#7F8C8D"/>
<path d="M40.5 49.5C45.7467 49.5 50 43.9036 50 37C50 30.0964 45.7467 24.5 40.5 24.5C35.2533 24.5 31 30.0964 31 37C31 43.9036 35.2533 49.5 40.5 49.5Z" fill="url(#paint3_linear_112_1052)"/>
<path d="M36.5028 38.9806C38.53 38.0353 38.8962 34.53 37.3207 31.1514C35.7452 27.7728 32.8247 25.8001 30.7975 26.7454C28.7703 27.6907 28.4041 31.196 29.9796 34.5746C31.5551 37.9533 34.4757 39.9259 36.5028 38.9806Z" fill="url(#paint4_linear_112_1052)"/>
<path d="M44.2972 38.9809C46.3244 39.9262 49.245 37.9536 50.8205 34.575C52.3959 31.1963 52.0298 27.6911 50.0026 26.7458C47.9754 25.8005 45.0548 27.7731 43.4794 31.1518C41.9039 34.5304 42.27 38.0356 44.2972 38.9809Z" fill="url(#paint5_linear_112_1052)"/>
<path d="M31.5 50.5C32.8807 50.5 34 49.3807 34 48C34 46.6193 32.8807 45.5 31.5 45.5C30.1193 45.5 29 46.6193 29 48C29 49.3807 30.1193 50.5 31.5 50.5Z" fill="url(#paint6_linear_112_1052)"/>
<path d="M37.5 50.5C38.8807 50.5 40 49.3807 40 48C40 46.6193 38.8807 45.5 37.5 45.5C36.1193 45.5 35 46.6193 35 48C35 49.3807 36.1193 50.5 37.5 50.5Z" fill="url(#paint7_linear_112_1052)"/>
<path d="M37.7568 55.6901C39.519 55.3794 40.3178 51.5561 39.541 47.1505C38.7642 42.745 36.7059 39.4255 34.9437 39.7362C33.1815 40.0469 32.3827 43.8702 33.1595 48.2758C33.9363 52.6813 35.9946 56.0008 37.7568 55.6901Z" fill="#2C3E50"/>
<path d="M43.0437 55.6901C44.8059 56.0008 46.8642 52.6813 47.641 48.2758C48.4178 43.8702 47.619 40.0469 45.8568 39.7362C44.0946 39.4255 42.0363 42.745 41.2595 47.1505C40.4826 51.5561 41.2815 55.3794 43.0437 55.6901Z" fill="#2C3E50"/>
<path d="M40.5 27.5C45.7467 27.5 50 23.2467 50 18C50 12.7533 45.7467 8.5 40.5 8.5C35.2533 8.5 31 12.7533 31 18C31 23.2467 35.2533 27.5 40.5 27.5Z" fill="url(#paint8_linear_112_1052)"/>
<path d="M34 14.0714C38.3333 10.6429 42.6667 10.6429 47 14.0714C47 17.5 44.8333 19.6429 40.5 20.5C36.1667 19.6429 34 17.5 34 14.0714Z" fill="url(#paint9_linear_112_1052)"/>
<path opacity="0.8" d="M35 15.3293C38.6667 12.8902 42.3333 12.8902 46 15.3293C46 16.9553 44.1667 18.0122 40.5 18.5C36.8333 18.0122 35 16.9553 35 15.3293Z" fill="#2C3E50"/>
<path d="M36 14.5C38 13.1667 40 13.1667 42 14.5" stroke="white" stroke-opacity="0.5"/>
<path opacity="0.7" d="M38.5 17.5C38.7761 17.5 39 17.2761 39 17C39 16.7239 38.7761 16.5 38.5 16.5C38.2239 16.5 38 16.7239 38 17C38 17.2761 38.2239 17.5 38.5 17.5Z" fill="#2C3E50"/>
<path opacity="0.7" d="M42.5 17.5C42.7761 17.5 43 17.2761 43 17C43 16.7239 42.7761 16.5 42.5 16.5C42.2239 16.5 42 16.7239 42 17C42 17.2761 42.2239 17.5 42.5 17.5Z" fill="#2C3E50"/>
<path d="M51.7429 29H43.2571C42.5628 29 42 29.5014 42 30.12V34.88C42 35.4986 42.5628 36 43.2571 36H51.7429C52.4372 36 53 35.4986 53 34.88V30.12C53 29.5014 52.4372 29 51.7429 29Z" fill="url(#paint10_linear_112_1052)"/>
<path d="M51.129 30H43.871C43.3899 30 43 30.3198 43 30.7143V34.2857C43 34.6802 43.3899 35 43.871 35H51.129C51.6101 35 52 34.6802 52 34.2857V30.7143C52 30.3198 51.6101 30 51.129 30Z" fill="#3AA3B5"/>
<path d="M50.4815 31H44.5185C44.2321 31 44 31.158 44 31.3529V33.6471C44 33.842 44.2321 34 44.5185 34H50.4815C50.7679 34 51 33.842 51 33.6471V31.3529C51 31.158 50.7679 31 50.4815 31Z" fill="white" fill-opacity="0.1"/>
<path d="M46 28.5C44.2222 27.1667 42.8889 27.1667 42 28.5" stroke="#26798A" stroke-width="1.5"/>
<path d="M50 28.5C51.3333 26.8333 51.3333 25.1667 50 23.5" stroke="#26798A" stroke-width="1.5"/>
<path d="M31.5 42H28.5C28.2239 42 28 42.2239 28 42.5V47.5C28 47.7761 28.2239 48 28.5 48H31.5C31.7761 48 32 47.7761 32 47.5V42.5C32 42.2239 31.7761 42 31.5 42Z" fill="#34495E"/>
<path d="M31 42.55H29C28.7239 42.55 28.5 42.8299 28.5 43.175V46.925C28.5 47.2702 28.7239 47.55 29 47.55H31C31.2761 47.55 31.5 47.2702 31.5 46.925V43.175C31.5 42.8299 31.2761 42.55 31 42.55Z" fill="#3498DB"/>
<path d="M30 45.3C30.1381 45.3 30.25 45.1881 30.25 45.05C30.25 44.912 30.1381 44.8 30 44.8C29.8619 44.8 29.75 44.912 29.75 45.05C29.75 45.1881 29.8619 45.3 30 45.3Z" fill="#E74C3C"/>
<path d="M29 45.3L31 46.3L29 45.3Z" fill="black"/>
<path d="M29 45.3L31 46.3" stroke="white" stroke-width="0.1"/>
<g opacity="0.7">
<path d="M11 23.5H18H11Z" fill="black"/>
<path d="M11 23.5H18" stroke="white" stroke-width="2" stroke-linecap="round"/>
</g>
<g opacity="0.5">
<path d="M9 26.5H17H9Z" fill="black"/>
<path d="M9 26.5H17" stroke="white" stroke-width="2" stroke-linecap="round"/>
</g>
<g opacity="0.6">
<path d="M12 29.3H20H12Z" fill="black"/>
<path d="M12 29.3H20" stroke="white" stroke-width="2" stroke-linecap="round"/>
</g>
<g opacity="0.4">
<path d="M8 20.5H17H8Z" fill="black"/>
<path d="M8 20.5H17" stroke="white" stroke-width="2" stroke-linecap="round"/>
</g>
<path d="M49 37.5C52.5556 36.5 53.7407 37 52.5556 39" stroke="#3AA3B5" stroke-opacity="0.3"/>
<defs>
<linearGradient id="paint0_linear_112_1052" x1="-3.91155e-07" y1="0.5" x2="70" y2="70.5" gradientUnits="userSpaceOnUse">
<stop stop-color="#A1D9E2"/>
<stop offset="1" stop-color="#F9EFC7"/>
</linearGradient>
<linearGradient id="paint1_linear_112_1052" x1="18" y1="52.5" x2="299.6" y2="1601.3" gradientUnits="userSpaceOnUse">
<stop stop-color="#34495E"/>
<stop offset="1" stop-color="#2C3E50"/>
</linearGradient>
<linearGradient id="paint2_linear_112_1052" x1="30" y1="50.5" x2="246.11" y2="1001.38" gradientUnits="userSpaceOnUse">
<stop stop-color="#34495E"/>
<stop offset="1" stop-color="#2C3E50"/>
</linearGradient>
<linearGradient id="paint3_linear_112_1052" x1="31" y1="24.5" x2="2439.72" y2="1855.13" gradientUnits="userSpaceOnUse">
<stop stop-color="#3AA3B5"/>
<stop offset="1" stop-color="#308C9C"/>
</linearGradient>
<linearGradient id="paint4_linear_112_1052" x1="27.127" y1="28.457" x2="39.5287" y2="30.3856" gradientUnits="userSpaceOnUse">
<stop stop-color="#3AA3B5"/>
<stop offset="1" stop-color="#26798A"/>
</linearGradient>
<linearGradient id="paint5_linear_112_1052" x1="50.4999" y1="27.0001" x2="53.4844" y2="35.4084" gradientUnits="userSpaceOnUse">
<stop stop-color="#3AA3B5"/>
<stop offset="1" stop-color="#26798A"/>
</linearGradient>
<linearGradient id="paint6_linear_112_1052" x1="29" y1="45.5" x2="529" y2="545.5" gradientUnits="userSpaceOnUse">
<stop stop-color="#FFDBAC"/>
<stop offset="1" stop-color="#F4C2A1"/>
</linearGradient>
<linearGradient id="paint7_linear_112_1052" x1="35" y1="45.5" x2="535" y2="545.5" gradientUnits="userSpaceOnUse">
<stop stop-color="#FFDBAC"/>
<stop offset="1" stop-color="#F4C2A1"/>
</linearGradient>
<linearGradient id="paint8_linear_112_1052" x1="31" y1="8.5" x2="1931" y2="1908.5" gradientUnits="userSpaceOnUse">
<stop stop-color="#FFDBAC"/>
<stop offset="1" stop-color="#F4C2A1"/>
</linearGradient>
<linearGradient id="paint9_linear_112_1052" x1="34" y1="11.5" x2="876.4" y2="1228.3" gradientUnits="userSpaceOnUse">
<stop stop-color="#3AA3B5"/>
<stop offset="1" stop-color="#26798A"/>
</linearGradient>
<linearGradient id="paint10_linear_112_1052" x1="42" y1="29" x2="48.3412" y2="38.9647" gradientUnits="userSpaceOnUse">
<stop stop-color="#3AA3B5"/>
<stop offset="1" stop-color="#308C9C"/>
</linearGradient>
</defs>
</svg>
