<svg width="70" height="71" viewBox="0 0 70 71" fill="none" xmlns="http://www.w3.org/2000/svg">
<rect width="70" height="70" rx="16" transform="matrix(-1 0 0 1 70 0.800049)" fill="url(#paint0_linear_112_1159)"/>
<path d="M36.5 62.5C30.1487 62.5 25 56.0081 25 48C25 39.9919 30.1487 33.5 36.5 33.5C42.8513 33.5 48 39.9919 48 48C48 56.0081 42.8513 62.5 36.5 62.5Z" fill="#ECF0F1"/>
<path d="M44.7143 38.5H29.2857L28 59.5H46L44.7143 38.5Z" fill="url(#paint1_linear_112_1159)"/>
<path d="M45 38C46.3333 37 47.3333 37.5 48 39.5" stroke="#26798A" stroke-width="2.5"/>
<path d="M29 38C27.2222 37 25.8889 37.5 25 39.5" stroke="#26798A" stroke-width="2.5"/>
<path d="M33.8 48.5H40.2C40.6418 48.5 41 48.8358 41 49.25V52.75C41 53.1642 40.6418 53.5 40.2 53.5H33.8C33.3582 53.5 33 53.1642 33 52.75V49.25C33 48.8358 33.3582 48.5 33.8 48.5Z" fill="white" fill-opacity="0.2"/>
<path d="M40 49.5H34" stroke="white" stroke-opacity="0.4"/>
<path d="M43.6032 49.5456C41.159 48.8806 40.2099 44.4294 41.4834 39.6036C42.7569 34.7778 45.7707 31.4048 48.2149 32.0698C50.6592 32.7348 51.6083 37.186 50.3348 42.0118C49.0613 46.8377 46.0475 50.2107 43.6032 49.5456Z" fill="#ECF0F1"/>
<path d="M30.3969 49.5457C27.9527 50.2107 24.9389 46.8377 23.6654 42.0118C22.3919 37.186 23.341 32.7348 25.7852 32.0698C28.2295 31.4048 31.2433 34.7778 32.5168 39.6036C33.7903 44.4295 32.8412 48.8806 30.3969 49.5457Z" fill="#ECF0F1"/>
<path d="M49.5 53.5C47.567 53.5 46 51.933 46 50C46 48.067 47.567 46.5 49.5 46.5C51.433 46.5 53 48.067 53 50C53 51.933 51.433 53.5 49.5 53.5Z" fill="url(#paint2_linear_112_1159)"/>
<path d="M24.5 53.5C22.567 53.5 21 51.933 21 50C21 48.067 22.567 46.5 24.5 46.5C26.433 46.5 28 48.067 28 50C28 51.933 26.433 53.5 24.5 53.5Z" fill="url(#paint3_linear_112_1159)"/>
<path d="M37 33.5C30.9249 33.5 26 28.5751 26 22.5C26 16.4249 30.9249 11.5 37 11.5C43.0751 11.5 48 16.4249 48 22.5C48 28.5751 43.0751 33.5 37 33.5Z" fill="url(#paint4_linear_112_1159)"/>
<path d="M37 8.5498C34.5241 8.5498 32.2843 9.27487 30.665 10.4443C29.0458 11.6138 28.0498 13.2252 28.0498 15C28.0498 16.7748 29.0458 18.3862 30.665 19.5557C32.2843 20.7251 34.5241 21.4502 37 21.4502C39.4759 21.4502 41.7157 20.7251 43.335 19.5557C44.9542 18.3862 45.9502 16.7748 45.9502 15C45.9502 13.2252 44.9542 11.6138 43.335 10.4443C41.7157 9.27487 39.4759 8.5498 37 8.5498Z" fill="#ECF0F1" stroke="#ECF0F1" stroke-width="0.1"/>
<path d="M43 17.8243C41.5333 14.2207 39.7 12.8694 37.5 13.7703C35.3 12.8694 33.4667 14.2207 32 17.8243C32.7333 18.7252 34.5667 18.7252 37.5 17.8243C40.4333 18.7252 42.2667 18.7252 43 17.8243Z" fill="url(#paint5_linear_112_1159)"/>
<path d="M37 19.5C32.0294 19.5 28 19.0523 28 18.5C28 17.9477 32.0294 17.5 37 17.5C41.9706 17.5 46 17.9477 46 18.5C46 19.0523 41.9706 19.5 37 19.5Z" fill="#308C9C"/>
<path d="M40 25.5C39 26.8333 38 26.8333 37 25.5C36 26.8333 35 26.8333 34 25.5" stroke="#2C3E50" stroke-width="3.5" stroke-linecap="round"/>
<path d="M39.5 22.5C38.6716 22.5 38 21.8284 38 21C38 20.1716 38.6716 19.5 39.5 19.5C40.3284 19.5 41 20.1716 41 21C41 21.8284 40.3284 22.5 39.5 22.5Z" fill="#2C3E50"/>
<path d="M34.5 22.5C33.6716 22.5 33 21.8284 33 21C33 20.1716 33.6716 19.5 34.5 19.5C35.3284 19.5 36 20.1716 36 21C36 21.8284 35.3284 22.5 34.5 22.5Z" fill="#2C3E50"/>
<path d="M35 21.5C34.7239 21.5 34.5 21.2761 34.5 21C34.5 20.7239 34.7239 20.5 35 20.5C35.2761 20.5 35.5 20.7239 35.5 21C35.5 21.2761 35.2761 21.5 35 21.5Z" fill="white"/>
<path d="M40 21.5C39.7239 21.5 39.5 21.2761 39.5 21C39.5 20.7239 39.7239 20.5 40 20.5C40.2761 20.5 40.5 20.7239 40.5 21C40.5 21.2761 40.2761 21.5 40 21.5Z" fill="white"/>
<path d="M41 18.5C40 18.5 39 18.5 38 18.5" stroke="#2C3E50" stroke-width="2.5" stroke-linecap="round"/>
<path d="M36 18.5C35 18.5 34 18.5 33 18.5" stroke="#2C3E50" stroke-width="2.5" stroke-linecap="round"/>
<path d="M38 28.5C37.3333 28.5 36.6667 28.5 36 28.5" stroke="#2C3E50" stroke-width="2.5" stroke-linecap="round"/>
<path d="M19.8701 48.8164L24.8932 46.96C25.1574 46.8624 25.4495 47.0007 25.5457 47.269C25.6419 47.5372 25.5056 47.8339 25.2414 47.9315L20.2184 49.7879C19.9541 49.8855 19.662 49.7472 19.5658 49.4789C19.4697 49.2107 19.6059 48.914 19.8701 48.8164Z" fill="url(#paint6_linear_112_1159)"/>
<path d="M19.523 50.8703C18.4661 51.2609 17.4145 51.0338 17.1741 50.3631C16.9337 49.6925 17.5955 48.8321 18.6524 48.4416C19.7092 48.051 20.7608 48.2781 21.0012 48.9487C21.2416 49.6194 20.5798 50.4797 19.523 50.8703Z" fill="#ECF0F1"/>
<path d="M18.1087 49.1925L19.0655 48.8389C19.1976 48.7901 19.3437 48.8592 19.3917 48.9934L19.74 49.9649C19.7881 50.099 19.72 50.2473 19.5879 50.2961L18.6311 50.6497C18.499 50.6986 18.3529 50.6294 18.3048 50.4953L17.9566 49.5238C17.9085 49.3896 17.9766 49.2413 18.1087 49.1925Z" fill="#308C9C"/>
<path d="M51 53.5C48.7909 53.5 47 52.3807 47 51C47 49.6193 48.7909 48.5 51 48.5C53.2091 48.5 55 49.6193 55 51C55 52.3807 53.2091 53.5 51 53.5Z" fill="#ECF0F1"/>
<path d="M50.5 52.5C49.6716 52.5 49 51.8284 49 51C49 50.1716 49.6716 49.5 50.5 49.5C51.3284 49.5 52 50.1716 52 51C52 51.8284 51.3284 52.5 50.5 52.5Z" fill="#E74C3C"/>
<path d="M51.5 51.5C51.2239 51.5 51 51.2761 51 51C51 50.7239 51.2239 50.5 51.5 50.5C51.7761 50.5 52 50.7239 52 51C52 51.2761 51.7761 51.5 51.5 51.5Z" fill="#F39C12"/>
<path d="M49.5 52.5C49.2239 52.5 49 52.2761 49 52C49 51.7239 49.2239 51.5 49.5 51.5C49.7761 51.5 50 51.7239 50 52C50 52.2761 49.7761 52.5 49.5 52.5Z" fill="#27AE60"/>
<path opacity="0.8" d="M51 48.5C49.6667 47.1667 49.6667 45.8333 51 44.5" stroke="#3AA3B5" stroke-width="0.5"/>
<path opacity="0.8" d="M50 48.5C48.6667 47.5 48.6667 46.5 50 45.5" stroke="#3AA3B5" stroke-width="0.5"/>
<path opacity="0.8" d="M51 48.5C51 47.1667 51 45.8333 51 44.5" stroke="#3AA3B5" stroke-width="0.5"/>
<path d="M9.76351 35.6384H15.8726C16.2943 35.6384 16.6362 35.9856 16.6362 36.4138V39.5154C16.6362 39.9436 16.2943 40.2907 15.8726 40.2907H9.76351C9.34176 40.2907 8.99987 39.9436 8.99987 39.5154V36.4138C8.99987 35.9856 9.34176 35.6384 9.76351 35.6384Z" fill="url(#paint7_linear_112_1159)"/>
<path d="M13.327 36.1553H15.8724C16.013 36.1553 16.127 36.271 16.127 36.4137V38.4814C16.127 38.6242 16.013 38.7399 15.8724 38.7399H13.327C13.1864 38.7399 13.0724 38.6242 13.0724 38.4814V36.4137C13.0724 36.271 13.1864 36.1553 13.327 36.1553Z" fill="#2C3E50"/>
<path d="M10.5274 38.74C10.1056 38.74 9.76374 38.3928 9.76374 37.9646C9.76374 37.5364 10.1056 37.1892 10.5274 37.1892C10.9491 37.1892 11.291 37.5364 11.291 37.9646C11.291 38.3928 10.9491 38.74 10.5274 38.74Z" fill="#27AE60"/>
<path d="M13.8363 36.6724H15.3636C15.5042 36.6724 15.6182 36.7881 15.6182 36.9308V37.9647C15.6182 38.1074 15.5042 38.2231 15.3636 38.2231H13.8363C13.6958 38.2231 13.5818 38.1074 13.5818 37.9647V36.9308C13.5818 36.7881 13.6958 36.6724 13.8363 36.6724Z" fill="#308C9C"/>
<path d="M15.1083 37.4485C14.9675 37.4485 14.8533 37.3326 14.8533 37.1896C14.8533 37.0466 14.9675 36.9307 15.1083 36.9307C15.2491 36.9307 15.3633 37.0466 15.3633 37.1896C15.3633 37.3326 15.2491 37.4485 15.1083 37.4485Z" fill="white"/>
<path d="M14.3451 37.4485C14.2043 37.4485 14.0901 37.3326 14.0901 37.1896C14.0901 37.0466 14.2043 36.9307 14.3451 36.9307C14.4859 36.9307 14.6001 37.0466 14.6001 37.1896C14.6001 37.3326 14.4859 37.4485 14.3451 37.4485Z" fill="white"/>
<path d="M15.1083 37.9653C14.9675 37.9653 14.8533 37.8494 14.8533 37.7064C14.8533 37.5634 14.9675 37.4475 15.1083 37.4475C15.2491 37.4475 15.3633 37.5634 15.3633 37.7064C15.3633 37.8494 15.2491 37.9653 15.1083 37.9653Z" fill="white"/>
<path d="M14.3451 37.9653C14.2043 37.9653 14.0901 37.8494 14.0901 37.7064C14.0901 37.5634 14.2043 37.4475 14.3451 37.4475C14.4859 37.4475 14.6001 37.5634 14.6001 37.7064C14.6001 37.8494 14.4859 37.9653 14.3451 37.9653Z" fill="white"/>
<path d="M55.1492 19.6272H60.1237C60.5575 19.6272 60.9092 19.9935 60.9092 20.4454V26.9908C60.9092 27.4427 60.5575 27.809 60.1237 27.809H55.1492C54.7154 27.809 54.3637 27.4427 54.3637 26.9908V20.4454C54.3637 19.9935 54.7154 19.6272 55.1492 19.6272Z" fill="#34495E"/>
<path d="M55.4864 20.4453H59.8137C60.0948 20.4453 60.3228 20.6767 60.3228 20.9622V26.6484C60.3228 26.9339 60.0948 27.1653 59.8137 27.1653H55.4864C55.2052 27.1653 54.9773 26.9339 54.9773 26.6484V20.9622C54.9773 20.6767 55.2052 20.4453 55.4864 20.4453Z" fill="#2C3E50"/>
<path d="M55.6817 21.2637H59.4998C59.6404 21.2637 59.7544 21.3794 59.7544 21.5221V22.0391C59.7544 22.1818 59.6404 22.2975 59.4998 22.2975H55.6817C55.5411 22.2975 55.4271 22.1818 55.4271 22.0391V21.5221C55.4271 21.3794 55.5411 21.2637 55.6817 21.2637Z" fill="#308C9C"/>
<path d="M56.234 21.5537H56.3391L56.5863 22.1574H56.5948L56.842 21.5537H56.9471V22.281H56.8647V21.7284H56.8576L56.6303 22.281H56.5508L56.3235 21.7284H56.3164V22.281H56.234V21.5537ZM57.1237 22.281V21.5537H57.5626V21.6319H57.2117V21.8776H57.5399V21.9557H57.2117V22.2029H57.5683V22.281H57.1237ZM58.298 21.5537V22.281H58.2128L57.8165 21.71H57.8094V22.281H57.7213V21.5537H57.8066L58.2043 22.1262H58.2114V21.5537H58.298ZM58.9515 21.5537H59.0396V22.0353C59.0396 22.085 59.0279 22.1294 59.0044 22.1684C58.9812 22.2073 58.9484 22.2379 58.9061 22.2604C58.8637 22.2827 58.814 22.2938 58.7569 22.2938C58.6999 22.2938 58.6502 22.2827 58.6078 22.2604C58.5654 22.2379 58.5325 22.2073 58.5091 22.1684C58.4859 22.1294 58.4743 22.085 58.4743 22.0353V21.5537H58.5623V22.0282C58.5623 22.0637 58.5701 22.0953 58.5858 22.123C58.6014 22.1504 58.6236 22.1721 58.6525 22.188C58.6816 22.2036 58.7164 22.2114 58.7569 22.2114C58.7974 22.2114 58.8322 22.2036 58.8613 22.188C58.8904 22.1721 58.9127 22.1504 58.9281 22.123C58.9437 22.0953 58.9515 22.0637 58.9515 22.0282V21.5537Z" fill="white"/>
<path d="M59.4092 22.999H55.591" stroke="#ECF0F1" stroke-width="0.3"/>
<path d="M59.4092 24.033H55.591" stroke="#ECF0F1" stroke-width="0.3"/>
<path d="M59.4092 25.0669H55.591" stroke="#ECF0F1" stroke-width="0.3"/>
<path d="M59.4092 26.1006H55.591" stroke="#ECF0F1" stroke-width="0.3"/>
<path d="M55.9086 23.7754C55.7678 23.7754 55.6536 23.6595 55.6536 23.5165C55.6536 23.3735 55.7678 23.2576 55.9086 23.2576C56.0494 23.2576 56.1636 23.3735 56.1636 23.5165C56.1636 23.6595 56.0494 23.7754 55.9086 23.7754Z" fill="#E74C3C"/>
<path d="M55.9086 24.8091C55.7678 24.8091 55.6536 24.6932 55.6536 24.5502C55.6536 24.4072 55.7678 24.2913 55.9086 24.2913C56.0494 24.2913 56.1636 24.4072 56.1636 24.5502C56.1636 24.6932 56.0494 24.8091 55.9086 24.8091Z" fill="#F39C12"/>
<path d="M55.9086 25.8433C55.7678 25.8433 55.6536 25.7273 55.6536 25.5844C55.6536 25.4414 55.7678 25.3254 55.9086 25.3254C56.0494 25.3254 56.1636 25.4414 56.1636 25.5844C56.1636 25.7273 56.0494 25.8433 55.9086 25.8433Z" fill="#27AE60"/>
<path d="M59.1207 23.8993V22.9902H59.179V23.8993H59.1207ZM59.3168 23.2629C59.3125 23.2269 59.2952 23.199 59.2649 23.1791C59.2346 23.1592 59.1974 23.1493 59.1534 23.1493C59.1212 23.1493 59.093 23.1545 59.0689 23.1649C59.045 23.1753 59.0263 23.1896 59.0128 23.2079C58.9995 23.2261 58.9929 23.2468 58.9929 23.27C58.9929 23.2894 58.9975 23.3061 59.0067 23.3201C59.0162 23.3338 59.0283 23.3453 59.043 23.3545C59.0576 23.3635 59.073 23.371 59.0891 23.3769C59.1052 23.3826 59.12 23.3872 59.1335 23.3907L59.2074 23.4106C59.2263 23.4156 59.2474 23.4225 59.2706 23.4312C59.294 23.44 59.3164 23.4519 59.3377 23.4671C59.3593 23.482 59.377 23.5012 59.391 23.5246C59.4049 23.5481 59.4119 23.5768 59.4119 23.6109C59.4119 23.6502 59.4016 23.6857 59.381 23.7174C59.3607 23.7492 59.3308 23.7744 59.2915 23.7931C59.2525 23.8118 59.205 23.8211 59.1491 23.8211C59.0971 23.8211 59.052 23.8127 59.0138 23.7959C58.976 23.7791 58.9461 23.7557 58.9244 23.7256C58.9028 23.6955 58.8906 23.6606 58.8878 23.6208H58.9787C58.9811 23.6483 58.9903 23.671 59.0064 23.689C59.0227 23.7068 59.0433 23.72 59.0682 23.7288C59.0933 23.7373 59.1203 23.7416 59.1491 23.7416C59.1828 23.7416 59.2129 23.7361 59.2397 23.7253C59.2665 23.7141 59.2876 23.6987 59.3033 23.6791C59.3189 23.6592 59.3267 23.636 59.3267 23.6095C59.3267 23.5853 59.32 23.5657 59.3065 23.5505C59.293 23.5354 59.2752 23.5231 59.2532 23.5136C59.2312 23.5041 59.2074 23.4958 59.1818 23.4887L59.0923 23.4632C59.0355 23.4468 58.9905 23.4235 58.9574 23.3932C58.9242 23.3629 58.9077 23.3233 58.9077 23.2743C58.9077 23.2335 58.9187 23.198 58.9407 23.1677C58.9629 23.1372 58.9928 23.1135 59.0302 23.0967C59.0678 23.0797 59.1098 23.0711 59.1562 23.0711C59.2031 23.0711 59.2448 23.0795 59.2812 23.0963C59.3177 23.1129 59.3466 23.1356 59.3679 23.1645C59.3894 23.1934 59.4008 23.2262 59.402 23.2629H59.3168Z" fill="#308C9C"/>
<path d="M59.1077 25.1078V24.1987H59.1659V25.1078H59.1077ZM59.3037 24.4714C59.2995 24.4354 59.2822 24.4075 59.2519 24.3876C59.2216 24.3677 59.1844 24.3578 59.1404 24.3578C59.1082 24.3578 59.08 24.363 59.0559 24.3734C59.0319 24.3838 59.0132 24.3981 58.9997 24.4163C58.9865 24.4346 58.9799 24.4553 58.9799 24.4785C58.9799 24.4979 58.9845 24.5146 58.9937 24.5286C59.0032 24.5423 59.0152 24.5538 59.0299 24.563C59.0446 24.572 59.06 24.5795 59.0761 24.5854C59.0922 24.5911 59.107 24.5957 59.1205 24.5992L59.1943 24.6191C59.2133 24.6241 59.2344 24.631 59.2576 24.6397C59.281 24.6485 59.3034 24.6604 59.3247 24.6756C59.3462 24.6905 59.364 24.7097 59.3779 24.7331C59.3919 24.7565 59.3989 24.7853 59.3989 24.8194C59.3989 24.8587 59.3886 24.8942 59.368 24.9259C59.3476 24.9577 59.3178 24.9829 59.2785 25.0016C59.2394 25.0203 59.192 25.0296 59.1361 25.0296C59.084 25.0296 59.0389 25.0212 59.0008 25.0044C58.9629 24.9876 58.9331 24.9642 58.9113 24.9341C58.8898 24.904 58.8776 24.8691 58.8747 24.8293H58.9657C58.968 24.8568 58.9773 24.8795 58.9934 24.8975C59.0097 24.9153 59.0303 24.9285 59.0551 24.9373C59.0802 24.9458 59.1072 24.9501 59.1361 24.9501C59.1697 24.9501 59.1999 24.9446 59.2267 24.9337C59.2534 24.9226 59.2746 24.9072 59.2902 24.8876C59.3059 24.8677 59.3137 24.8445 59.3137 24.818C59.3137 24.7938 59.3069 24.7742 59.2934 24.759C59.2799 24.7439 59.2622 24.7316 59.2402 24.7221C59.2181 24.7126 59.1943 24.7043 59.1688 24.6972L59.0793 24.6717C59.0225 24.6553 58.9775 24.632 58.9443 24.6017C58.9112 24.5714 58.8946 24.5318 58.8946 24.4828C58.8946 24.442 58.9056 24.4065 58.9277 24.3762C58.9499 24.3457 58.9797 24.322 59.0171 24.3052C59.0548 24.2882 59.0968 24.2796 59.1432 24.2796C59.1901 24.2796 59.2318 24.288 59.2682 24.3048C59.3047 24.3214 59.3336 24.3441 59.3549 24.373C59.3764 24.4019 59.3878 24.4347 59.3889 24.4714H59.3037Z" fill="#308C9C"/>
<path d="M59.1077 26.1305V25.2214H59.1659V26.1305H59.1077ZM59.3037 25.4941C59.2995 25.4581 59.2822 25.4302 59.2519 25.4103C59.2216 25.3904 59.1844 25.3805 59.1404 25.3805C59.1082 25.3805 59.08 25.3857 59.0559 25.3961C59.0319 25.4065 59.0132 25.4208 58.9997 25.4391C58.9865 25.4573 58.9799 25.478 58.9799 25.5012C58.9799 25.5206 58.9845 25.5373 58.9937 25.5513C59.0032 25.565 59.0152 25.5765 59.0299 25.5857C59.0446 25.5947 59.06 25.6022 59.0761 25.6081C59.0922 25.6138 59.107 25.6184 59.1205 25.6219L59.1943 25.6418C59.2133 25.6468 59.2344 25.6537 59.2576 25.6624C59.281 25.6712 59.3034 25.6831 59.3247 25.6983C59.3462 25.7132 59.364 25.7324 59.3779 25.7558C59.3919 25.7793 59.3989 25.808 59.3989 25.8421C59.3989 25.8814 59.3886 25.9169 59.368 25.9486C59.3476 25.9804 59.3178 26.0056 59.2785 26.0243C59.2394 26.043 59.192 26.0523 59.1361 26.0523C59.084 26.0523 59.0389 26.0439 59.0008 26.0271C58.9629 26.0103 58.9331 25.9869 58.9113 25.9568C58.8898 25.9267 58.8776 25.8918 58.8747 25.8521H58.9657C58.968 25.8795 58.9773 25.9022 58.9934 25.9202C59.0097 25.938 59.0303 25.9512 59.0551 25.96C59.0802 25.9685 59.1072 25.9728 59.1361 25.9728C59.1697 25.9728 59.1999 25.9673 59.2267 25.9565C59.2534 25.9453 59.2746 25.9299 59.2902 25.9103C59.3059 25.8904 59.3137 25.8672 59.3137 25.8407C59.3137 25.8165 59.3069 25.7969 59.2934 25.7817C59.2799 25.7666 59.2622 25.7543 59.2402 25.7448C59.2181 25.7353 59.1943 25.7271 59.1688 25.7199L59.0793 25.6944C59.0225 25.678 58.9775 25.6547 58.9443 25.6244C58.9112 25.5941 58.8946 25.5545 58.8946 25.5055C58.8946 25.4647 58.9056 25.4292 58.9277 25.3989C58.9499 25.3684 58.9797 25.3447 59.0171 25.3279C59.0548 25.3109 59.0968 25.3023 59.1432 25.3023C59.1901 25.3023 59.2318 25.3107 59.2682 25.3275C59.3047 25.3441 59.3336 25.3668 59.3549 25.3957C59.3764 25.4246 59.3878 25.4574 59.3889 25.4941H59.3037Z" fill="#308C9C"/>
<path d="M14.6003 51.1462H18.673C18.9542 51.1462 19.1821 51.3777 19.1821 51.6632V54.5062C19.1821 54.7917 18.9542 55.0232 18.673 55.0232H14.6003C14.3192 55.0232 14.0912 54.7917 14.0912 54.5062V51.6632C14.0912 51.3777 14.3192 51.1462 14.6003 51.1462Z" fill="url(#paint8_linear_112_1159)"/>
<path d="M16.6365 54.3769C15.9335 54.3769 15.3637 53.7983 15.3637 53.0845C15.3637 52.3708 15.9335 51.7922 16.6365 51.7922C17.3394 51.7922 17.9092 52.3708 17.9092 53.0845C17.9092 53.7983 17.3394 54.3769 16.6365 54.3769Z" fill="white" fill-opacity="0.3"/>
<path d="M16.6368 53.8599C16.215 53.8599 15.8731 53.5127 15.8731 53.0845C15.8731 52.6562 16.215 52.3091 16.6368 52.3091C17.0585 52.3091 17.4004 52.6562 17.4004 53.0845C17.4004 53.5127 17.0585 53.8599 16.6368 53.8599Z" fill="white" fill-opacity="0.1"/>
<path d="M18.057 51.5364H18.6707C18.7272 51.5364 18.7729 51.5974 18.7729 51.6727V52.2182C18.7729 52.2935 18.7272 52.3546 18.6707 52.3546H18.057C18.0006 52.3546 17.9548 52.2935 17.9548 52.2182V51.6727C17.9548 51.5974 18.0006 51.5364 18.057 51.5364Z" fill="#2C3E50"/>
<path d="M18.4955 54.5071C18.3547 54.5071 18.2405 54.3912 18.2405 54.2482C18.2405 54.1052 18.3547 53.9893 18.4955 53.9893C18.6363 53.9893 18.7505 54.1052 18.7505 54.2482C18.7505 54.3912 18.6363 54.5071 18.4955 54.5071Z" fill="#27AE60"/>
<path d="M17.8817 54.5071C17.7409 54.5071 17.6267 54.3912 17.6267 54.2482C17.6267 54.1052 17.7409 53.9893 17.8817 53.9893C18.0226 53.9893 18.1367 54.1052 18.1367 54.2482C18.1367 54.3912 18.0226 54.5071 17.8817 54.5071Z" fill="#E74C3C"/>
<defs>
<linearGradient id="paint0_linear_112_1159" x1="70" y1="-0.300049" x2="0" y2="69.7" gradientUnits="userSpaceOnUse">
<stop stop-color="#A1D9E2"/>
<stop offset="1" stop-color="#F9EFC7"/>
</linearGradient>
<linearGradient id="paint1_linear_112_1159" x1="46" y1="38.5" x2="-2029.29" y2="1817.32" gradientUnits="userSpaceOnUse">
<stop stop-color="#3AA3B5"/>
<stop offset="1" stop-color="#308C9C"/>
</linearGradient>
<linearGradient id="paint2_linear_112_1159" x1="53" y1="46.5" x2="-647" y2="746.5" gradientUnits="userSpaceOnUse">
<stop stop-color="#FFDBAC"/>
<stop offset="1" stop-color="#F4C2A1"/>
</linearGradient>
<linearGradient id="paint3_linear_112_1159" x1="28" y1="46.5" x2="-672" y2="746.5" gradientUnits="userSpaceOnUse">
<stop stop-color="#FFDBAC"/>
<stop offset="1" stop-color="#F4C2A1"/>
</linearGradient>
<linearGradient id="paint4_linear_112_1159" x1="48" y1="11.5" x2="-2152" y2="2211.5" gradientUnits="userSpaceOnUse">
<stop stop-color="#FFDBAC"/>
<stop offset="1" stop-color="#F4C2A1"/>
</linearGradient>
<linearGradient id="paint5_linear_112_1159" x1="43" y1="13.5" x2="-333.712" y2="842.267" gradientUnits="userSpaceOnUse">
<stop stop-color="white"/>
<stop offset="1" stop-color="#ECF0F1"/>
</linearGradient>
<linearGradient id="paint6_linear_112_1159" x1="25.3716" y1="46.7832" x2="64.5647" y2="247.043" gradientUnits="userSpaceOnUse">
<stop stop-color="#3AA3B5"/>
<stop offset="1" stop-color="#26798A"/>
</linearGradient>
<linearGradient id="paint7_linear_112_1159" x1="16.6362" y1="35.6384" x2="-396.784" y2="714.232" gradientUnits="userSpaceOnUse">
<stop stop-color="#3AA3B5"/>
<stop offset="1" stop-color="#26798A"/>
</linearGradient>
<linearGradient id="paint8_linear_112_1159" x1="19.1821" y1="51.1462" x2="-354.557" y2="541.914" gradientUnits="userSpaceOnUse">
<stop stop-color="#3AA3B5"/>
<stop offset="1" stop-color="#26798A"/>
</linearGradient>
</defs>
</svg>
