<svg width="70" height="71" viewBox="0 0 70 71" fill="none" xmlns="http://www.w3.org/2000/svg">
<rect y="0.800049" width="70" height="70" rx="16" fill="url(#paint0_linear_112_1098)"/>
<path d="M33 63C39.6274 63 45 56.2843 45 48C45 39.7157 39.6274 33 33 33C26.3726 33 21 39.7157 21 48C21 56.2843 26.3726 63 33 63Z" fill="url(#paint1_linear_112_1098)"/>
<path d="M24.7562 49.0113C27.4455 48.5372 28.8781 43.9137 27.956 38.6846C27.034 33.4554 24.1065 29.6008 21.4172 30.075C18.7279 30.5492 17.2953 35.1726 18.2173 40.4018C19.1394 45.6309 22.0669 49.4855 24.7562 49.0113Z" fill="url(#paint2_linear_112_1098)"/>
<path d="M38.2519 48.2568C40.7268 49.4108 44.5522 46.4452 46.7962 41.6329C49.0402 36.8206 48.8531 31.9839 46.3782 30.8299C43.9033 29.6758 40.0778 32.6414 37.8338 37.4537C35.5898 42.266 35.777 47.1027 38.2519 48.2568Z" fill="url(#paint3_linear_112_1098)"/>
<path d="M20 51C21.6569 51 23 49.433 23 47.5C23 45.567 21.6569 44 20 44C18.3431 44 17 45.567 17 47.5C17 49.433 18.3431 51 20 51Z" fill="url(#paint4_linear_112_1098)"/>
<path d="M48.5 50C50.433 50 52 48.433 52 46.5C52 44.567 50.433 43 48.5 43C46.567 43 45 44.567 45 46.5C45 48.433 46.567 50 48.5 50Z" fill="url(#paint5_linear_112_1098)"/>
<path d="M32.5 32C38.8513 32 44 26.8513 44 20.5C44 14.1487 38.8513 9 32.5 9C26.1487 9 21 14.1487 21 20.5C21 26.8513 26.1487 32 32.5 32Z" fill="url(#paint6_linear_112_1098)"/>
<path d="M23 13.4444C25.7143 9.74074 28.881 8.35185 32.5 9.27778C36.119 8.35185 39.2857 9.74074 42 13.4444C41.4571 16.2222 40.8238 18.0741 40.1 19C38.6524 17.1481 36.119 15.7593 32.5 14.8333C28.881 15.7593 26.3476 17.1481 24.9 19C24.1762 18.0741 23.5429 16.2222 23 13.4444Z" fill="url(#paint7_linear_112_1098)"/>
<path opacity="0.7" d="M26 12C27.6667 12 29.3333 12 31 12" stroke="#654321"/>
<path opacity="0.7" d="M34 12C35.6667 12 37.3333 12 39 12" stroke="#654321"/>
<path opacity="0.7" d="M30 11C32 9.66667 34 9.66667 36 11" stroke="#654321"/>
<path d="M35.5 21C36.3284 21 37 20.1046 37 19C37 17.8954 36.3284 17 35.5 17C34.6716 17 34 17.8954 34 19C34 20.1046 34.6716 21 35.5 21Z" fill="white"/>
<path d="M35.0198 19.1154C35.009 19.7313 35.3331 20.2365 35.7437 20.2437C36.1544 20.2509 36.496 19.7574 36.5068 19.1414C36.5176 18.5255 36.1935 18.0203 35.7828 18.0131C35.3722 18.0059 35.0306 18.4994 35.0198 19.1154Z" fill="#2C3E50"/>
<path d="M35.5 21C36.3284 21 37 20.1046 37 19C37 17.8954 36.3284 17 35.5 17C34.6716 17 34 17.8954 34 19C34 20.1046 34.6716 21 35.5 21Z" fill="white"/>
<path d="M35.0198 19.1151C35.009 19.7311 35.3331 20.2362 35.7437 20.2434C36.1544 20.2506 36.496 19.7571 36.5068 19.1412C36.5176 18.5252 36.1935 18.02 35.7828 18.0128C35.3722 18.0057 35.0306 18.4992 35.0198 19.1151Z" fill="#2C3E50"/>
<path d="M35.513 19.0935C35.5058 19.5042 35.6664 19.84 35.8717 19.8436C36.077 19.8472 36.2493 19.5172 36.2565 19.1066C36.2637 18.6959 36.1031 18.3601 35.8978 18.3565C35.6924 18.3529 35.5202 18.6829 35.513 19.0935Z" fill="white"/>
<path d="M30 21C30.8284 21 31.5 20.1046 31.5 19C31.5 17.8954 30.8284 17 30 17C29.1716 17 28.5 17.8954 28.5 19C28.5 20.1046 29.1716 21 30 21Z" fill="white"/>
<path d="M29.5198 19.1151C29.509 19.7311 29.8331 20.2362 30.2437 20.2434C30.6544 20.2506 30.996 19.7571 31.0068 19.1412C31.0176 18.5252 30.6935 18.02 30.2828 18.0128C29.8722 18.0057 29.5306 18.4992 29.5198 19.1151Z" fill="#2C3E50"/>
<path d="M30.013 19.0935C30.0058 19.5042 30.1664 19.84 30.3717 19.8436C30.577 19.8472 30.7493 19.5172 30.7565 19.1066C30.7637 18.6959 30.6031 18.3601 30.3978 18.3565C30.1924 18.3529 30.0202 18.6829 30.013 19.0935Z" fill="white"/>
<path d="M29 16C29.6667 16 30.3333 16 31 16" stroke="#654321" stroke-width="2.5" stroke-linecap="round"/>
<path d="M34 16C35 16 36 16 37 16" stroke="#654321" stroke-width="2.5" stroke-linecap="round"/>
<path d="M32.5 22C32.7761 22 33 21.7761 33 21.5C33 21.2239 32.7761 21 32.5 21C32.2239 21 32 21.2239 32 21.5C32 21.7761 32.2239 22 32.5 22Z" fill="#F4C2A1"/>
<path d="M31 24C32 26.6667 33 26.6667 34 24" stroke="#E74C3C" stroke-width="2.5" stroke-linecap="round"/>
<path d="M50 42H46C45.4477 42 45 42.4029 45 42.9V50.1C45 50.5971 45.4477 51 46 51H50C50.5523 51 51 50.5971 51 50.1V42.9C51 42.4029 50.5523 42 50 42Z" fill="#2C3E50"/>
<path d="M49.4286 43H46.5714C46.2558 43 46 43.2612 46 43.5833V49.4167C46 49.7388 46.2558 50 46.5714 50H49.4286C49.7442 50 50 49.7388 50 49.4167V43.5833C50 43.2612 49.7442 43 49.4286 43Z" fill="#3498DB"/>
<path d="M47.5 49.75C47.6381 49.75 47.75 49.6381 47.75 49.5C47.75 49.3619 47.6381 49.25 47.5 49.25C47.3619 49.25 47.25 49.3619 47.25 49.5C47.25 49.6381 47.3619 49.75 47.5 49.75Z" fill="#ECF0F1"/>
<path d="M47.1223 43.6636H46.5729C46.497 43.6636 46.4355 43.7251 46.4355 43.8009V44.3503C46.4355 44.4262 46.497 44.4877 46.5729 44.4877H47.1223C47.1981 44.4877 47.2596 44.4262 47.2596 44.3503V43.8009C47.2596 43.7251 47.1981 43.6636 47.1223 43.6636Z" fill="#E74C3C"/>
<path d="M46.8478 44.2129C46.9236 44.2129 46.9851 44.1514 46.9851 44.0756C46.9851 43.9997 46.9236 43.9382 46.8478 43.9382C46.7719 43.9382 46.7104 43.9997 46.7104 44.0756C46.7104 44.1514 46.7719 44.2129 46.8478 44.2129Z" fill="white"/>
<path d="M48.2209 43.6636H47.6715C47.5957 43.6636 47.5342 43.7251 47.5342 43.8009V44.3503C47.5342 44.4262 47.5957 44.4877 47.6715 44.4877H48.2209C48.2968 44.4877 48.3583 44.4262 48.3583 44.3503V43.8009C48.3583 43.7251 48.2968 43.6636 48.2209 43.6636Z" fill="#F39C12"/>
<path d="M48.1384 43.8008H47.7538C47.7083 43.8008 47.6714 43.8377 47.6714 43.8832V44.2678C47.6714 44.3133 47.7083 44.3502 47.7538 44.3502H48.1384C48.1839 44.3502 48.2208 44.3133 48.2208 44.2678V43.8832C48.2208 43.8377 48.1839 43.8008 48.1384 43.8008Z" fill="white"/>
<path d="M49.32 43.6636H48.7706C48.6948 43.6636 48.6333 43.7251 48.6333 43.8009V44.3503C48.6333 44.4262 48.6948 44.4877 48.7706 44.4877H49.32C49.3959 44.4877 49.4574 44.4262 49.4574 44.3503V43.8009C49.4574 43.7251 49.3959 43.6636 49.32 43.6636Z" fill="#27AE60"/>
<path d="M49.0453 44.2679C49.1515 44.2679 49.2376 44.1818 49.2376 44.0756C49.2376 43.9694 49.1515 43.8833 49.0453 43.8833C48.9391 43.8833 48.853 43.9694 48.853 44.0756C48.853 44.1818 48.9391 44.2679 49.0453 44.2679Z" fill="white"/>
<path d="M49.3195 43.6636H48.7702C48.6943 43.6636 48.6328 43.7251 48.6328 43.8009V44.3503C48.6328 44.4262 48.6943 44.4877 48.7702 44.4877H49.3195C49.3954 44.4877 49.4569 44.4262 49.4569 44.3503V43.8009C49.4569 43.7251 49.3954 43.6636 49.3195 43.6636Z" fill="#27AE60"/>
<path d="M49.0453 44.2679C49.1515 44.2679 49.2376 44.1818 49.2376 44.0756C49.2376 43.9694 49.1515 43.8833 49.0453 43.8833C48.9391 43.8833 48.853 43.9694 48.853 44.0756C48.853 44.1818 48.9391 44.2679 49.0453 44.2679Z" fill="white"/>
<path d="M47.1223 44.7622H46.5729C46.497 44.7622 46.4355 44.8237 46.4355 44.8996V45.4489C46.4355 45.5248 46.497 45.5863 46.5729 45.5863H47.1223C47.1981 45.5863 47.2596 45.5248 47.2596 45.4489V44.8996C47.2596 44.8237 47.1981 44.7622 47.1223 44.7622Z" fill="#9B59B6"/>
<path d="M46.5728 45.1745C46.7559 44.9913 46.939 44.9913 47.1221 45.1745" stroke="white" stroke-width="0.3"/>
<path d="M48.2209 44.7622H47.6715C47.5957 44.7622 47.5342 44.8237 47.5342 44.8996V45.4489C47.5342 45.5248 47.5957 45.5863 47.6715 45.5863H48.2209C48.2968 45.5863 48.3583 45.5248 48.3583 45.4489V44.8996C48.3583 44.8237 48.2968 44.7622 48.2209 44.7622Z" fill="#308C9C"/>
<path d="M48.1658 45.0371H47.7263C47.696 45.0371 47.6714 45.0617 47.6714 45.092V45.2569C47.6714 45.2872 47.696 45.3118 47.7263 45.3118H48.1658C48.1962 45.3118 48.2208 45.2872 48.2208 45.2569V45.092C48.2208 45.0617 48.1962 45.0371 48.1658 45.0371Z" fill="white"/>
<path d="M49.32 44.7622H48.7706C48.6948 44.7622 48.6333 44.8237 48.6333 44.8996V45.4489C48.6333 45.5248 48.6948 45.5863 48.7706 45.5863H49.32C49.3959 45.5863 49.4574 45.5248 49.4574 45.4489V44.8996C49.4574 44.8237 49.3959 44.7622 49.32 44.7622Z" fill="#9BD5FB"/>
<path d="M49.0449 45.3941C49.1663 45.3941 49.2647 45.2957 49.2647 45.1743C49.2647 45.053 49.1663 44.9546 49.0449 44.9546C48.9236 44.9546 48.8252 45.053 48.8252 45.1743C48.8252 45.2957 48.9236 45.3941 49.0449 45.3941Z" fill="white"/>
<path d="M12.0986 43.114H12.9227L13.4721 40.9165H17.0431L16.4937 44.7622H13.4721L12.0986 43.114Z" fill="#E74C3C" stroke="#C0392B" stroke-width="0.8"/>
<path d="M14.0216 46.1359C14.325 46.1359 14.5709 45.8899 14.5709 45.5865C14.5709 45.2831 14.325 45.0371 14.0216 45.0371C13.7181 45.0371 13.4722 45.2831 13.4722 45.5865C13.4722 45.8899 13.7181 46.1359 14.0216 46.1359Z" fill="#2C3E50"/>
<path d="M15.6695 46.1359C15.9729 46.1359 16.2189 45.8899 16.2189 45.5865C16.2189 45.2831 15.9729 45.0371 15.6695 45.0371C15.3661 45.0371 15.1201 45.2831 15.1201 45.5865C15.1201 45.8899 15.3661 46.1359 15.6695 46.1359Z" fill="#2C3E50"/>
<path d="M13.3 43.05L12 41.5H11" stroke="#E74C3C" stroke-width="1.2" stroke-linecap="round"/>
<path d="M14.8456 43.526C15.0732 43.526 15.2577 43.3415 15.2577 43.1139C15.2577 42.8864 15.0732 42.7019 14.8456 42.7019C14.6181 42.7019 14.4336 42.8864 14.4336 43.1139C14.4336 43.3415 14.6181 43.526 14.8456 43.526Z" fill="#F39C12"/>
<path d="M15.6698 42.0154H14.5711C14.4194 42.0154 14.2964 42.1384 14.2964 42.2901V42.5648C14.2964 42.7165 14.4194 42.8395 14.5711 42.8395H15.6698C15.8216 42.8395 15.9445 42.7165 15.9445 42.5648V42.2901C15.9445 42.1384 15.8216 42.0154 15.6698 42.0154Z" fill="#27AE60"/>
<path opacity="0.8" d="M53.3025 18.9411C53.7603 18.0255 54.2181 18.0255 54.6759 18.9411C55.1338 18.0255 55.5916 18.0255 56.0494 18.9411C56.4998 19.9999 55.5916 21.0471 54.6759 22.5121C54.2181 21.9627 53.7603 21.2302 53.3025 20.3146C53.3025 20.3146 52.9998 19.4999 53.3025 18.9411Z" fill="#E74C3C"/>
<path opacity="0.8" d="M58.0632 13.3226C58.2782 12.8925 58.4933 12.8925 58.7083 13.3226C58.9234 12.8925 59.1385 12.8925 59.3535 13.3226C59.5651 13.8199 59.1385 14.3118 58.7083 15C58.4933 14.7419 58.2782 14.3978 58.0632 13.9677C58.0632 13.9677 57.921 13.585 58.0632 13.3226Z" fill="#F39C12"/>
<path opacity="0.8" d="M56.0538 26.2742C56.2369 25.9086 56.42 25.9086 56.6031 26.2742C56.7862 25.9086 56.9693 25.9086 57.1524 26.2742C57.3325 26.6969 56.9693 27.1151 56.6031 27.7C56.42 27.4806 56.2369 27.1882 56.0538 26.8226C56.0538 26.8226 55.9328 26.4973 56.0538 26.2742Z" fill="#9B59B6"/>
<path opacity="0.8" d="M55.0494 20L55.1867 20.412H55.5988L55.3241 20.6867L55.4614 21.0988L55.0494 20.8241L54.6373 21.0988L54.7747 20.6867L54.5 20.412H54.912L55.0494 20Z" fill="#F1C40F"/>
<path d="M48.5 49.75C48.6381 49.75 48.75 49.6381 48.75 49.5C48.75 49.3619 48.6381 49.25 48.5 49.25C48.3619 49.25 48.25 49.3619 48.25 49.5C48.25 49.6381 48.3619 49.75 48.5 49.75Z" fill="#E74C3C"/>
<defs>
<linearGradient id="paint0_linear_112_1098" x1="4.21562e-07" y1="1" x2="70" y2="71" gradientUnits="userSpaceOnUse">
<stop stop-color="#A1D9E2"/>
<stop offset="1" stop-color="#F9EFC7"/>
</linearGradient>
<linearGradient id="paint1_linear_112_1098" x1="21" y1="33" x2="2947.83" y2="2374.46" gradientUnits="userSpaceOnUse">
<stop stop-color="#3AA3B5"/>
<stop offset="1" stop-color="#308C9C"/>
</linearGradient>
<linearGradient id="paint2_linear_112_1098" x1="16.5479" y1="30.9336" x2="1696.56" y2="551.503" gradientUnits="userSpaceOnUse">
<stop stop-color="#3AA3B5"/>
<stop offset="1" stop-color="#308C9C"/>
</linearGradient>
<linearGradient id="paint3_linear_112_1098" x1="41.897" y1="28.7402" x2="1119.5" y2="1418.78" gradientUnits="userSpaceOnUse">
<stop stop-color="#3AA3B5"/>
<stop offset="1" stop-color="#308C9C"/>
</linearGradient>
<linearGradient id="paint4_linear_112_1098" x1="17" y1="44" x2="708.765" y2="636.941" gradientUnits="userSpaceOnUse">
<stop stop-color="#FFDBAC"/>
<stop offset="1" stop-color="#F4C2A1"/>
</linearGradient>
<linearGradient id="paint5_linear_112_1098" x1="45" y1="43" x2="745" y2="743" gradientUnits="userSpaceOnUse">
<stop stop-color="#FFDBAC"/>
<stop offset="1" stop-color="#F4C2A1"/>
</linearGradient>
<linearGradient id="paint6_linear_112_1098" x1="21" y1="9" x2="2321" y2="2309" gradientUnits="userSpaceOnUse">
<stop stop-color="#FFDBAC"/>
<stop offset="1" stop-color="#F4C2A1"/>
</linearGradient>
<linearGradient id="paint7_linear_112_1098" x1="23" y1="9" x2="847.295" y2="1575.16" gradientUnits="userSpaceOnUse">
<stop stop-color="#8B4513"/>
<stop offset="1" stop-color="#654321"/>
</linearGradient>
</defs>
</svg>
