<svg width="206" height="201" viewBox="0 0 206 201" fill="none" xmlns="http://www.w3.org/2000/svg">
<path d="M93.724 123.753H22.2352C19.4206 123.753 17.1299 121.336 17.1299 118.364V31.0458C17.1299 28.074 19.4206 25.6572 22.2352 25.6572H93.724C96.5415 25.6572 98.8293 28.074 98.8293 31.0458V118.364C98.8293 121.336 96.5357 123.753 93.724 123.753ZM22.2352 26.8748C20.0551 26.8748 18.2854 28.7487 18.2854 31.0458V118.364C18.2854 120.667 20.0609 122.535 22.2352 122.535H93.724C95.907 122.535 97.6767 120.661 97.6767 118.364V31.0458C97.6767 28.7425 95.9012 26.8748 93.724 26.8748H22.2352Z" fill="#E3E3E3"/>
<path d="M68.5122 48.2545C68.5122 48.9845 68.4453 49.7052 68.3114 50.4229C68.1746 51.1374 67.9766 51.8336 67.7118 52.5084C67.4469 53.1831 67.1209 53.8241 66.7367 54.4313C66.3525 55.0355 65.9159 55.5998 65.4269 56.1151C64.9379 56.6303 64.4053 57.0903 63.8319 57.4982C63.2555 57.9031 62.6501 58.2466 62.0098 58.5256C61.3694 58.8047 60.7116 59.0164 60.0334 59.1574C59.3553 59.2985 58.6713 59.3721 57.9785 59.3721C57.2858 59.3721 56.6018 59.2985 55.9236 59.1574C55.2454 59.0164 54.5847 58.8047 53.9472 58.5256C53.3069 58.2466 52.7015 57.9031 52.1252 57.4982C51.5518 57.0903 51.0191 56.6303 50.5301 56.1151C50.0411 55.5998 49.6045 55.0355 49.2203 54.4313C48.8361 53.8241 48.5101 53.1831 48.2453 52.5084C47.9804 51.8336 47.7825 51.1374 47.6457 50.4229C47.5118 49.7052 47.4448 48.9845 47.4448 48.2545C47.4448 47.5246 47.5118 46.8008 47.6457 46.0832C47.7825 45.3686 47.9804 44.6724 48.2453 43.9977C48.5101 43.326 48.8361 42.685 49.2203 42.0778C49.6045 41.4705 50.0411 40.9093 50.5301 40.391C51.0191 39.8757 51.5518 39.4157 52.1252 39.0108C52.7015 38.6029 53.3069 38.2625 53.9472 37.9834C54.5847 37.7043 55.2454 37.4927 55.9236 37.3486C56.6018 37.2075 57.2858 37.137 57.9785 37.137C58.6713 37.137 59.3553 37.2075 60.0334 37.3486C60.7116 37.4927 61.3694 37.7043 62.0098 37.9834C62.6501 38.2625 63.2555 38.6029 63.8319 39.0108C64.4053 39.4157 64.9379 39.8757 65.4269 40.391C65.9159 40.9093 66.3525 41.4705 66.7367 42.0778C67.1209 42.685 67.4469 43.326 67.7118 43.9977C67.9766 44.6724 68.1746 45.3686 68.3114 46.0832C68.4453 46.8008 68.5122 47.5246 68.5122 48.2545Z" fill="#E3E3E3"/>
<path d="M75.2676 76.4548H40.689V67.0455C40.689 63.9632 43.0553 61.4729 45.9718 61.4729H69.979C72.9013 61.4729 75.2618 63.9694 75.2618 67.0455V76.4548H75.2676Z" fill="#E3E3E3"/>
<path d="M28.0337 83.8369H87.9293V86.5358H28.0337V83.8369Z" fill="#E3E3E3"/>
<path d="M28.0337 93.2031H87.9293V95.902H28.0337V93.2031Z" fill="#E3E3E3"/>
<path d="M28.0337 103.824H87.9293V106.523H28.0337V103.824Z" fill="#E3E3E3"/>
<path d="M34.1373 135.965C33.8579 135.965 33.6076 135.747 33.5698 135.444C33.3573 133.95 33.1972 133.085 33.1972 133.079C33.1332 132.748 33.3398 132.429 33.6484 132.368C33.9598 132.3 34.2625 132.518 34.3207 132.843C34.3265 132.877 34.4924 133.745 34.7049 135.266C34.7515 135.597 34.5332 135.907 34.2188 135.959C34.1897 135.959 34.1606 135.965 34.1373 135.965Z" fill="#E3E3E3"/>
<path d="M9.95251 190.544C9.70219 190.544 9.45188 190.541 9.2132 190.522C8.89594 190.504 8.65435 190.219 8.66891 189.885C8.68346 189.547 8.95706 189.296 9.27724 189.311C10.622 189.394 12.1268 189.222 13.7014 188.805C14.01 188.722 14.3243 188.918 14.4029 189.25C14.4815 189.575 14.2894 189.906 13.9809 189.986C12.5721 190.354 11.2186 190.544 9.95251 190.544ZM4.82974 189.167C4.72787 189.167 4.626 189.139 4.53286 189.078C3.09499 188.161 1.96856 186.818 1.27582 185.198C1.14193 184.892 1.27582 184.533 1.56398 184.392C1.85213 184.254 2.19559 184.392 2.32657 184.698C2.92326 186.097 3.89251 187.247 5.12954 188.035C5.40314 188.213 5.48464 188.584 5.32456 188.872C5.21686 189.063 5.02767 189.167 4.82974 189.167ZM18.2072 188.342C17.9859 188.342 17.7822 188.213 17.6832 187.983C17.5523 187.679 17.6774 187.318 17.9685 187.18L18.0849 187.121C19.4238 186.462 20.6958 185.674 21.8746 184.778C22.1336 184.582 22.4916 184.646 22.6779 184.919C22.8642 185.192 22.8031 185.569 22.544 185.766C21.307 186.704 19.971 187.529 18.5681 188.222L18.4429 188.284C18.3672 188.32 18.2857 188.342 18.2072 188.342ZM25.6934 182.653C25.5537 182.653 25.411 182.598 25.2975 182.487C25.0676 182.254 25.053 181.874 25.2742 181.625C26.2872 180.491 27.2302 179.227 28.0772 177.862C28.2519 177.58 28.6099 177.503 28.8747 177.687C29.1367 177.875 29.2124 178.252 29.0406 178.528C28.1558 179.948 27.172 181.27 26.1096 182.456C25.999 182.591 25.8476 182.653 25.6934 182.653ZM1.08081 180.77C1.06625 180.77 1.04588 180.77 1.03133 180.77C0.714065 180.742 0.478301 180.448 0.501586 180.113C0.635476 178.466 1.08372 176.816 1.85213 175.215C1.99476 174.915 2.34113 174.798 2.62637 174.949C2.9087 175.096 3.02222 175.464 2.8796 175.761C2.18104 177.224 1.76772 178.724 1.64548 180.218C1.62801 180.527 1.3777 180.77 1.08081 180.77ZM30.8045 174.525C30.723 174.525 30.6444 174.504 30.5658 174.467C30.2777 174.329 30.1496 173.967 30.2864 173.661C30.9035 172.259 31.4594 170.747 31.9455 169.168C32.0415 168.846 32.3704 168.671 32.6702 168.775C32.9729 168.876 33.1389 169.22 33.0399 169.539C32.5422 171.164 31.9659 172.722 31.3284 174.173C31.2324 174.394 31.0199 174.525 30.8045 174.525ZM5.07133 172.13C4.9287 172.13 4.78317 172.072 4.66966 171.958C4.43971 171.725 4.43389 171.339 4.6551 171.097C5.72041 169.931 6.97199 168.873 8.37202 167.944C8.6398 167.769 8.99781 167.852 9.16372 168.134C9.33545 168.419 9.25104 168.796 8.98326 168.971C7.66182 169.848 6.483 170.845 5.48173 171.937C5.36822 172.066 5.21686 172.13 5.07133 172.13ZM12.8312 166.895C12.6012 166.895 12.3829 166.745 12.2927 166.509C12.1821 166.193 12.3276 165.843 12.6274 165.723C14.0391 165.15 15.5672 164.678 17.1593 164.31C17.4737 164.239 17.7764 164.451 17.8462 164.776C17.9132 165.104 17.7123 165.426 17.4038 165.496C15.8699 165.849 14.4029 166.303 13.0436 166.855C12.968 166.886 12.901 166.895 12.8312 166.895ZM33.6948 165.23C33.657 165.23 33.6133 165.223 33.5725 165.214C33.2989 165.15 33.1127 164.892 33.1185 164.61C32.4548 164.662 31.8029 164.696 31.1625 164.711C30.8307 164.711 30.5804 164.454 30.5716 164.119C30.56 163.782 30.8161 163.506 31.1334 163.494C31.8523 163.472 32.5946 163.432 33.3484 163.371C33.5696 162.184 33.7588 160.954 33.9218 159.706C33.9655 159.372 34.2595 159.145 34.5651 159.185C34.8794 159.231 35.1036 159.534 35.0599 159.866C34.9144 161.016 34.7426 162.147 34.5418 163.245C34.9231 163.205 35.3102 163.153 35.6973 163.101C36.0088 163.061 36.3027 163.294 36.3406 163.623C36.3813 163.954 36.1601 164.264 35.8487 164.303C35.3306 164.377 34.8154 164.438 34.306 164.497C34.2915 164.579 34.274 164.662 34.2595 164.742C34.1983 165.033 33.9597 165.23 33.6948 165.23ZM21.8659 164.791C21.5719 164.791 21.3187 164.552 21.2925 164.239C21.2633 163.902 21.4991 163.607 21.8164 163.577C23.3212 163.439 24.8929 163.371 26.5113 163.396C26.8285 163.402 27.0847 163.675 27.0789 164.009C27.073 164.34 26.8198 164.61 26.5025 164.61C26.4967 164.61 26.4967 164.61 26.4909 164.61C24.9133 164.595 23.3823 164.644 21.9153 164.785C21.9008 164.791 21.8833 164.791 21.8659 164.791ZM40.3486 163.457C40.0837 163.457 39.8421 163.261 39.7839 162.985C39.717 162.66 39.912 162.334 40.2263 162.261C41.6729 161.927 43.1748 161.519 44.6855 161.049C44.9882 160.954 45.3112 161.135 45.3986 161.46C45.4888 161.785 45.3171 162.123 45.0085 162.215C43.4688 162.69 41.9407 163.107 40.4708 163.448C40.4301 163.454 40.3864 163.457 40.3486 163.457ZM49.2639 160.712C49.0282 160.712 48.804 160.559 48.7196 160.31C48.6119 159.994 48.7691 159.645 49.066 159.531C50.4748 158.998 51.9272 158.406 53.3767 157.771C53.6707 157.642 54.0083 157.786 54.1306 158.102C54.2528 158.412 54.1102 158.768 53.8162 158.896C52.3492 159.54 50.8823 160.139 49.4531 160.675C49.3949 160.697 49.328 160.712 49.2639 160.712ZM57.8504 156.955C57.635 156.955 57.4254 156.826 57.3265 156.605C57.1897 156.299 57.3177 155.937 57.6059 155.793C58.9768 155.118 60.3739 154.391 61.7536 153.637C62.0388 153.48 62.3852 153.6 62.5307 153.894C62.6792 154.195 62.5657 154.56 62.2833 154.716C60.8891 155.48 59.4745 156.213 58.092 156.894C58.0134 156.94 57.929 156.955 57.8504 156.955ZM34.9493 155.52C34.9318 155.52 34.9231 155.52 34.9085 155.52C34.5913 155.498 34.3526 155.21 34.3701 154.876C34.469 153.296 34.5214 151.659 34.5331 150.008C34.5331 149.671 34.7921 149.404 35.1094 149.404C35.1094 149.404 35.1094 149.404 35.1152 149.404C35.4325 149.404 35.6857 149.683 35.6857 150.018C35.677 151.689 35.6217 153.351 35.5198 154.952C35.4994 155.271 35.2462 155.52 34.9493 155.52ZM66.1079 152.456C65.9071 152.456 65.7092 152.339 65.6044 152.146C65.4472 151.852 65.5433 151.478 65.8227 151.318C67.1441 150.533 68.483 149.705 69.819 148.846C70.0926 148.671 70.4448 148.763 70.6107 149.049C70.7766 149.337 70.6893 149.708 70.4215 149.883C69.0768 150.745 67.7204 151.582 66.3961 152.376C66.303 152.428 66.204 152.456 66.1079 152.456ZM74.054 147.359C73.8678 147.359 73.6815 147.264 73.5709 147.086C73.3991 146.807 73.4719 146.432 73.7368 146.245C75.0117 145.368 76.304 144.448 77.576 143.516C77.835 143.323 78.1959 143.39 78.3764 143.666C78.5598 143.939 78.4957 144.319 78.2367 144.513C76.9531 145.451 75.6549 146.38 74.3684 147.264C74.2694 147.325 74.1617 147.359 74.054 147.359ZM35.0162 145.718C34.7077 145.718 34.4545 145.466 34.4399 145.141C34.3701 143.534 34.2624 141.9 34.1168 140.28C34.0877 139.943 34.3177 139.648 34.6349 139.618C34.9522 139.581 35.2316 139.829 35.2607 140.167C35.4063 141.801 35.5198 143.458 35.5896 145.083C35.6042 145.42 35.3597 145.703 35.0395 145.718C35.0366 145.718 35.025 145.718 35.0162 145.718ZM81.6829 141.755C81.5083 141.755 81.3307 141.666 81.2201 141.507C81.028 141.24 81.0833 140.857 81.3424 140.654C82.5736 139.694 83.8106 138.701 85.0243 137.692C85.2747 137.486 85.6356 137.532 85.8306 137.796C86.0256 138.06 85.9819 138.44 85.7345 138.649C84.5121 139.661 83.2634 140.667 82.0205 141.63C81.9245 141.712 81.8022 141.755 81.6829 141.755ZM88.9858 135.707C88.8198 135.707 88.6568 135.628 88.5404 135.49C88.3338 135.232 88.3687 134.849 88.6132 134.631C89.792 133.6 90.9766 132.533 92.1293 131.46C92.3709 131.236 92.7318 131.264 92.9413 131.515C93.1538 131.766 93.1276 132.15 92.889 132.371C91.7247 133.45 90.5371 134.53 89.3467 135.566C89.2506 135.658 89.1167 135.707 88.9858 135.707ZM95.9655 129.23C95.8084 129.23 95.657 129.163 95.5435 129.034C95.3281 128.785 95.3397 128.402 95.5726 128.175C96.7077 127.062 97.8371 125.921 98.9228 124.786C99.1498 124.547 99.5165 124.553 99.7407 124.789C99.9648 125.028 99.9619 125.415 99.7348 125.651C98.6404 126.792 97.5053 127.939 96.3614 129.065C96.2449 129.172 96.1023 129.23 95.9655 129.23ZM102.581 122.327C102.439 122.327 102.299 122.271 102.186 122.158C101.956 121.925 101.947 121.544 102.165 121.296C103.236 120.115 104.293 118.907 105.312 117.708C105.521 117.462 105.888 117.441 106.124 117.662C106.357 117.886 106.377 118.272 106.167 118.52C105.14 119.726 104.075 120.943 102.998 122.133C102.884 122.265 102.733 122.327 102.581 122.327ZM108.787 115.024C108.656 115.024 108.525 114.978 108.417 114.88C108.173 114.662 108.144 114.282 108.347 114.024C109.346 112.77 110.33 111.494 111.264 110.231C111.459 109.967 111.82 109.921 112.07 110.126C112.321 110.332 112.364 110.715 112.169 110.979C111.223 112.249 110.237 113.54 109.229 114.803C109.116 114.954 108.956 115.024 108.787 115.024ZM114.515 107.299C114.399 107.299 114.279 107.262 114.178 107.185C113.919 106.989 113.866 106.605 114.049 106.339C114.966 105.008 115.854 103.658 116.692 102.333C116.867 102.054 117.225 101.978 117.49 102.162C117.752 102.349 117.828 102.726 117.65 103.005C116.803 104.342 115.904 105.704 114.981 107.05C114.873 107.216 114.696 107.299 114.515 107.299ZM119.664 99.1375C119.562 99.1375 119.46 99.1069 119.367 99.0517C119.094 98.8738 119.009 98.5027 119.172 98.2144C119.979 96.8067 120.756 95.3867 121.475 93.9882C121.626 93.6938 121.978 93.5833 122.258 93.7459C122.537 93.9054 122.639 94.2703 122.487 94.5709C121.76 95.9847 120.977 97.4262 120.159 98.8431C120.051 99.0363 119.862 99.1375 119.664 99.1375ZM124.097 90.5256C124.013 90.5256 123.931 90.5042 123.847 90.4612C123.559 90.3171 123.436 89.9552 123.573 89.6516C124.243 88.1702 124.868 86.6736 125.436 85.2015C125.558 84.8917 125.89 84.7445 126.19 84.8672C126.484 84.996 126.624 85.3487 126.507 85.6584C125.931 87.1489 125.293 88.6671 124.615 90.1729C124.516 90.3938 124.307 90.5256 124.097 90.5256ZM127.584 81.4445C127.526 81.4445 127.462 81.4353 127.404 81.4138C127.098 81.3065 126.938 80.966 127.037 80.644C127.526 79.086 127.96 77.5219 128.326 75.9915C128.405 75.6633 128.722 75.4701 129.025 75.5499C129.333 75.6327 129.52 75.9639 129.441 76.289C129.071 77.8531 128.626 79.4479 128.125 81.0335C128.053 81.285 127.829 81.4445 127.584 81.4445ZM129.834 71.9554C129.805 71.9554 129.77 71.9554 129.741 71.9432C129.427 71.891 129.211 71.5782 129.266 71.247C129.514 69.6307 129.697 68.0145 129.793 66.4411C129.814 66.1068 130.096 65.8584 130.404 65.8737C130.725 65.8952 130.963 66.1896 130.943 66.5178C130.841 68.1279 130.661 69.781 130.402 71.4371C130.355 71.7438 130.111 71.9554 129.834 71.9554ZM130.439 62.1934C130.131 62.1934 129.872 61.9358 129.863 61.6046L129.857 61.5218C129.793 59.8718 129.75 58.2494 129.729 56.6975C129.726 56.3602 129.98 56.0841 130.297 56.0841C130.6 56.0719 130.879 56.3448 130.879 56.6822C130.899 58.2248 130.943 59.835 131.007 61.4727L131.013 61.5709C131.022 61.9051 130.771 62.1842 130.454 62.1934C130.454 62.1934 130.445 62.1934 130.439 62.1934ZM130.308 52.3916C130.303 52.3916 130.303 52.3916 130.297 52.3916C129.98 52.3885 129.726 52.1125 129.729 51.7721C129.755 50.0852 129.808 48.4291 129.886 46.8558C129.901 46.5184 130.157 46.2669 130.495 46.2823C130.812 46.2976 131.056 46.5859 131.036 46.9202C130.958 48.4843 130.908 50.1221 130.885 51.7935C130.879 52.1309 130.62 52.3916 130.308 52.3916ZM130.8 42.6112C130.783 42.6112 130.763 42.6112 130.748 42.6081C130.431 42.5774 130.201 42.2769 130.23 41.9426C130.387 40.2374 130.582 38.5904 130.806 37.0478C130.856 36.7166 131.15 36.4896 131.461 36.5417C131.775 36.5939 131.991 36.9036 131.941 37.2349C131.717 38.7561 131.525 40.3815 131.374 42.0591C131.345 42.375 131.094 42.6112 130.8 42.6112ZM132.244 32.9412C132.2 32.9412 132.157 32.935 132.113 32.9258C131.805 32.8461 131.61 32.521 131.682 32.1959C132.055 30.4999 132.483 28.8928 132.963 27.4269C133.065 27.1079 133.394 26.9423 133.696 27.0496C133.999 27.16 134.156 27.5035 134.054 27.8256C133.589 29.2547 133.17 30.8189 132.806 32.475C132.742 32.748 132.509 32.9412 132.244 32.9412ZM135.321 23.7282C135.233 23.7282 135.14 23.7067 135.053 23.6546C134.768 23.5012 134.66 23.1332 134.811 22.8326C135.615 21.2194 136.52 19.8209 137.492 18.6677C137.702 18.4224 138.068 18.3948 138.304 18.6217C138.54 18.8456 138.563 19.2321 138.348 19.4805C137.44 20.5539 136.587 21.8727 135.83 23.3969C135.725 23.6085 135.53 23.7282 135.321 23.7282Z" fill="#E3E3E3"/>
<path d="M141.631 16.7326C141.404 16.7326 141.195 16.5946 141.101 16.3676C140.973 16.0579 141.11 15.7021 141.401 15.5671C142.833 14.9108 143.834 14.9415 143.875 14.9476C144.192 14.963 144.443 15.2421 144.428 15.5764C144.414 15.9137 144.143 16.1805 143.832 16.1591C143.82 16.1652 143.028 16.1437 141.861 16.6804C141.785 16.7172 141.707 16.7326 141.631 16.7326Z" fill="#E3E3E3"/>
<path d="M118.907 39.2317L119.216 45.068L122.537 71.2994L125.386 68.763L118.907 39.2317Z" fill="#2E2D40"/>
<path d="M76.0797 23.9951C76.0797 23.9951 67.8978 31.4631 72.8809 50.6988C75.7944 61.936 62.4782 72.6242 71.6671 82.1623C82.291 93.1817 104.724 76.0315 104.724 76.0315L101.516 51.1711L92.2484 28.0895L76.0797 23.9951Z" fill="#2E2D40"/>
<path d="M102.133 16.4874C102.133 16.4874 122.418 2.46237 125.622 48.8771C126.379 59.872 138.738 62.9941 136.543 76.0868C134.348 89.1825 102.733 77.1633 102.2 77.0529C101.668 76.9455 103.752 66.699 104.255 65.1624C104.75 63.6228 102.133 16.4874 102.133 16.4874Z" fill="#2E2D40"/>
<path d="M114.451 76.8015C114.451 76.8015 119.137 92.8875 120.502 95.2613C121.867 97.6381 100.942 98.6011 96.428 97.7976C91.9135 96.9879 89.9634 93.5745 89.9634 93.5745C89.9634 93.5745 93.7531 76.6727 91.2295 69.9684C88.706 63.2641 114.451 76.8015 114.451 76.8015Z" fill="#F9ACB2"/>
<path d="M110.525 80.2056C101.825 82.7143 93.0783 73.9214 88.4911 64.92C83.9039 55.9186 76.0655 22.3022 95.564 18.2722C115.063 14.2392 119.498 36.3732 121.05 46.4419C122.601 56.5106 122.307 76.8105 110.525 80.2056Z" fill="#F9ACB2"/>
<path d="M107.492 80.9079C104.211 80.9079 100.59 79.5983 97.0104 77.0742C96.8881 76.9853 96.8561 76.8105 96.9376 76.6755C97.022 76.5467 97.1879 76.5099 97.3131 76.5988C101.935 79.8559 106.601 81.0428 110.455 79.9326C111.77 79.5523 112.993 78.9358 114.09 78.1016C114.212 78.0096 114.378 78.0403 114.466 78.163C114.553 78.2918 114.524 78.4666 114.407 78.5617C113.264 79.4327 111.983 80.0829 110.597 80.4816C109.605 80.7698 108.569 80.9079 107.492 80.9079Z" fill="#2E2D40"/>
<path d="M115.077 52.5603C115.118 52.8118 115.118 53.0633 115.077 53.3117C115.039 53.5571 114.963 53.784 114.853 53.9864C114.739 54.1889 114.599 54.3575 114.431 54.4863C114.265 54.6152 114.081 54.698 113.883 54.7317C113.683 54.7654 113.485 54.7501 113.287 54.6857C113.089 54.6213 112.905 54.514 112.737 54.3575C112.568 54.2042 112.428 54.0171 112.315 53.7963C112.201 53.5755 112.125 53.3393 112.085 53.0848C112.047 52.8333 112.044 52.5818 112.085 52.3334C112.122 52.088 112.198 51.8611 112.312 51.6586C112.422 51.4532 112.562 51.2876 112.731 51.1587C112.9 51.0299 113.083 50.9471 113.281 50.9134C113.479 50.8797 113.677 50.8919 113.875 50.9594C114.073 51.0238 114.256 51.1311 114.425 51.2876C114.594 51.4409 114.736 51.628 114.847 51.8488C114.96 52.0696 115.036 52.3058 115.077 52.5603Z" fill="#2E2D40"/>
<path d="M109.366 64.2332C109.244 64.2332 109.131 64.1443 109.102 64.0124C109.067 63.856 109.16 63.7057 109.308 63.6689L109.748 63.5616C110.114 63.4757 110.417 63.2211 110.583 62.8654C110.749 62.5096 110.755 62.1017 110.598 61.7398L109.684 59.6451C109.62 59.501 109.678 59.3292 109.815 59.2679C109.951 59.2004 110.114 59.2617 110.173 59.4059L111.087 61.5037C111.311 62.0189 111.308 62.6108 111.066 63.1169C110.828 63.6229 110.388 63.994 109.864 64.1197L109.425 64.2271C109.404 64.2332 109.384 64.2332 109.366 64.2332Z" fill="#2E2D40"/>
<path d="M110.976 69.3579C110.944 69.6524 110.836 70.0388 110.661 70.4314C110.315 71.2257 109.698 72.0691 108.95 72.3206C108.435 72.4954 107.751 72.4095 107.11 72.1856C106.263 71.8881 105.477 71.3668 105.154 70.8975C105.012 70.6951 104.968 70.4896 105.047 70.3393C105.405 69.683 107.011 69.7658 107.992 69.5941C108.973 69.4407 110.152 68.6403 110.783 68.8059C110.944 68.8458 111.005 69.0543 110.976 69.3579Z" fill="white"/>
<path d="M101.129 48.5887C101.129 48.5887 96.6845 48.2881 94.3618 51.5268L101.129 48.5887Z" fill="#2E2D40"/>
<path d="M109.963 48.6931C109.963 48.6931 112.862 46.5494 116.687 48.3098L109.963 48.6931Z" fill="#2E2D40"/>
<path d="M112.675 51.171C112.675 51.171 114.558 49.6222 116.872 50.7876C116.872 50.7876 114.823 50.895 113.729 51.6954L112.675 51.171Z" fill="#2E2D40"/>
<path d="M102.127 55.4646C102.165 55.7192 102.168 55.9676 102.127 56.216C102.089 56.4644 102.014 56.6883 101.9 56.8938C101.79 57.0962 101.65 57.2618 101.481 57.3906C101.312 57.5195 101.129 57.6023 100.931 57.636C100.733 57.6728 100.535 57.6575 100.337 57.5931C100.139 57.5287 99.9559 57.4182 99.787 57.2649C99.6182 57.1085 99.4785 56.9214 99.365 56.7006C99.2515 56.4798 99.1758 56.2436 99.1351 55.9921C99.0943 55.7376 99.0943 55.4892 99.1351 55.2407C99.1729 54.9923 99.2486 54.7684 99.3592 54.5629C99.4727 54.3605 99.6124 54.1949 99.7812 54.0661C99.9471 53.9373 100.131 53.8545 100.328 53.8177C100.529 53.784 100.727 53.7993 100.925 53.8637C101.123 53.9281 101.306 54.0385 101.475 54.1919C101.644 54.3483 101.784 54.5353 101.897 54.7562C102.011 54.977 102.086 55.2131 102.127 55.4646Z" fill="#2E2D40"/>
<path d="M100.986 53.8546C100.986 53.8546 98.7278 53.0326 96.8999 54.928C96.8999 54.928 98.8704 54.3269 100.151 54.7102L100.986 53.8546Z" fill="#2E2D40"/>
<path d="M88.6045 55.8664C89.3875 53.7441 87.9351 47.3772 94.3153 44.6108C105.923 39.5872 105.39 31.9015 105.39 31.9015C105.39 31.9015 113.019 29.7854 120.124 40.8355C120.124 40.8355 121.05 11.5157 102.654 16.3676C101.173 16.7602 94.8072 12.7118 84.3288 17.0117C65.3192 24.817 75.1835 51.171 83.1325 56.1241C84.4336 56.9337 88.6045 55.8664 88.6045 55.8664Z" fill="#2E2D40"/>
<path d="M87.1956 56.198C87.1956 56.198 80.8474 55.33 81.511 60.7738C82.1776 66.2145 91.0405 69.2446 91.0405 69.2446L87.1956 56.198Z" fill="#F9ACB2"/>
<path d="M86.0081 59.5989C86.0081 59.5989 82.5444 60.7643 86.9861 64.3863L86.0081 59.5989Z" fill="#2E2D40"/>
<path d="M123.46 85.0023C123.46 85.0023 130.547 82.9014 144.227 82.1255C144.227 82.1255 150.541 100.18 150.672 111.494C150.806 122.808 155.495 126.559 155.265 140.949C155.032 155.339 150.8 163.175 153.029 189.093C154.112 201.668 70.4508 194.942 70.4508 194.942C70.4508 194.942 71.0854 165.745 70.1569 152.263C69.2284 138.784 59.9404 104.244 59.9404 104.244L85.7202 92.2586C85.7202 92.2586 89.5331 97.595 107.204 91.7679C124.869 85.9469 123.46 85.0023 123.46 85.0023Z" fill="#308C9C"/>
<path d="M144.227 82.1254C144.227 82.1254 150.549 81.0888 158.932 91.7433C166.485 101.343 174 117.585 182.473 116.794C190.571 116.042 191.706 117.033 191.706 117.033C191.706 117.033 194.724 184.996 171.692 189.011C155.535 191.826 146.203 145.353 146.203 145.353L144.227 82.1254Z" fill="#308C9C"/>
<path d="M152.008 168.309C151.865 168.309 151.743 168.201 151.725 168.048C151.69 167.778 148.392 140.955 150.835 129.006C150.869 128.847 151.021 128.743 151.172 128.773C151.324 128.81 151.42 128.969 151.39 129.132C148.972 140.976 152.258 167.695 152.293 167.968C152.31 168.134 152.203 168.284 152.048 168.306C152.034 168.309 152.022 168.309 152.008 168.309Z" fill="#2E2D40"/>
<path d="M160.137 158.087C159.98 158.087 159.852 157.952 159.852 157.786C159.852 150.576 164.299 138.137 164.343 138.014C164.395 137.857 164.561 137.781 164.709 137.839C164.855 137.894 164.928 138.069 164.875 138.225C164.832 138.348 160.419 150.683 160.419 157.786C160.419 157.952 160.294 158.087 160.137 158.087Z" fill="#2E2D40"/>
<path d="M115.688 79.0833C115.688 79.0833 123.186 83.9382 124.222 84.9595C125.261 85.9838 125.543 92.3201 125.543 92.3201L87.4778 99.0765L84.3838 93.1604C84.3838 93.1604 89.2592 83.6714 91.0288 83.3401C91.0288 83.3401 98.2793 87.7473 107.547 85.7231C116.814 83.702 115.688 79.0833 115.688 79.0833Z" fill="#308C9C"/>
<path d="M100.468 99.7728C95.8026 99.7728 92.371 98.7944 90.0337 97.7363C85.918 95.8778 84.2182 93.4457 84.1483 93.3415C84.0552 93.2096 84.0843 93.0225 84.2124 92.9244C84.3404 92.8262 84.5151 92.8569 84.6082 92.9918C84.6781 93.09 91.457 102.551 110.315 97.8836C117.816 96.0311 121.117 92.6207 122.569 90.0844C124.135 87.3518 123.94 85.024 123.934 84.9964C123.92 84.8308 124.033 84.6866 124.19 84.6651C124.345 84.6498 124.481 84.7694 124.502 84.935C124.513 85.0332 125.276 94.8044 110.44 98.4663C106.636 99.4078 103.321 99.7728 100.468 99.7728Z" fill="#2E2D40"/>
<path d="M178.305 139.956C174.935 138.447 172.245 135.625 170.656 132.144C168.921 128.335 166.724 123.026 166.028 119.22C164.826 112.629 162.043 101.276 159.863 98.1013C159.863 98.1013 163.324 94.6909 166.709 100.405C170.094 106.121 176.265 108.82 179.801 106.995C183.338 105.167 188.83 90.799 190.938 87.1432C193.045 83.4905 195.076 80.7916 197.632 81.6688C200.191 82.5398 191.389 101.595 191.389 101.595C191.389 101.595 202.222 119.143 202.146 122.876C202.074 126.608 190.032 137.008 190.032 137.008C190.032 137.008 186.522 141.06 180.317 140.593C179.801 140.557 179.088 140.305 178.305 139.956Z" fill="#F9ACB2"/>
<path d="M197.501 60.9299L192.131 156.394C191.945 158.452 190.21 159.973 188.088 159.927L142.912 158.988C140.085 158.933 137.745 156.605 137.929 154.008L144.431 59.5713C144.594 57.2895 146.463 55.7928 148.838 56.0413L192.879 55.2009C195.551 55.4984 197.74 58.2341 197.501 60.9299Z" fill="#2E2D40"/>
<path d="M189.421 157.069L189.285 157.063L143.776 156.593L143.782 156.29L189.154 156.759L195.019 59.2832L195.301 59.2985L189.421 157.069Z" fill="white"/>
<path d="M161.324 150.932C161.423 152.398 162.465 153.585 163.647 153.585C164.826 153.591 165.702 152.413 165.603 150.956C165.507 149.503 164.474 148.303 163.292 148.294C162.107 148.288 161.226 149.466 161.324 150.932Z" fill="white"/>
<path d="M192.015 59.4365L187.847 145.847L140.979 145.148L146.998 60.1235L192.015 59.4365Z" fill="white"/>
<path d="M174.271 73.6362C174.638 74.0349 174.958 74.4704 175.237 74.9427C175.517 75.415 175.747 75.9118 175.927 76.4394C176.111 76.9638 176.242 77.5066 176.32 78.0679C176.399 78.6291 176.422 79.1965 176.393 79.77C176.367 80.3435 176.285 80.914 176.151 81.4783C176.017 82.0426 175.831 82.5916 175.598 83.1252C175.363 83.6589 175.083 84.168 174.757 84.6495C174.431 85.131 174.064 85.5788 173.66 85.9928C173.255 86.4038 172.819 86.7749 172.35 87.103C171.881 87.4281 171.392 87.7072 170.877 87.9372C170.365 88.1642 169.838 88.339 169.297 88.4617C168.758 88.5843 168.217 88.6488 167.673 88.658C167.128 88.6702 166.593 88.6242 166.063 88.5199C165.536 88.4187 165.027 88.2623 164.535 88.0538C164.043 87.8422 163.577 87.5815 163.141 87.2717C162.704 86.9619 162.302 86.6062 161.939 86.2075C161.575 85.8088 161.252 85.3733 160.972 84.904C160.696 84.4317 160.463 83.9318 160.282 83.4074C160.099 82.8799 159.971 82.337 159.892 81.7758C159.814 81.2145 159.788 80.6472 159.817 80.0736C159.846 79.5001 159.927 78.9328 160.061 78.3684C160.195 77.8041 160.378 77.2552 160.614 76.7215C160.847 76.1848 161.127 75.6788 161.453 75.1942C161.779 74.7127 162.145 74.2649 162.55 73.8539C162.954 73.4399 163.391 73.0688 163.86 72.7437C164.328 72.4156 164.82 72.1395 165.332 71.9095C165.848 71.6795 166.374 71.5047 166.913 71.3851C167.451 71.2624 167.993 71.1949 168.537 71.1857C169.081 71.1765 169.617 71.2225 170.147 71.3237C170.673 71.4249 171.186 71.5814 171.678 71.793C172.17 72.0046 172.632 72.2622 173.069 72.575C173.506 72.8848 173.907 73.2375 174.271 73.6362Z" fill="#E3E3E3"/>
<path d="M170.132 75.7646C170.356 76.01 170.525 76.2952 170.636 76.6172C170.749 76.9423 170.796 77.2797 170.778 77.6324C170.761 77.985 170.679 78.3255 170.534 78.6536C170.391 78.9818 170.193 79.2732 169.946 79.5277C169.695 79.7823 169.413 79.9785 169.096 80.1196C168.781 80.2607 168.455 80.3343 168.121 80.3404C167.786 80.3466 167.466 80.2852 167.163 80.1564C166.863 80.0245 166.598 79.8375 166.374 79.5921C166.15 79.3498 165.981 79.0646 165.871 78.7395C165.757 78.4175 165.711 78.0771 165.728 77.7244C165.746 77.3717 165.827 77.0312 165.97 76.7031C166.115 76.3749 166.31 76.0836 166.561 75.829C166.811 75.5775 167.093 75.3782 167.408 75.2371C167.725 75.096 168.051 75.0224 168.386 75.0163C168.72 75.0101 169.038 75.0745 169.34 75.2034C169.643 75.3322 169.908 75.5192 170.132 75.7646Z" fill="#2E2D40"/>
<path d="M171.404 84.8427H164.157L164.343 82.0641C164.381 81.4599 164.876 80.9753 165.449 80.9753H170.633C171.203 80.9753 171.628 81.4599 171.591 82.0641L171.404 84.8427Z" fill="#2E2D40"/>
<path d="M164.782 97.6041H152.077C151.347 97.6041 150.799 96.9815 150.849 96.2117C150.898 95.4419 151.533 94.8193 152.26 94.8193H164.968C165.696 94.8193 166.243 95.4419 166.197 96.2117C166.141 96.9815 165.51 97.6041 164.782 97.6041Z" fill="#E3E3E3"/>
<path d="M181.097 106.415H151.466C150.75 106.415 150.211 105.808 150.261 105.048L150.267 104.992C150.316 104.238 150.936 103.625 151.649 103.625H181.283C181.999 103.625 182.534 104.232 182.488 104.992L182.482 105.048C182.427 105.802 181.813 106.415 181.097 106.415Z" fill="#E3E3E3"/>
<path d="M180.546 114.736H150.913C150.197 114.736 149.661 114.126 149.708 113.368L149.714 113.31C149.763 112.558 150.383 111.945 151.099 111.945H180.73C181.446 111.945 181.984 112.552 181.935 113.31L181.929 113.368C181.879 114.126 181.259 114.736 180.546 114.736Z" fill="#E3E3E3"/>
<path d="M181.798 97.6041H169.09C168.363 97.6041 167.815 96.9815 167.865 96.2117C167.911 95.4419 168.549 94.8193 169.277 94.8193H181.985C182.712 94.8193 183.259 95.4419 183.21 96.2117C183.163 96.9815 182.526 97.6041 181.798 97.6041Z" fill="#E3E3E3"/>
<path d="M177.499 133.239H152.208C150.174 133.239 148.637 131.5 148.78 129.353C148.922 127.206 150.686 125.467 152.721 125.467H178.011C180.046 125.467 181.583 127.206 181.44 129.353C181.298 131.5 179.534 133.239 177.499 133.239Z" fill="#308C9C"/>
<path d="M156.917 131.227C156.184 131.227 155.642 130.844 155.666 130.117H156.545C156.551 130.396 156.708 130.525 156.944 130.525C157.188 130.525 157.348 130.396 157.363 130.19C157.406 129.522 155.686 129.884 155.779 128.611C155.823 127.927 156.376 127.553 157.089 127.553C157.831 127.553 158.303 127.939 158.291 128.626H157.398C157.398 128.399 157.249 128.258 157.031 128.252C156.83 128.249 156.673 128.356 156.658 128.577C156.62 129.203 158.317 128.921 158.239 130.123C158.189 130.727 157.709 131.227 156.917 131.227Z" fill="white"/>
<path d="M158.903 127.602H159.729L159.491 131.19H158.664L158.903 127.602Z" fill="white"/>
<path d="M163.429 128.74H162.512C162.404 128.5 162.18 128.372 161.869 128.372C161.333 128.372 160.952 128.77 160.914 129.393C160.87 130.058 161.202 130.448 161.799 130.448C162.209 130.448 162.512 130.215 162.663 129.813H161.613L161.656 129.166H163.458L163.403 129.979C163.187 130.595 162.582 131.212 161.685 131.212C160.67 131.212 160.003 130.463 160.073 129.39C160.146 128.316 160.905 127.562 161.921 127.562C162.739 127.562 163.301 128.001 163.429 128.74Z" fill="white"/>
<path d="M167.061 127.602L166.822 131.19H165.996L164.759 128.982L164.61 131.19H163.784L164.025 127.602H164.852L166.089 129.822L166.234 127.602H167.061Z" fill="white"/>
<path d="M168.671 127.602H169.497L169.355 129.748C169.326 130.172 169.512 130.42 169.902 130.42C170.295 130.42 170.519 130.178 170.548 129.748L170.691 127.602H171.517L171.375 129.745C171.311 130.736 170.618 131.227 169.835 131.227C169.046 131.227 168.461 130.736 168.528 129.745L168.671 127.602Z" fill="white"/>
<path d="M173.287 129.899H172.775L172.69 131.184H171.864L172.102 127.599H173.444C174.274 127.599 174.661 128.093 174.617 128.755C174.574 129.347 174.152 129.899 173.287 129.899ZM173.273 129.209C173.601 129.209 173.753 129.034 173.77 128.758C173.791 128.479 173.66 128.31 173.331 128.31H172.883L172.821 129.209H173.273Z" fill="white"/>
<path d="M202.347 122.814C202.347 122.814 204.548 117.693 200.708 114.954C200.708 114.954 206.07 109.651 205.45 106.618C204.827 103.582 202.461 103.103 202.461 103.103C202.461 103.103 204.099 97.8005 200.033 97.1472C200.033 97.1472 198.229 93.8135 195.69 93.2768C193.152 92.737 189.051 98.4936 189.5 99.9841C189.951 101.478 192.244 100.647 193.769 100.027C195.516 99.3186 195.964 99.3248 195.964 99.3248C195.964 99.3248 189.031 104.115 189.089 105.661C189.147 107.21 189.881 108.461 194.337 108.222C194.337 108.222 189.089 112.273 189.764 114.117C190.44 115.96 194.616 115.546 194.616 115.546C194.616 115.546 185.646 120.609 187.168 123.17C188.693 125.731 195.292 121.026 196.421 121.085C197.55 121.146 199.751 123.464 199.751 123.464L202.138 122.869" fill="#F9ACB2"/>
<path d="M194.616 115.8C194.523 115.8 194.439 115.742 194.395 115.65C194.346 115.536 194.386 115.395 194.482 115.328L200.406 111.341C200.519 111.267 200.665 111.298 200.737 111.418C200.813 111.537 200.778 111.691 200.665 111.767L195.941 114.948C197.149 114.693 198.974 114.448 200.735 114.699C200.866 114.721 200.959 114.843 200.938 114.984C200.921 115.122 200.799 115.221 200.671 115.199C197.824 114.791 194.71 115.779 194.68 115.788C194.666 115.8 194.64 115.8 194.616 115.8Z" fill="#2E2D40"/>
<path d="M194.332 108.477C194.253 108.477 194.177 108.434 194.131 108.357C194.064 108.237 194.093 108.084 194.206 108.004C194.495 107.814 201.291 103.284 202.377 102.861C202.499 102.812 202.641 102.879 202.685 103.008C202.729 103.14 202.665 103.287 202.543 103.333C201.716 103.655 196.896 106.808 194.465 108.434C194.425 108.464 194.375 108.477 194.332 108.477Z" fill="#2E2D40"/>
<path d="M94.0532 136.619L100.014 131.288L110.353 146.261L101.129 154.339C101.129 154.339 93.084 143.866 93.084 143.666C93.084 143.464 94.0532 136.619 94.0532 136.619Z" fill="#F9ACB2"/>
<path d="M132.36 133.705C132.573 133.683 140.254 134.674 140.239 138.038C140.231 141.403 130.375 140.455 128.169 140.053C125.966 139.649 132.36 133.705 132.36 133.705Z" fill="#F9ACB2"/>
<path d="M99.8281 131.196C99.8281 131.196 112.443 124.848 117.062 122.75C121.684 120.655 129.325 117.073 133.301 115.166C137.277 113.255 144.946 109.173 146.14 110.565C148.131 112.884 145.84 114.819 142.114 116.914C138.389 119.008 130.023 124.79 130.259 125.553C130.495 126.314 136.142 129.663 136.372 132.31C136.543 134.257 135.478 136.481 132.669 137.017C132.669 137.017 130.934 141.305 127.695 141.612C127.695 141.612 127.642 144.915 124.604 146.013C121.568 147.114 117.767 144.507 117.767 144.507C117.767 144.507 115.077 147.506 110.33 147.629C105.574 147.752 102.631 146.365 102.631 146.365L99.8281 131.196Z" fill="#F9ACB2"/>
<path d="M127.695 141.891C127.558 141.891 127.442 141.78 127.433 141.63C127.418 141.476 127.526 141.342 127.672 141.326C130.707 141.038 132.407 136.94 132.422 136.898C132.454 136.812 132.53 136.747 132.617 136.732C135.248 136.226 136.261 134.159 136.098 132.331C136.083 132.175 136.191 132.036 136.337 132.027C136.479 132.015 136.616 132.125 136.628 132.279C136.808 134.327 135.708 136.646 132.847 137.259C132.509 138.023 130.769 141.599 127.709 141.891C127.709 141.891 127.701 141.891 127.695 141.891Z" fill="#2E2D40"/>
<path d="M118.316 144.105C118.267 144.105 118.212 144.09 118.168 144.056C118.046 143.97 118.011 143.798 118.095 143.67L119.024 142.188C119.108 142.059 119.268 142.023 119.39 142.112C119.513 142.2 119.548 142.369 119.463 142.498L118.535 143.979C118.485 144.056 118.404 144.105 118.316 144.105Z" fill="#2E2D40"/>
<path d="M132.666 137.29C132.596 137.29 132.529 137.266 132.474 137.208C132.416 137.146 126.702 131.052 125.838 130.276C125.724 130.178 125.71 129.997 125.809 129.881C125.905 129.761 126.074 129.746 126.184 129.847C127.066 130.638 132.62 136.564 132.855 136.812C132.957 136.919 132.957 137.1 132.855 137.208C132.803 137.266 132.733 137.29 132.666 137.29Z" fill="#2E2D40"/>
<path d="M127.694 141.891C127.622 141.891 127.549 141.86 127.499 141.795L122.508 135.959C122.409 135.846 122.417 135.665 122.525 135.56C122.633 135.459 122.804 135.468 122.903 135.582L127.895 141.418C127.994 141.535 127.985 141.713 127.878 141.817C127.822 141.863 127.758 141.891 127.694 141.891Z" fill="#2E2D40"/>
<path d="M121.783 145.786C121.696 145.786 121.605 145.74 121.559 145.651C121.015 144.734 119.353 142.339 118.209 142.299C118.06 142.293 117.944 142.164 117.953 142.004C117.958 141.848 118.081 141.728 118.232 141.734C119.862 141.796 121.798 144.991 122.013 145.359C122.092 145.491 122.051 145.663 121.929 145.746C121.882 145.777 121.833 145.786 121.783 145.786Z" fill="#2E2D40"/>
<path d="M59.9347 104.244C59.9347 104.244 49.9685 109.387 50.1053 122.235C50.2916 139.262 48.6384 143.584 47.5236 152.714C46.4903 161.157 41.0328 169.757 42.7443 181.239C44.2782 191.556 50.7457 207.51 65.3834 197.767C79.7999 188.164 82.6757 184.098 90.0426 177.151C100.509 167.288 107.413 149.435 107.413 149.435C107.413 149.435 96.7807 145.651 96.6352 133.72C96.6352 133.72 88.1681 141.483 83.8079 144.74C80.6266 147.117 78.6357 148 78.6357 148C78.6357 148 79.4536 132.196 77.2822 124.087C75.105 115.981 68.4396 111.697 67.5693 106.649C66.7049 101.594 59.9347 104.244 59.9347 104.244Z" fill="#308C9C"/>
<path d="M78.6413 148.285C78.5889 148.285 78.5336 148.27 78.4899 148.233C78.4172 148.175 78.3735 148.083 78.3764 147.991C78.3881 147.831 79.171 132.141 77.0317 124.167C76.9939 124.017 77.0754 123.86 77.218 123.82C77.3606 123.777 77.5061 123.866 77.5469 124.017C79.497 131.294 79.043 144.872 78.9295 147.555C79.6542 147.184 81.3453 146.246 83.6593 144.516C87.9642 141.302 96.3847 133.592 96.4691 133.512C96.5797 133.411 96.7485 133.426 96.8446 133.539C96.9436 133.656 96.929 133.834 96.8213 133.935C96.7369 134.015 88.296 141.743 83.9736 144.976C80.8039 147.344 78.8363 148.227 78.7548 148.264C78.7112 148.273 78.6762 148.285 78.6413 148.285Z" fill="#2E2D40"/>
<path d="M65.3889 198.049C65.2987 198.049 65.2113 198.003 65.1619 197.92C65.0833 197.791 65.124 197.617 65.2463 197.534C76.6182 189.961 80.8125 185.821 85.6704 181.028C86.9744 179.743 88.3191 178.411 89.8705 176.949C100.166 167.242 107.102 149.512 107.169 149.337C107.224 149.193 107.381 149.125 107.518 149.184C107.655 149.239 107.716 149.405 107.663 149.549C107.594 149.73 100.611 167.573 90.2227 177.369C88.6771 178.822 87.3324 180.157 86.0313 181.435C81.156 186.251 76.9384 190.409 65.5286 198.009C65.4849 198.034 65.4355 198.049 65.3889 198.049Z" fill="#2E2D40"/>
<path d="M54.2239 163.893C54.154 163.893 54.09 163.865 54.0376 163.816C53.9299 163.705 53.9299 163.531 54.0317 163.417C58.3366 158.725 77.6925 148.202 78.5133 147.758C78.6472 147.687 78.8073 147.742 78.8713 147.88C78.9412 148.021 78.8859 148.19 78.7549 148.257C78.5541 148.368 58.6539 159.185 54.4072 163.81C54.3636 163.862 54.2908 163.893 54.2239 163.893Z" fill="#2E2D40"/>
<path d="M166.543 0.800049C155.276 0.800049 146.119 10.4486 146.104 22.3451C146.099 24.9398 146.535 27.4332 147.333 29.7395L141.983 40.5933L151.67 37.1216C152.231 37.7503 152.819 38.3606 153.451 38.9126C154.158 39.5414 154.909 40.1149 155.701 40.6301C156.097 40.8939 156.507 41.1423 156.923 41.3631C157.046 41.4398 157.162 41.5073 157.29 41.5686C157.31 41.5809 157.325 41.5901 157.342 41.5962C157.377 41.6207 157.421 41.6361 157.456 41.6575C157.52 41.6943 157.578 41.725 157.645 41.7557C157.671 41.7649 157.695 41.7802 157.715 41.7863C160.218 43.0499 163.001 43.7952 165.946 43.878C165.952 43.878 165.952 43.878 165.952 43.878C166.127 43.881 166.304 43.881 166.488 43.881C166.607 43.881 166.718 43.881 166.837 43.878C166.919 43.881 167.009 43.878 167.09 43.878C167.14 43.8718 167.178 43.8718 167.221 43.8718C167.419 43.8657 167.614 43.8504 167.8 43.8412C168.455 43.7982 169.104 43.7216 169.736 43.6081C169.908 43.5836 170.08 43.5529 170.245 43.5191C170.304 43.5099 170.368 43.4946 170.426 43.4854C170.475 43.4731 170.519 43.4639 170.569 43.4547C170.571 43.4486 170.589 43.4486 170.592 43.4486C170.627 43.4425 170.665 43.4271 170.7 43.421C170.749 43.4118 170.787 43.4026 170.836 43.3903C171.878 43.1542 172.891 42.8383 173.869 42.4304C174.524 42.1697 175.17 41.863 175.79 41.5287C176.11 41.3539 176.422 41.173 176.73 40.9859C176.754 40.9767 176.78 40.9552 176.803 40.946C177.377 40.5902 177.938 40.2007 178.471 39.7836C178.535 39.7438 178.602 39.6916 178.663 39.6395C179.967 38.6213 181.158 37.4405 182.194 36.1248C182.453 35.7997 182.703 35.4685 182.936 35.1281C182.971 35.0882 183 35.0391 183.029 34.9993C183.087 34.9103 183.146 34.8244 183.207 34.7355C185.547 31.2269 186.932 26.9578 186.938 22.3451C186.947 10.4486 177.816 0.800049 166.543 0.800049Z" fill="#308C9C"/>
<path d="M160.399 29.1475C160.21 29.1475 160.023 29.1107 159.843 29.0433C159.377 28.8685 159.008 28.4851 158.836 27.9944L156.356 20.9466C156.033 20.0327 156.478 19.0206 157.34 18.6802C158.198 18.3397 159.162 18.8028 159.485 19.7168L161.272 24.7956L175.79 15.7789C176.585 15.282 177.61 15.5672 178.081 16.4045C178.55 17.2448 178.282 18.3244 177.487 18.8182L161.246 28.9053C160.987 29.0647 160.699 29.1475 160.399 29.1475Z" fill="#FDBF5B"/>
</svg>
