<svg width="24" height="24" viewBox="0 0 24 24" fill="none" xmlns="http://www.w3.org/2000/svg">
<path d="M11.285 18.217C11.285 17.2605 11.2954 14.7037 11.2718 14.3887C11.2924 10.5841 8.52582 7.90036 6.77803 8.10958C5.56861 8.21452 4.55504 8.7076 4.01081 10.1261C3.5064 11.4481 3.95736 13.2065 5.6344 13.6191C7.42764 14.0622 8.47475 14.4309 9.23256 14.951C10.1611 15.5878 10.9191 16.8044 10.9392 18.2186" fill="#0060AF"/>
<path d="M12.0009 24C8.83895 24 5.5894 23.2213 2.34417 21.6812L2.26454 21.6421L2.22645 21.5609C0.770139 18.4873 0 15.1254 0 11.8362C0 8.55202 0.738545 5.33403 2.19594 2.26447L2.23598 2.1829L2.31712 2.14222C5.31912 0.720277 8.54855 0 11.9186 0C15.058 0 18.4108 0.801846 21.613 2.32289L21.6952 2.35945L21.7331 2.44254C23.2173 5.57289 24 8.9339 24 12.1686C24 15.3907 23.2485 18.6115 21.7625 21.7399L21.7233 21.8221L21.6407 21.8602C18.6846 23.2594 15.3508 24 12.0009 24ZM2.64452 21.2598C5.79713 22.7425 8.9413 23.4913 12.0009 23.4913C15.245 23.4913 18.4714 22.7823 21.3434 21.4383C22.77 18.4068 23.4932 15.2868 23.4932 12.1686C23.4932 9.03775 22.7384 5.78104 21.3107 2.74285C18.2031 1.28217 14.9576 0.507591 11.9186 0.507591C8.65588 0.507591 5.52859 1.19952 2.61726 2.56457C1.2198 5.53979 0.508521 8.65738 0.508521 11.8362C0.508521 15.0211 1.24771 18.2791 2.64452 21.2598Z" fill="#0060AF"/>
<path d="M10.5357 18.2184C10.5415 16.9922 9.85706 15.908 8.96249 15.3254C8.16899 14.8104 7.10369 14.472 5.38511 14.0363C4.85387 13.9004 4.29817 13.5986 4.12614 13.2139C3.67107 13.6723 3.58841 14.7031 3.66847 15.3055C3.76152 16.0026 4.57624 17.1515 5.80296 17.1965C6.55211 17.2266 7.49925 17.0353 7.95346 16.9388C8.73701 16.7696 9.97672 17.2603 10.1741 18.2169" fill="#0060AF"/>
<path d="M11.9186 2.17969C9.83869 2.17969 8.04199 3.55122 8.04848 5.92452C8.05497 7.92027 9.66017 8.98868 10.233 9.7518C11.0985 10.9018 11.567 12.2629 11.6157 14.3456C11.6536 16.0032 11.6516 17.64 11.6601 18.2201H12.1192C12.1112 17.6132 12.0905 15.8756 12.1143 14.2944C12.1454 12.211 12.6308 10.9018 13.4968 9.7518C14.0745 8.98868 15.6784 7.92027 15.6819 5.92452C15.6897 3.55122 13.8941 2.17969 11.8158 2.17969" fill="#0060AF"/>
<path d="M12.4466 18.217C12.4466 17.2605 12.4358 14.7037 12.459 14.3887C12.4386 10.5841 15.2034 7.90036 16.9528 8.10958C18.1622 8.21452 19.1747 8.7076 19.7204 10.1261C20.2244 11.4481 19.7708 13.2065 18.0957 13.6191C16.3016 14.0622 15.2558 14.4309 14.4961 14.951C13.5686 15.5878 12.8636 16.8044 12.842 18.2186" fill="#0060AF"/>
<path d="M13.1956 18.2184C13.1891 16.9922 13.8733 15.908 14.7653 15.3254C15.5621 14.8104 16.6287 14.472 18.3457 14.0363C18.878 13.9004 19.4331 13.5986 19.6021 13.2139C20.0593 13.6723 20.1418 14.7031 20.0617 15.3055C19.9667 16.0026 19.1542 17.1515 17.9296 17.1965C17.1807 17.2266 16.2285 17.0353 15.7763 16.9388C14.9958 16.7696 13.7526 17.2603 13.5544 18.2169" fill="#0060AF"/>
<path d="M13.8372 22.1769L13.571 20.2351L14.2135 20.1377C14.37 20.1163 14.5604 20.1435 14.6366 20.2416C14.7207 20.3439 14.7465 20.4285 14.7627 20.5626C14.7869 20.7286 14.7389 20.9205 14.5519 21.0161V21.022C14.7608 21.022 14.8869 21.1719 14.9235 21.4251C14.9289 21.4785 14.9447 21.6077 14.9289 21.7154C14.8865 21.9718 14.7335 22.0542 14.4753 22.0904L13.8372 22.1769ZM14.2507 21.8292C14.3269 21.8184 14.4042 21.8143 14.4645 21.7758C14.5569 21.7154 14.5485 21.5863 14.5357 21.4904C14.5035 21.2797 14.4485 21.1996 14.225 21.2327L14.0845 21.2544L14.1735 21.8401L14.2507 21.8292ZM14.1161 20.932C14.2012 20.9182 14.3165 20.908 14.3646 20.8273C14.3897 20.7734 14.4219 20.7305 14.4007 20.6107C14.3745 20.4685 14.3273 20.3805 14.1469 20.4146L13.9787 20.4417L14.0449 20.9393" fill="#0060AF"/>
<path d="M16.6202 21.0088C16.6252 21.0449 16.631 21.0851 16.6332 21.1213C16.6851 21.4755 16.6202 21.7686 16.2221 21.8493C15.6335 21.9627 15.5207 21.597 15.4171 21.0851L15.3619 20.8082C15.2808 20.3183 15.2459 19.9475 15.8198 19.8332C16.1433 19.7742 16.3571 19.9029 16.446 20.2249C16.4599 20.2729 16.4772 20.3205 16.4837 20.3687L16.1316 20.4415C16.0909 20.3205 16.037 20.1044 15.8786 20.1225C15.5943 20.1567 15.6882 20.5105 15.7174 20.6582L15.8232 21.1899C15.8551 21.3506 15.9182 21.6074 16.1643 21.5579C16.364 21.5179 16.277 21.2067 16.2593 21.0793" fill="#0060AF"/>
<path d="M17.1852 21.5963L17.0634 19.5867L17.5364 19.4424L18.5281 21.1902L18.1557 21.3016L17.9207 20.8574L17.5072 20.9816L17.5606 21.4866L17.1852 21.5963ZM17.4726 20.6571L17.7714 20.5705L17.3745 19.7574" fill="#0060AF"/>
<path d="M5.50179 20.077C5.6498 19.6032 5.78245 19.2544 6.34723 19.4093C6.64953 19.4937 6.83693 19.627 6.82806 19.9781C6.8266 20.0563 6.80079 20.1359 6.78391 20.2131L6.43228 20.116C6.47837 19.9221 6.50758 19.7683 6.26868 19.6947C5.99257 19.619 5.92527 19.9537 5.88719 20.0982L5.74415 20.6251C5.69871 20.7815 5.64418 21.04 5.88719 21.1067C6.088 21.1608 6.20983 20.9637 6.28253 20.6759L6.0365 20.6108L6.12154 20.3059L6.69995 20.492L6.42535 21.5074L6.15919 21.4351L6.21913 21.2205H6.21155C6.08908 21.396 5.93955 21.4144 5.80863 21.3893C5.23022 21.2328 5.29059 20.8549 5.42865 20.3499" fill="#0060AF"/>
<path d="M7.65468 20.9347L7.48048 21.7608L7.08838 21.676L7.50623 19.7471L8.17466 19.8981C8.5659 19.9825 8.68405 20.1567 8.62866 20.5152C8.59706 20.7209 8.49557 20.9427 8.24781 20.9248L8.24521 20.9214C8.45468 20.9947 8.47242 21.1003 8.43585 21.2829C8.42006 21.3606 8.31121 21.8321 8.3863 21.9082L8.38889 21.966L7.98316 21.8602C7.96628 21.7295 8.02362 21.4945 8.04634 21.3645C8.06928 21.2494 8.10585 21.0871 7.989 21.0261C7.89747 20.9774 7.86349 20.9798 7.76006 20.956L7.65468 20.9347ZM7.72154 20.6359L7.98554 20.7071C8.14588 20.7302 8.23504 20.6472 8.26663 20.4535C8.2952 20.2759 8.25819 20.2064 8.11429 20.172L7.83125 20.1147" fill="#0060AF"/>
<path d="M10.1696 20.178L10.5573 20.223L10.3903 21.579C10.3091 22.0089 10.1429 22.1969 9.66991 22.138C9.18866 22.0772 9.0744 21.8581 9.10361 21.4247L9.27175 20.0698L9.66256 20.1146L9.49485 21.4392C9.47711 21.5831 9.44378 21.7962 9.69978 21.8219C9.92677 21.8393 9.97827 21.6889 10.0038 21.5019" fill="#0060AF"/>
<path d="M10.9849 22.2125L11.1015 20.2734L11.8465 20.3057C12.1986 20.323 12.2908 20.6105 12.2798 20.8849C12.2696 21.0517 12.2174 21.238 12.072 21.339C11.9528 21.4249 11.7996 21.4453 11.6574 21.4384L11.4146 21.4249L11.3661 22.2375L10.9849 22.2125ZM11.4257 21.1292L11.623 21.1402C11.7833 21.146 11.8896 21.0826 11.9034 20.8472C11.9112 20.6211 11.8258 20.5828 11.618 20.5738L11.4616 20.5684" fill="#0060AF"/>
</svg>
