<svg width="24" height="24" viewBox="0 0 24 24" fill="none" xmlns="http://www.w3.org/2000/svg">
<path d="M23.9998 24H0.000244141V0H23.9998V24Z" fill="white"/>
<path d="M9.65103 16.1989L12.2093 14.1339C11.7803 13.5954 11.373 13.0522 10.9893 12.4914C8.03027 8.21008 6.27709 3.85464 7.54298 0H0V4.16007L9.65103 16.1989Z" fill="#F15A22"/>
<path d="M13.6851 9.97792C13.8452 8.61908 14.2571 6.05621 16.7495 4.15242C18.9076 2.50935 21.6083 2.19333 24 3.20907V0H10.6843C9.80563 3.90465 12.1138 8.19537 13.6851 9.97792Z" fill="#F15A22"/>
<path d="M16.9152 6.06229L16.9057 6.0689C14.3998 8.1051 15.016 11.3006 17.3489 14.166C19.1456 16.3776 21.5497 17.93 23.9997 16.753V7.31829C21.7986 5.06376 19.1568 4.23855 16.9152 6.06229Z" fill="#F15A22"/>
<path d="M0.00012207 9.08154V23.9975H0.00365315L7.26474 18.1244L0.00012207 9.08154Z" fill="#F15A22"/>
<path d="M13.2061 15.317C12.4928 15.9031 11.6118 16.6205 10.6343 17.4191L11.5777 18.5937C12.9413 20.2992 14.9369 23.254 17.4081 22.4542L17.4999 22.5666L15.7438 23.9972H24V18.3229C19.7521 20.631 16.0998 18.5301 13.2061 15.317Z" fill="#F15A22"/>
<path d="M9.22148 20.5625L8.24396 19.3467C6.24007 20.955 4.13672 22.6411 2.42944 23.9976H11.6673C11.0676 22.7246 9.97772 21.5053 9.22148 20.5625Z" fill="#F15A22"/>
</svg>
