<svg width="24" height="24" viewBox="0 0 24 24" fill="none" xmlns="http://www.w3.org/2000/svg">
<g clip-path="url(#clip0_413_91)">
<path d="M11.4892 11.5746C12.2094 11.5843 12.9263 11.6457 13.647 11.622C17.2925 11.5025 20.2927 10.3218 23.2318 8.0146C22.4671 9.74337 21.6678 11.3158 20.4576 12.7417C21.2117 13.5613 23.2933 17.191 23.6928 18.2896C23.882 18.8097 23.9708 19.315 23.9688 19.8743C23.9653 20.8521 23.602 21.7552 22.9576 22.4397C22.2941 23.1315 21.4033 23.5116 20.4803 23.4967C19.4554 23.4833 18.3358 22.9949 17.6187 22.2009C16.7474 21.2361 16.2151 19.9771 15.332 19.0009C15.1115 18.8901 14.8931 18.6667 14.6877 18.5156C14.0183 18.0234 13.3403 17.7551 12.5415 17.6431C11.9897 17.6564 11.4655 17.695 10.9262 17.8282C10.6879 17.887 10.4046 18.0233 10.1672 18.0452C8.32415 19.039 7.70538 20.3309 6.5485 22.0571C6.07651 22.6789 5.47851 23.1565 4.7549 23.3725C3.81149 23.6541 2.67447 23.4519 1.8275 22.9368C1.03116 22.4526 0.363716 21.5806 0.121575 20.6256C-0.106626 19.7257 -0.0157321 18.7551 0.412548 17.9451C0.768437 17.2648 1.16862 16.6096 1.55533 15.9493C2.0947 14.8787 3.99105 11.1641 4.79804 10.5743C5.08487 10.3647 5.40149 10.298 5.74371 10.3198C6.69022 10.3802 7.71019 10.8244 8.64398 11.0477C9.58218 11.2721 10.5438 11.3852 11.4892 11.5746Z" fill="#1B545D"/>
<path d="M20.4576 12.7417C21.2117 13.5613 23.2933 17.191 23.6928 18.2896C23.882 18.8098 23.9708 19.315 23.9688 19.8743C23.9653 20.8521 23.602 21.7552 22.9576 22.4398C22.2941 23.1315 21.4033 23.5116 20.4803 23.4967C19.4554 23.4833 18.3358 22.9949 17.6187 22.2009C16.7474 21.2361 16.2151 19.9771 15.332 19.0009L15.4039 18.9103L15.2138 18.725C15.2763 18.3342 15.8602 16.8667 16.0371 16.4463C16.3422 16.2641 16.616 16.1044 16.8484 15.8156C18.129 14.8953 19.3468 13.8924 20.4576 12.7417Z" fill="url(#paint0_linear_413_91)"/>
<path d="M1.55533 15.9493C2.09469 14.8787 3.99104 11.1641 4.79803 10.5743C5.08487 10.3647 5.40148 10.298 5.74371 10.3198C6.69022 10.3802 7.71018 10.8244 8.64398 11.0477C9.58218 11.2721 10.5438 11.3852 11.4892 11.5746C10.0493 13.6241 6.036 15.2156 3.67767 15.5662C2.98584 15.6691 2.26508 15.7159 1.59537 15.9351C1.58192 15.9395 1.56862 15.9444 1.55533 15.9493Z" fill="#ECCB45"/>
<path d="M0.412548 17.9451C1.11189 18.0045 1.84817 17.9292 2.53667 18.0184C3.05361 18.1474 3.5802 18.1254 4.09867 18.2348C4.4953 19.3916 6.4327 21.4544 6.5485 22.0571C6.07651 22.6789 5.47851 23.1565 4.7549 23.3725C3.81149 23.6541 2.67447 23.4519 1.8275 22.9368C1.03116 22.4526 0.363716 21.5806 0.121575 20.6256C-0.106626 19.7257 -0.0157321 18.7551 0.412548 17.9451Z" fill="url(#paint1_linear_413_91)"/>
<path d="M2.53668 18.0184C3.40752 18.0132 9.89997 17.8265 10.1672 18.0452C8.32416 19.039 7.70539 20.3309 6.54851 22.0571C6.43271 21.4544 4.49531 19.3917 4.09868 18.2349C3.58021 18.1254 3.05362 18.1474 2.53668 18.0184Z" fill="url(#paint2_linear_413_91)"/>
<path d="M12.5415 17.6431L12.5009 17.5569C13.1375 17.5837 16.1201 16.1865 16.8484 15.8156C16.616 16.1044 16.3422 16.2641 16.037 16.4463C15.8602 16.8667 15.2763 18.3342 15.2138 18.725L15.4039 18.9103L15.332 19.0009C15.1115 18.8901 14.8931 18.6667 14.6877 18.5156C14.0183 18.0234 13.3403 17.7551 12.5415 17.6431Z" fill="#4A98A7"/>
<path d="M11.4106 0.548025C13.6965 0.187139 15.8187 1.89939 16.1421 4.36558C16.4654 6.83178 14.8666 9.1111 12.5775 9.44742C10.3044 9.78139 8.20818 8.07247 7.88707 5.62358C7.56598 3.1747 9.14069 0.906368 11.4106 0.548025Z" fill="#ECCB45"/>
<path d="M21.1506 0.533325C22.6581 0.462185 23.9332 1.72306 23.9975 3.34835C24.0617 4.97364 22.8907 6.34684 21.383 6.41421C19.8778 6.48146 18.6066 5.22154 18.5425 3.59889C18.4784 1.97627 19.6456 0.604366 21.1506 0.533325Z" fill="#1B545D"/>
</g>
<defs>
<linearGradient id="paint0_linear_413_91" x1="15.6878" y1="16.6887" x2="24.1595" y2="19.0249" gradientUnits="userSpaceOnUse">
<stop stop-color="#529FAB"/>
<stop offset="1" stop-color="#6ACDDF"/>
</linearGradient>
<linearGradient id="paint1_linear_413_91" x1="4.69449" y1="19.1643" x2="0.825088" y2="21.7611" gradientUnits="userSpaceOnUse">
<stop stop-color="#56A7B3"/>
<stop offset="1" stop-color="#6BCADC"/>
</linearGradient>
<linearGradient id="paint2_linear_413_91" x1="8.98577" y1="17.1099" x2="4.95182" y2="19.7545" gradientUnits="userSpaceOnUse">
<stop stop-color="#356973"/>
<stop offset="1" stop-color="#52A1AD"/>
</linearGradient>
<clipPath id="clip0_413_91">
<rect width="24" height="24" fill="white"/>
</clipPath>
</defs>
</svg>
