<svg width="24" height="24" viewBox="0 0 24 24" fill="none" xmlns="http://www.w3.org/2000/svg">
<path d="M20.336 -6.45352e-07H3.66498C1.64069 -6.45352e-07 0 1.67983 0 3.75205V3.7915V20.249C0 22.301 1.61032 23.9697 3.6083 24H20.3269C22.3512 24 23.9929 22.3212 23.9929 20.249L24 3.75205C24 1.67983 22.3603 -6.45352e-07 20.336 -6.45352e-07ZM5.64575 22.0775L4.73684 22.0876C3.63563 22.0876 2.74291 21.1834 2.74291 20.0679L2.73785 19.9091V4.67439L2.74393 3.85319C2.78542 2.77409 3.60627 1.90637 4.68016 1.90637H6.52935C8.20547 1.90637 9.56377 3.36269 9.56377 5.07892C9.56377 5.92845 9.23077 6.69908 8.6913 7.25936L3.97368 12.043L8.39575 16.5424C8.96559 17.13 9.30972 17.9006 9.30972 18.7451C9.30972 20.5857 7.67004 22.0775 5.64575 22.0775ZM19.2399 22.0623L10.996 22.0592C10.996 22.0592 11.9484 20.0012 11.9484 18.7269C11.9484 17.1725 11.4292 15.7849 10.6154 14.8666L7.79555 11.9944L10.6731 9.02313C11.5304 8.21912 12.0992 6.79112 12.0992 5.16388C12.0992 3.87544 11.7429 2.73465 11.169 1.90637H13.166C14.8421 1.90637 16.2014 3.36269 16.2014 5.07892C16.2014 5.92845 15.8684 6.69908 15.3289 7.25936L10.7014 11.9934L20.3128 21.7862C20.0081 21.9773 19.6245 22.0623 19.2399 22.0623ZM21.253 19.005L14.3654 11.9904L17.6457 8.65905C18.3128 7.8247 18.7368 6.56862 18.7368 5.16388C18.7368 3.86735 18.3755 2.69723 17.7966 1.86895L19.2642 1.91345C20.3654 1.91345 21.2581 2.81758 21.2581 3.93308L21.253 19.005Z" fill="#00529C"/>
</svg>
