<svg width="72" height="72" viewBox="0 0 72 72" fill="none" xmlns="http://www.w3.org/2000/svg">
<g clip-path="url(#clip0_696_1027)">
<rect width="72" height="72" rx="36" fill="#E14594" fill-opacity="0.5"/>
<g clip-path="url(#clip1_696_1027)">
<path d="M30.5741 44.418C30.5741 44.418 18.0526 46.6316 13.3905 53.0877C9.82597 58.0232 7.61597 72.2 7.61597 72.2H62.3546C62.3546 72.2 60.0236 54.8658 55.6049 50.7738C51.1863 46.6818 44.472 45.6944 44.472 45.6944L30.5741 44.418Z" fill="#312A45"/>
<path d="M28.1616 44.9604C28.1616 44.9604 27.8025 51.4284 30.547 53.98C33.2915 56.5316 38.877 52.7696 38.877 52.7696C38.877 52.7696 41.3318 54.9898 44.0341 54.3166C46.7364 53.6434 45.726 47.8948 44.0491 45.6561L28.1616 44.9604Z" fill="#4D7D80"/>
<path d="M42.2239 45.6944L31.3127 45.041C27.1279 45.041 21.2079 45.173 19.9961 37.5883C19.6996 35.7403 20.8774 29.473 22.0171 27.5194C24.5045 23.2505 21.8634 23.3138 24.0571 16.6637C26.5989 8.95224 35.8496 11.4589 35.8496 11.4589C35.8496 11.4589 51.1904 15.6486 52.224 19.9505C53.8193 26.5769 49.9732 25.0364 52.224 29.9455C53.3528 32.406 53.992 39.3571 50.8436 42.9488C48.552 45.5637 45.016 45.6944 42.2239 45.6944Z" fill="#9E3838"/>
<path d="M43.0426 47.177C40.3158 57.9443 29.6045 48.0773 29.2006 44.4182C30.8897 39.2702 30.3239 33.7632 30.3239 33.7632L43.146 38.1667C43.1174 38.5297 43.0862 38.894 43.0562 39.261C42.9202 40.9493 42.7842 42.6758 42.8305 44.5001C42.8524 45.3954 42.9232 46.289 43.0426 47.177Z" fill="#E69680"/>
<path d="M42.8305 44.5C36.1012 43.0717 31.7084 36.3608 31.7084 36.3608L43.0562 39.2648C42.9161 40.9492 42.7815 42.6757 42.8305 44.5Z" fill="#161F29"/>
<path d="M45.9177 28.932C45.9177 28.932 46.8847 25.8683 49.4537 26.5415C52.0228 27.2147 52.1982 35.4898 47.3185 35.2746L45.9177 28.932Z" fill="#E06C5C"/>
<path d="M49.7271 28.376C49.7271 28.6488 49.713 28.9392 49.6849 29.2472C49.6586 29.5887 49.6196 29.9477 49.568 30.3244C49.5095 30.7534 49.432 31.2035 49.3436 31.6642C49.291 31.9431 49.2325 32.2247 49.1681 32.509C48.178 36.9428 46.2672 38.977 44.0804 40.0132C40.4777 41.7212 31.5493 38.0332 30.158 34.753C29.1516 32.377 29.168 33.363 28.9 26.9729C28.6321 20.5828 31.3154 17.0729 31.3154 17.0729C34.9507 13.0297 41.4501 13.6409 45.6743 16.3086C49.8984 18.9763 49.7624 23.9554 49.7271 28.376Z" fill="#E69680"/>
<path d="M44.0341 34.2581C43.6743 34.3139 43.3087 34.3246 42.9461 34.2898C40.8231 34.097 39.2211 32.4655 39.1544 32.3969C39.1109 32.3452 39.0892 32.2795 39.0936 32.2129C39.098 32.1463 39.1282 32.0838 39.1782 32.0379C39.2282 31.9921 39.2942 31.9663 39.363 31.9658C39.4317 31.9653 39.4981 31.9901 39.5488 32.0352C39.5651 32.051 41.0815 33.5915 42.9964 33.7644C44.9113 33.9373 45.56 32.781 45.56 32.7691C45.596 32.711 45.6536 32.6686 45.721 32.6506C45.7884 32.6326 45.8603 32.6405 45.9218 32.6725C45.9834 32.7046 46.0298 32.7584 46.0516 32.8229C46.0734 32.8873 46.0688 32.9574 46.0387 33.0186C46.0115 33.0688 45.4635 34.0231 44.0341 34.2581Z" fill="#302922"/>
<path d="M44.5223 35.7681C44.5969 35.7164 44.6687 35.6608 44.7372 35.6018C44.8074 35.5391 44.849 35.4519 44.8529 35.3595C44.8569 35.267 44.8228 35.1768 44.7583 35.1087C44.7263 35.075 44.6878 35.0477 44.645 35.0285C44.6022 35.0092 44.5558 34.9983 44.5087 34.9964C44.4134 34.9926 44.3205 35.0256 44.2503 35.0883C44.2082 35.1266 43.2412 35.9595 42.0077 35.5173C41.9175 35.4851 41.8178 35.4889 41.7306 35.5281C41.6434 35.5672 41.5757 35.6383 41.5426 35.7258C41.5094 35.8134 41.5134 35.9101 41.5537 35.9947C41.594 36.0794 41.6673 36.1451 41.7574 36.1773C43.0372 36.6314 44.0858 36.0704 44.5223 35.7681Z" fill="#E06C5C"/>
<path d="M42.9284 31.5218C42.7643 31.5389 42.5988 31.5389 42.4348 31.5218C42.354 31.5134 42.2799 31.4742 42.2289 31.4128C42.1779 31.3514 42.1541 31.2729 42.1628 31.1945C42.1714 31.1161 42.2118 31.0442 42.2751 30.9947C42.3383 30.9452 42.4192 30.9221 42.5 30.9305C42.75 30.9536 43.0021 30.9263 43.2406 30.8502C43.4792 30.7741 43.6989 30.6509 43.8859 30.4883C42.9339 29.2211 42.4144 26.061 42.3899 25.9184C42.3837 25.8799 42.3854 25.8405 42.395 25.8026C42.4045 25.7647 42.4216 25.7289 42.4453 25.6974C42.4933 25.6338 42.5653 25.5913 42.6456 25.5792C42.7258 25.5671 42.8077 25.5865 42.8733 25.633C42.9388 25.6796 42.9826 25.7495 42.9951 25.8274C43.1528 26.8094 43.7336 29.5234 44.5156 30.2956C44.5685 30.3475 44.6 30.4165 44.604 30.4895C44.6081 30.5625 44.5843 30.6344 44.5373 30.6916C44.1271 31.1541 43.5529 31.4504 42.9284 31.5218Z" fill="#161F29"/>
<path d="M40.3308 22.5402C40.3308 22.5402 38.6158 21.7905 37.0668 22.8544C36.2032 23.4484 36.7091 24.3249 37.8256 23.8959C38.6063 23.5949 39.0388 23.4827 39.9336 23.5632C40.8285 23.6438 40.7619 22.6722 40.3308 22.5402Z" fill="#9E3838"/>
<path d="M45.3492 22.7928C45.3492 22.7928 47.1036 22.1328 48.5874 23.2839C49.4156 23.9227 48.8594 24.7715 47.7714 24.2818C47.0098 23.9399 46.5841 23.8039 45.6851 23.8356C44.7862 23.8673 44.9113 22.9011 45.3492 22.7928Z" fill="#9E3838"/>
<path d="M30.547 26.16C30.547 26.16 29.0129 23.5953 26.331 24.7463C23.6491 25.8974 24.8772 34.942 30.158 33.9203L30.547 26.16Z" fill="#E69680"/>
<path d="M31.008 21.281C31.008 21.281 32.4972 24.1388 31.688 25.794C30.8788 27.4493 31.0516 29.4122 31.0516 29.4122C31.0516 29.4122 28.0079 26.9913 28.7559 23.1474C29.5039 19.3036 31.008 21.281 31.008 21.281Z" fill="#9E3838"/>
<path d="M29.444 30.3919C29.4606 30.4547 29.4509 30.5214 29.417 30.5773C29.3831 30.6332 29.3278 30.6738 29.2631 30.6902C29.2455 30.6953 29.2272 30.698 29.2087 30.6982C29.1512 30.7003 29.0946 30.6832 29.0483 30.6499C29.0021 30.6165 28.9689 30.5688 28.9544 30.5147C28.7696 29.918 28.4722 29.3598 28.0772 28.8686C27.5591 29.3201 27.1483 29.7372 27.1415 29.7425C27.1195 29.7658 27.0929 29.7844 27.0632 29.7974C27.0335 29.8103 27.0014 29.8172 26.9688 29.8177C26.9011 29.8199 26.8351 29.7962 26.7852 29.7517C26.7381 29.7055 26.7117 29.6431 26.7117 29.5781C26.7117 29.5131 26.7381 29.4508 26.7852 29.4045C26.8029 29.3861 27.215 28.9676 27.7454 28.5043C27.3132 28.0846 26.7622 27.7992 26.1623 27.6846C26.0967 27.6723 26.0388 27.6353 26.0013 27.5816C25.9638 27.5278 25.9498 27.4619 25.9624 27.3982C25.975 27.3344 26.0132 27.2782 26.0686 27.2418C26.1239 27.2054 26.1919 27.1919 26.2575 27.2041C28.6851 27.6555 29.4141 30.2797 29.444 30.3919Z" fill="#161F29"/>
<path d="M37.8828 8.7267C37.8828 8.7267 46.935 8.20662 50.7729 13.5487C54.6108 18.8907 51.3985 23.7127 51.3985 23.7127C51.3985 23.7127 45.7776 24.7951 38.6825 17.2684C38.6825 17.2684 38.0025 23.4051 32.7584 23.7127C27.5142 24.0202 28.7477 19.2088 28.7477 19.2088C28.7477 19.2088 26.739 10.147 37.8828 8.7267Z" fill="#9E3838"/>
<path d="M38.8769 27.5011C38.8769 28.2034 38.5301 28.7723 38.1017 28.7723C37.6733 28.7723 37.3265 28.2034 37.3265 27.5011C37.3265 26.7989 37.6733 26.23 38.1017 26.23C38.5301 26.23 38.8769 26.7989 38.8769 27.5011Z" fill="#161F29"/>
<path d="M46.6929 27.8786C46.6929 28.5808 46.3447 29.1497 45.9177 29.1497C45.4906 29.1497 45.1411 28.5808 45.1411 27.8786C45.1411 27.1763 45.4893 26.6074 45.9177 26.6074C46.3461 26.6074 46.6929 27.1763 46.6929 27.8786Z" fill="#161F29"/>
</g>
</g>
<defs>
<clipPath id="clip0_696_1027">
<rect width="72" height="72" rx="36" fill="white"/>
</clipPath>
<clipPath id="clip1_696_1027">
<rect width="68" height="66" fill="white" transform="translate(0 6.2002)"/>
</clipPath>
</defs>
</svg>
