<svg width="72" height="72" viewBox="0 0 72 72" fill="none" xmlns="http://www.w3.org/2000/svg">
<g clip-path="url(#clip0_696_1049)">
<rect width="72" height="72" rx="36" fill="#2B3595" fill-opacity="0.5"/>
<g clip-path="url(#clip1_696_1049)">
<path d="M66.923 72.1001H1.49609C1.49609 72.1001 3.04785 56.8211 10.1457 51.8724C14.3875 48.9156 20.0737 47.0439 23.9551 46.0235C26.5677 45.3279 28.3615 45.0229 28.3615 45.0229L42.8306 45.6183C42.8306 45.6183 44.5211 45.9192 46.9228 46.6096C49.9339 47.4742 54.0574 48.9552 57.3812 51.2296C63.3761 55.315 66.923 72.1001 66.923 72.1001Z" fill="#4D7D80"/>
<path d="M42.9842 42.0714L42.8291 45.6143C42.4065 45.9196 41.962 46.1953 41.4991 46.4393C34.9996 49.8713 28.3601 45.019 28.3601 45.019L28.8973 32.7324L41.3046 40.956L42.9842 42.0714Z" fill="#E69680"/>
<path d="M42.9841 42.071L42.829 45.6138C42.4064 45.9191 41.9619 46.1948 41.4989 46.4388C36.1949 44.1434 32.5039 38.4858 32.5039 38.4858L41.3045 40.9582L42.9841 42.071Z" fill="#302922"/>
<path d="M48.231 26.5571C48.231 26.5571 50.407 24.2656 51.4759 26.6891C52.5449 29.1126 51.4324 33.8897 48.3126 32.9723L48.231 26.5571Z" fill="#E06C5C"/>
<path d="M50.8872 16.5572C50.8872 16.5572 53.2577 17.4812 52.1112 20.1014C50.9648 22.7216 51.0409 23.2614 51.3442 24.8996C51.6475 26.5377 50.2494 27.8102 49.7693 27.6293C49.2892 27.4485 45.1793 15.1962 50.8872 16.5572Z" fill="#302922"/>
<path d="M50.078 34.9853C50.078 34.9853 49.7693 42.31 41.918 41.9707C34.1171 41.6368 29.0592 35.4711 28.7954 35.1846L28.7872 35.1767L28.7682 33.6336L28.6744 25.6252L28.6227 21.3444C28.6227 21.3444 27.9617 13.6132 35.5587 12.5202C41.1048 11.7216 46.2252 12.8199 48.7072 15.7133C48.7874 15.807 48.8649 15.9021 48.937 15.9997C49.745 17.0573 50.207 18.3261 50.263 19.6416L50.1705 27.324L50.1488 29.2063L50.078 34.9853Z" fill="#E69680"/>
<path d="M44.1579 33.2231C43.7669 33.2384 43.3755 33.2038 42.9938 33.1201C40.7634 32.6489 39.2796 30.7151 39.217 30.6319C39.174 30.5714 39.157 30.497 39.1696 30.4245C39.1822 30.352 39.2234 30.2871 39.2845 30.2437C39.3455 30.2002 39.4217 30.1815 39.4967 30.1917C39.5717 30.2018 39.6397 30.2399 39.6862 30.2979C39.6998 30.3164 41.1061 32.1459 43.1175 32.5683C45.129 32.9907 45.9735 31.845 45.9735 31.8331C46.0195 31.7757 46.0865 31.7378 46.1606 31.7271C46.2348 31.7165 46.3102 31.734 46.3714 31.776C46.4325 31.818 46.4746 31.8812 46.4889 31.9526C46.5032 32.024 46.4886 32.098 46.4482 32.1591C46.4169 32.204 45.707 33.1531 44.1579 33.2231Z" fill="#302922"/>
<path d="M44.472 34.8892C44.5588 34.845 44.6424 34.7952 44.7222 34.74C44.7995 34.6803 44.8502 34.594 44.8637 34.499C44.8772 34.404 44.8526 34.3076 44.7949 34.2297C44.7373 34.1519 44.651 34.0985 44.5539 34.0807C44.4568 34.0629 44.3564 34.082 44.2734 34.1341C44.2231 34.1698 43.0848 34.9261 41.8336 34.3084C41.7449 34.2743 41.6464 34.2734 41.5571 34.3059C41.4678 34.3383 41.3941 34.4017 41.3503 34.4839C41.3064 34.5661 41.2955 34.6611 41.3198 34.7506C41.344 34.8401 41.4015 34.9177 41.4813 34.9684C42.7815 35.6191 43.9715 35.1545 44.472 34.8892Z" fill="#E06C5C"/>
<path d="M44.8079 29.777C44.1567 29.6496 43.5192 29.4631 42.9039 29.2199C42.8325 29.1871 42.7766 29.1291 42.7476 29.0577C42.7186 28.9864 42.7186 28.907 42.7476 28.8356C42.7767 28.7643 42.8326 28.7063 42.904 28.6735C42.9755 28.6407 43.0571 28.6355 43.1324 28.6589C44.3006 29.109 45.5804 29.3638 45.7585 29.1869C45.7564 29.1621 45.7528 29.1374 45.7477 29.113C45.1547 26.5812 43.8205 26.275 43.8069 26.2724C43.7352 26.2576 43.671 26.2192 43.6254 26.1635C43.5797 26.1079 43.5554 26.0386 43.5567 25.9674L43.6315 23.6205C43.634 23.5407 43.6691 23.4651 43.7291 23.4104C43.789 23.3557 43.8689 23.3263 43.9511 23.3288C44.0333 23.3312 44.1112 23.3653 44.1676 23.4234C44.2239 23.4816 44.2542 23.5591 44.2517 23.639L44.1837 25.7642C44.695 25.9767 45.8157 26.6882 46.3529 28.9797C46.3892 29.096 46.3904 29.2199 46.3564 29.3369C46.3224 29.4539 46.2547 29.5589 46.1611 29.6397C45.885 29.8694 45.3669 29.8707 44.8079 29.777Z" fill="#302922"/>
<path d="M35.9597 20.9642C36.1326 21.3837 36.4684 21.7207 36.8947 21.9024C37.321 22.0841 37.8038 22.096 38.2391 21.9357C38.8227 21.716 39.4265 21.5507 40.0424 21.442C40.2614 21.4061 40.4706 21.3271 40.6571 21.21C40.8436 21.0929 41.0034 20.9401 41.1269 20.7609C41.2504 20.5817 41.335 20.3799 41.3753 20.1679C41.4157 19.9559 41.411 19.7382 41.3616 19.528C41.3616 19.528 37.7209 19.0528 35.9597 20.9642Z" fill="#302922"/>
<path d="M50.1554 21.5491C49.9462 21.9528 49.5819 22.2607 49.1411 22.4064C48.7003 22.552 48.2182 22.5238 47.7986 22.3279C47.2363 22.0617 46.6493 21.8478 46.0455 21.689C45.8305 21.6352 45.6291 21.5394 45.4536 21.4075C45.2781 21.2756 45.1321 21.1103 45.0247 20.9217C44.9172 20.7332 44.8506 20.5253 44.8287 20.3109C44.8069 20.0965 44.8303 19.88 44.8977 19.6747C44.8977 19.6747 48.567 19.4991 50.1554 21.5491Z" fill="#302922"/>
<path d="M38.6784 24.8572C38.6471 25.5898 38.2786 26.1693 37.8624 26.1521C37.4463 26.1349 37.1239 25.5264 37.1566 24.7938C37.1892 24.0612 37.5564 23.4817 37.9726 23.4989C38.3887 23.5161 38.7111 24.1246 38.6784 24.8572Z" fill="#302922"/>
<path d="M46.6249 25.1635C46.5923 25.8961 46.2237 26.4756 45.8021 26.4584C45.3805 26.4412 45.0636 25.834 45.0949 25.1014C45.1262 24.3688 45.4947 23.7894 45.9177 23.8065C46.3407 23.8237 46.6562 24.4309 46.6249 25.1635Z" fill="#302922"/>
<path d="M31.3847 32.314C31.3453 32.3932 30.2546 34.5896 28.8007 35.185L28.7926 35.177L28.7749 33.634C28.7749 33.634 30.0207 33.4795 31.3847 32.314Z" fill="#302922"/>
<path d="M30.2247 27.1696C30.2247 27.1696 27.3783 23.1119 25.0336 26.1136C23.0997 28.586 26.2576 35.3668 29.9595 33.2416L30.2247 27.1696Z" fill="#E69680"/>
<path d="M29.5991 32.0366C29.6104 32.038 29.6218 32.038 29.6331 32.0366C29.7149 32.0309 29.791 31.9939 29.8448 31.9338C29.8986 31.8736 29.9256 31.7953 29.92 31.7159C29.6888 28.3538 26.8383 27.0761 26.7172 27.0233C26.6428 26.995 26.5601 26.9955 26.4861 27.0248C26.4122 27.0541 26.3526 27.1098 26.3198 27.1805C26.2869 27.2512 26.2833 27.3314 26.3097 27.4046C26.3361 27.4778 26.3905 27.5383 26.4616 27.5737C27.2692 27.9701 27.956 28.5646 28.4539 29.2981C28.9517 30.0316 29.2434 30.8788 29.2999 31.7555C29.3046 31.8301 29.3379 31.9003 29.3933 31.9524C29.4486 32.0044 29.522 32.0344 29.5991 32.0366Z" fill="#302922"/>
<path d="M26.7811 30.092C26.8523 30.095 26.9225 30.074 26.9796 30.0326C27.2584 29.8319 28.1003 29.3435 28.6293 29.5046C28.7081 29.5277 28.7932 29.5195 28.8657 29.4817C28.9383 29.444 28.9924 29.3798 29.0162 29.3033C29.04 29.2268 29.0316 29.1442 28.9927 29.0738C28.9538 29.0034 28.8876 28.9508 28.8088 28.9277C27.8867 28.6571 26.7362 29.4557 26.6083 29.5561C26.5568 29.5932 26.5183 29.6449 26.4983 29.7041C26.4783 29.7634 26.4778 29.8271 26.4967 29.8867C26.5157 29.9462 26.5532 29.9986 26.6042 30.0366C26.6551 30.0745 26.7169 30.0962 26.7811 30.0986V30.092Z" fill="#302922"/>
<path d="M34.2503 18.5898C34.2503 18.5898 34.1402 20.0933 33.3119 22.0482C32.4837 24.0032 31.2134 23.9556 31.1577 25.1318C31.1019 26.3079 31.7221 27.81 31.3848 27.9711C31.0475 28.1321 30.6055 28.2918 30.6055 28.2918C30.6055 28.2918 29.0619 25.863 28.677 25.6254C28.2922 25.3878 27.4993 24.8585 26.8492 25.0116C26.8492 25.0116 25.6891 24.9219 24.7507 26.5811C24.7507 26.5811 23.9211 25.4301 24.4461 23.8091C24.971 22.1882 25.7802 22.7254 25.7353 21.0886C25.6905 19.4518 25.8006 19.1838 25.8006 19.1838L34.2503 18.5898Z" fill="#302922"/>
<path d="M33.6844 18.5567C33.6844 18.5567 26.1323 19.4477 25.7964 19.1797C25.4605 18.9118 26.3486 11.4076 29.497 8.99461C32.6454 6.58165 40.2559 6.15397 45.0935 7.70893C49.931 9.26389 50.8762 16.0249 50.8762 16.0249L33.6844 18.5567Z" fill="#9E3838"/>
<path d="M32.9527 18.5899C32.9527 18.5899 37.8242 20.9488 40.8693 21.0464C43.9143 21.1441 47.4489 18.9107 50.9101 19.671C54.3713 20.4313 54.9602 21.519 55.9911 21.0464C57.022 20.5739 51.7887 15.5513 47.8148 14.8424C43.8409 14.1336 31.5913 17.8692 32.9527 18.5899Z" fill="#FFF4E6"/>
<path d="M27.4202 42.4634C27.4202 42.4634 29.2657 43.3082 32.5039 47.0213C35.7421 50.7345 35.6727 56.0963 35.6727 56.0963L23.9468 46.0195C23.9468 46.0195 25.5801 43.1973 27.4202 42.4634Z" fill="#FFF4E6"/>
<path d="M35.6702 56.0964V72.1H1.49609C1.49609 72.1 3.04785 56.821 10.1457 51.8724C14.3875 48.9156 20.0737 47.0438 23.9551 46.0234L35.6702 56.0964Z" fill="#312A45"/>
<path d="M42.855 45.0187L42.5164 55.522C42.5164 55.522 46.8344 51.0538 46.92 46.6054C46.92 46.6054 45.5043 43.0137 42.942 43.0137L42.855 45.0187Z" fill="#FFF4E6"/>
<path d="M66.9229 72.0999H43.5472C43.2535 66.8767 42.5164 55.5208 42.5164 55.5208L46.92 46.6055C49.9311 47.4701 54.0546 48.9511 57.3784 51.2255C63.376 55.3148 66.9229 72.0999 66.9229 72.0999Z" fill="#312A45"/>
</g>
</g>
<defs>
<clipPath id="clip0_696_1049">
<rect width="72" height="72" rx="36" fill="white"/>
</clipPath>
<clipPath id="clip1_696_1049">
<rect width="68" height="66" fill="white" transform="translate(0 6.2002)"/>
</clipPath>
</defs>
</svg>
