<svg width="24" height="24" viewBox="0 0 24 24" fill="none" xmlns="http://www.w3.org/2000/svg">
<rect width="24" height="9" transform="translate(0 7)" fill="#0D2B5B"/>
<path d="M1.52172 12.6345C1.52172 12.3335 1.51641 12.0814 1.5 11.8559H2.07461L2.10188 12.2428H2.1178C2.24788 12.0386 2.48631 11.7966 2.93084 11.7966C3.27787 11.7966 3.54864 11.9903 3.66255 12.2801H3.67365C3.76584 12.1352 3.87396 12.0276 3.99848 11.9528C4.14497 11.8504 4.31342 11.7966 4.52989 11.7966C4.96911 11.7966 5.41315 12.0919 5.41315 12.9303V14.4713H4.76277V13.0265C4.76277 12.5917 4.61098 12.3335 4.29121 12.3335C4.06364 12.3335 3.89543 12.4951 3.82521 12.6831C3.80567 12.7548 3.79473 12.8286 3.79263 12.9028V14.4715H3.14225V12.9564C3.14225 12.592 2.996 12.3337 2.68686 12.3337C2.43805 12.3337 2.27008 12.5274 2.20975 12.7096C2.18296 12.7742 2.17186 12.8497 2.17186 12.9243V14.4715H1.52172V12.6345ZM7.94735 13.8433C7.94735 14.0793 7.95821 14.3101 7.985 14.4715H7.38337L7.34017 14.1817H7.32376C7.1611 14.3859 6.88454 14.5303 6.54378 14.5303C6.01237 14.5303 5.71433 14.1494 5.71433 13.7517C5.71433 13.0905 6.30462 12.7581 7.2808 12.7634V12.7206C7.2808 12.5484 7.21009 12.2639 6.74384 12.2639C6.48345 12.2639 6.21268 12.3447 6.03385 12.4571L5.90378 12.0274C6.09901 11.909 6.44049 11.7964 6.85751 11.7964C7.70337 11.7964 7.94759 12.3287 7.94759 12.8973L7.94735 13.8433ZM7.29673 13.1936C6.82493 13.1826 6.37533 13.2847 6.37533 13.6821C6.37533 13.9399 6.54378 14.0583 6.75494 14.0583C7.02016 14.0583 7.21564 13.8859 7.27525 13.6982C7.28985 13.6512 7.29717 13.6024 7.29697 13.5533L7.29673 13.1936ZM8.40781 12.6345C8.40781 12.3335 8.40226 12.0814 8.38657 11.8559H8.97131L9.00365 12.2486H9.02006C9.13373 12.0441 9.42115 11.7966 9.86013 11.7966C10.3211 11.7966 10.7977 12.0919 10.7977 12.9196V14.4713H10.1311V12.9946C10.1311 12.6187 9.98996 12.3332 9.627 12.3332C9.36178 12.3332 9.17692 12.5214 9.1067 12.7204C9.08498 12.7792 9.07967 12.86 9.07967 12.9346V14.471H8.40757L8.40781 12.6345ZM13.6883 10.8052V13.7357C13.6883 14.0043 13.6994 14.2948 13.7101 14.4715H13.1142L13.0869 14.0583H13.0758C12.919 14.3481 12.5987 14.5306 12.2143 14.5306C11.5854 14.5306 11.087 13.999 11.087 13.1938C11.0813 12.3181 11.6339 11.7968 12.2686 11.7968C12.6316 11.7968 12.8917 11.9473 13.0109 12.1414H13.0223V10.8054H13.6886L13.6883 10.8052ZM13.022 12.9461C13.022 12.8928 13.0167 12.8282 13.0056 12.7742C12.946 12.5169 12.7351 12.3071 12.4312 12.3071C12.0031 12.3071 11.7642 12.6833 11.7642 13.1718C11.7642 13.6494 12.0029 13.9988 12.4259 13.9988C12.6965 13.9988 12.9351 13.8158 13.0001 13.5313C13.0165 13.4724 13.0223 13.4076 13.0223 13.338L13.022 12.9461ZM14.1599 14.4715V11.8559H14.8325V14.4715H14.1599ZM15.3035 12.6993C15.3035 12.3449 15.2985 12.0922 15.2823 11.8562H15.8622L15.8835 12.3552H15.9054C16.0355 11.9848 16.3442 11.8562 16.6268 11.8562C16.6917 11.8562 16.7293 11.8452 16.7834 11.8562V12.4365C16.7194 12.4225 16.6541 12.4153 16.5886 12.415C16.2681 12.415 16.0514 12.6192 15.9921 12.9141C15.9789 12.9815 15.9717 13.05 15.9706 13.1188V14.4717H15.3035V12.6993ZM17.0928 14.4715V11.8559H17.7644V14.4715H17.0928Z" fill="white"/>
<path d="M21.9481 9.08953C21.6153 8.71338 21.2615 8.88364 20.9804 9.0221C20.8621 9.07997 20.0086 9.55942 20.0086 9.55942C19.5409 9.75049 19.1767 9.54197 19.0338 9.36645C19.0202 9.3498 19.0078 9.33213 18.9969 9.3136L18.9636 9.25645C18.9073 9.15998 18.8448 9.06724 18.7763 8.97882C18.7348 8.92522 18.6898 8.87434 18.6417 8.82649C18.3217 8.5063 17.8103 8.28223 16.9555 8.68923C16.5508 8.92166 15.2324 9.66799 15.2324 9.66799C14.737 9.87005 14.3581 9.62399 14.235 9.44345C14.2294 9.43669 14.2246 9.4294 14.2205 9.42168L14.2043 9.39442L14.1208 9.25908C14.0832 9.19979 14.0427 9.14226 13.9997 9.08666C13.9578 9.03341 13.9127 8.98263 13.8648 8.93458C13.547 8.6163 13.0382 8.39271 12.1909 8.79206C11.6786 9.08188 10.4869 9.75694 10.4869 9.75694L10.4864 9.75742L9.61426 10.2512L10.0655 10.8003C10.2555 10.9796 10.6124 11.2737 11.1646 11.0258C11.1646 11.0258 12.6886 10.1513 12.6946 10.1486C13.9975 9.4401 14.6404 10.1171 14.9247 10.5683C14.9346 10.5824 14.9426 10.5977 14.9515 10.6114L14.952 10.6121C14.9556 10.6176 14.9578 10.6226 14.9609 10.6279L14.993 10.68C15.1315 10.888 15.3499 11.0224 15.6103 11.0162C15.7539 11.0133 15.8514 10.9669 15.9933 10.8887L17.4678 10.0413L17.471 10.0398C18.7903 9.32268 19.4441 10.0439 19.7233 10.4951C19.745 10.5341 19.7696 10.5714 19.795 10.6061C19.9333 10.7919 20.1239 10.9136 20.3662 10.9076C20.5262 10.9045 20.7055 10.8094 20.7323 10.7919L22.5 9.78086C22.5005 9.78134 22.32 9.51088 21.9481 9.08953Z" fill="#FDD213"/>
</svg>
