<svg width="24" height="24" viewBox="0 0 24 24" fill="none" xmlns="http://www.w3.org/2000/svg">
<path d="M19.4453 9.57113L12.0012 0.00634766L4.55958 9.57113C3.30256 11.1904 2.8125 12.5986 2.8125 14.1292C2.8125 16.4682 4.00826 18.5673 6.14984 20.0355L11.9988 23.9938L17.8501 20.0355C19.9942 18.5673 21.1875 16.4658 21.1875 14.1292C21.1899 12.601 20.6998 11.1904 19.4453 9.57113ZM10.8079 19.6468V21.0575L7.22553 18.6584C5.54216 17.5501 4.59144 15.8996 4.59144 14.2203C4.59144 13.3519 4.83647 12.5123 5.26527 11.7302C5.44905 12.2388 5.75534 12.7497 6.42918 13.5007L10.2272 17.6389C10.8373 18.3274 10.8079 18.7472 10.8079 19.6468ZM7.99003 12.601C7.03931 11.5814 6.85798 11.0129 6.85798 10.4131C6.85798 9.84219 6.9805 9.3336 7.7156 8.40278L12.0037 2.94511L16.2917 8.40278C16.9974 9.3336 17.1494 9.84219 17.1494 10.4131C17.1494 11.0129 16.9656 11.5838 16.0173 12.601L12.0012 16.9792L7.99003 12.601ZM16.7794 18.6584L13.197 21.0575V19.6468C13.197 18.7472 13.1676 18.3274 13.7802 17.6365L17.5781 13.4983C18.252 12.7497 18.5583 12.2388 18.7421 11.7278C19.1709 12.5075 19.4159 13.3471 19.4159 14.2179C19.4135 15.8996 18.4652 17.5477 16.7794 18.6584Z" fill="#0064FF"/>
</svg>
