<svg width="144" height="144" viewBox="0 0 144 144" fill="none" xmlns="http://www.w3.org/2000/svg">
<path d="M70.3327 58.2119C72.6835 58.2414 75.0235 58.4272 77.376 58.3556C89.276 57.9937 99.0691 54.4186 108.663 47.4329C106.167 52.6673 103.558 57.4283 99.6074 61.7457C102.069 64.2272 108.864 75.2173 110.168 78.5439C110.785 80.1187 111.075 81.6484 111.069 83.3421C111.057 86.3025 109.871 89.0369 107.768 91.1097C105.602 93.2043 102.694 94.3551 99.6817 94.31C96.3359 94.2695 92.6814 92.7907 90.3406 90.3866C87.4964 87.4654 85.759 83.6531 82.8763 80.6975C82.1565 80.3619 81.4437 79.6856 80.7732 79.2282C78.5881 77.7377 76.3749 76.9253 73.7676 76.5862C71.9665 76.6267 70.2554 76.7434 68.4949 77.1467C67.7169 77.3249 66.7923 77.7376 66.0172 77.8039C60.0012 80.8128 57.9814 84.7245 54.2051 89.951C52.6644 91.8337 50.7124 93.28 48.3504 93.9339C45.2709 94.7865 41.5594 94.1744 38.7947 92.6148C36.1953 91.1485 34.0166 88.5083 33.2262 85.6169C32.4813 82.892 32.778 79.9533 34.176 77.5008C35.3377 75.441 36.644 73.4571 37.9063 71.4578C39.6669 68.2162 45.857 56.9691 48.4912 55.1833C49.4275 54.5486 50.461 54.3466 51.5781 54.4127C54.6677 54.5956 57.9971 55.9406 61.0452 56.6167C64.1077 57.2959 67.2466 57.6385 70.3327 58.2119Z" fill="#1B545D"/>
<path d="M99.6074 61.7457C102.069 64.2272 108.864 75.2173 110.168 78.5439C110.785 80.1187 111.075 81.6484 111.069 83.3421C111.057 86.3025 109.871 89.0369 107.768 91.1097C105.602 93.2043 102.694 94.3551 99.6817 94.31C96.3359 94.2695 92.6814 92.7907 90.3406 90.3866C87.4964 87.4654 85.759 83.6531 82.8763 80.6975L83.111 80.4231L82.4904 79.8622C82.6947 78.6789 84.6004 74.2356 85.1778 72.9626C86.1738 72.411 87.0677 71.9273 87.8263 71.0529C92.0065 68.2665 95.9816 65.2298 99.6074 61.7457Z" fill="url(#paint0_linear_401_100)"/>
<path d="M37.9063 71.4578C39.6669 68.2162 45.857 56.9691 48.4912 55.1833C49.4275 54.5486 50.461 54.3466 51.5781 54.4127C54.6677 54.5956 57.9971 55.9406 61.0452 56.6167C64.1077 57.2959 67.2466 57.6385 70.3327 58.2119C65.6325 64.4174 52.5322 69.2363 44.8341 70.2979C42.5758 70.6094 40.2231 70.751 38.037 71.4148C37.9931 71.4282 37.9497 71.443 37.9063 71.4578Z" fill="#ECCB45"/>
<path d="M34.176 77.5008C36.4588 77.6805 38.8622 77.4525 41.1096 77.7227C42.797 78.1132 44.5159 78.0465 46.2083 78.378C47.503 81.8806 53.8271 88.1263 54.2051 89.951C52.6644 91.8337 50.7124 93.28 48.3504 93.9339C45.2709 94.7865 41.5594 94.1744 38.7947 92.6148C36.1953 91.1485 34.0166 88.5083 33.2262 85.6169C32.4813 82.892 32.778 79.9533 34.176 77.5008Z" fill="url(#paint1_linear_401_100)"/>
<path d="M41.1096 77.7227C43.9522 77.7069 65.145 77.1417 66.0172 77.8039C60.0012 80.8128 57.9814 84.7245 54.2051 89.951C53.8271 88.1263 47.503 81.8806 46.2083 78.378C44.5159 78.0465 42.797 78.1132 41.1096 77.7227Z" fill="url(#paint2_linear_401_100)"/>
<path d="M73.7676 76.5862L73.6349 76.3253C75.713 76.4066 85.4488 72.1759 87.8263 71.0529C87.0677 71.9273 86.1738 72.411 85.1778 72.9626C84.6004 74.2356 82.6947 78.6789 82.4904 79.8622L83.111 80.4231L82.8763 80.6975C82.1565 80.3619 81.4437 79.6856 80.7732 79.2282C78.5881 77.7377 76.3749 76.9253 73.7676 76.5862Z" fill="#4A98A7"/>
<path d="M70.076 24.8254C77.5379 23.7327 84.4651 28.9171 85.5207 36.3843C86.5762 43.8515 81.3573 50.7529 73.885 51.7712C66.4651 52.7824 59.6227 47.6081 58.5745 40.1933C57.5264 32.7785 62.6666 25.9104 70.076 24.8254Z" fill="#ECCB45"/>
<path d="M101.87 24.7809C106.79 24.5655 110.953 28.3832 111.162 33.3043C111.372 38.2254 107.55 42.3832 102.628 42.5872C97.7149 42.7908 93.5654 38.976 93.3561 34.0629C93.1468 29.1499 96.9568 24.996 101.87 24.7809Z" fill="#1B545D"/>
<path d="M16.5357 115.32L21.5277 104.12H24.0877L29.0957 115.32H26.3757L22.2797 105.432H23.3037L19.1917 115.32H16.5357ZM19.0317 112.92L19.7197 110.952H25.4797L26.1837 112.92H19.0317ZM32.5777 112.76L32.4337 109.768L37.7937 104.12H40.6737L35.8417 109.32L34.4017 110.856L32.5777 112.76ZM30.2577 115.32V104.12H32.8337V115.32H30.2577ZM37.9217 115.32L33.9377 110.44L35.6337 108.6L40.9457 115.32H37.9217ZM40.1138 115.32L45.1058 104.12H47.6658L52.6738 115.32H49.9538L45.8578 105.432H46.8818L42.7698 115.32H40.1138ZM42.6098 112.92L43.2978 110.952H49.0578L49.7618 112.92H42.6098ZM53.8358 115.32V104.12H58.9238C60.1398 104.12 61.2118 104.355 62.1398 104.824C63.0678 105.283 63.7931 105.928 64.3158 106.76C64.8385 107.592 65.0998 108.579 65.0998 109.72C65.0998 110.851 64.8385 111.837 64.3158 112.68C63.7931 113.512 63.0678 114.163 62.1398 114.632C61.2118 115.091 60.1398 115.32 58.9238 115.32H53.8358ZM56.4278 113.192H58.7958C59.5425 113.192 60.1878 113.053 60.7318 112.776C61.2865 112.488 61.7131 112.083 62.0118 111.56C62.3211 111.037 62.4758 110.424 62.4758 109.72C62.4758 109.005 62.3211 108.392 62.0118 107.88C61.7131 107.357 61.2865 106.957 60.7318 106.68C60.1878 106.392 59.5425 106.248 58.7958 106.248H56.4278V113.192ZM69.4386 108.632H74.8306V110.648H69.4386V108.632ZM69.6306 113.24H75.7266V115.32H67.0546V104.12H75.5186V106.2H69.6306V113.24ZM77.7889 115.32V104.12H79.9329L84.7009 112.024H83.5649L88.2529 104.12H90.3809L90.4129 115.32H87.9809L87.9649 107.848H88.4129L84.6689 114.136H83.5009L79.6769 107.848H80.2209V115.32H77.7889ZM98.5102 115.512C97.6249 115.512 96.8035 115.368 96.0462 115.08C95.2995 114.792 94.6489 114.387 94.0942 113.864C93.5502 113.341 93.1235 112.728 92.8142 112.024C92.5155 111.32 92.3662 110.552 92.3662 109.72C92.3662 108.888 92.5155 108.12 92.8142 107.416C93.1235 106.712 93.5555 106.099 94.1102 105.576C94.6649 105.053 95.3155 104.648 96.0622 104.36C96.8089 104.072 97.6195 103.928 98.4942 103.928C99.3795 103.928 100.19 104.072 100.926 104.36C101.673 104.648 102.318 105.053 102.862 105.576C103.417 106.099 103.849 106.712 104.158 107.416C104.468 108.109 104.622 108.877 104.622 109.72C104.622 110.552 104.468 111.325 104.158 112.04C103.849 112.744 103.417 113.357 102.862 113.88C102.318 114.392 101.673 114.792 100.926 115.08C100.19 115.368 99.3849 115.512 98.5102 115.512ZM98.4942 113.304C98.9955 113.304 99.4542 113.219 99.8702 113.048C100.297 112.877 100.67 112.632 100.99 112.312C101.31 111.992 101.556 111.613 101.726 111.176C101.908 110.739 101.998 110.253 101.998 109.72C101.998 109.187 101.908 108.701 101.726 108.264C101.556 107.827 101.31 107.448 100.99 107.128C100.681 106.808 100.313 106.563 99.8862 106.392C99.4595 106.221 98.9955 106.136 98.4942 106.136C97.9929 106.136 97.5289 106.221 97.1022 106.392C96.6862 106.563 96.3182 106.808 95.9982 107.128C95.6782 107.448 95.4275 107.827 95.2462 108.264C95.0755 108.701 94.9902 109.187 94.9902 109.72C94.9902 110.243 95.0755 110.728 95.2462 111.176C95.4275 111.613 95.6729 111.992 95.9822 112.312C96.3022 112.632 96.6755 112.877 97.1022 113.048C97.5289 113.219 97.9929 113.304 98.4942 113.304ZM109.571 115.32L104.739 104.12H107.539L111.763 114.04H110.115L114.403 104.12H116.979L112.131 115.32H109.571ZM120.298 108.632H125.69V110.648H120.298V108.632ZM120.49 113.24H126.586V115.32H117.914V104.12H126.378V106.2H120.49V113.24Z" fill="url(#paint3_linear_401_100)"/>
<defs>
<linearGradient id="paint0_linear_401_100" x1="84.0376" y1="73.6965" x2="111.378" y2="81.8246" gradientUnits="userSpaceOnUse">
<stop stop-color="#529FAB"/>
<stop offset="1" stop-color="#6ACDDF"/>
</linearGradient>
<linearGradient id="paint1_linear_401_100" x1="48.1532" y1="81.1924" x2="36.1284" y2="89.8922" gradientUnits="userSpaceOnUse">
<stop stop-color="#56A7B3"/>
<stop offset="1" stop-color="#6BCADC"/>
</linearGradient>
<linearGradient id="paint2_linear_401_100" x1="62.1608" y1="74.972" x2="49.6055" y2="83.8457" gradientUnits="userSpaceOnUse">
<stop stop-color="#356973"/>
<stop offset="1" stop-color="#52A1AD"/>
</linearGradient>
<linearGradient id="paint3_linear_401_100" x1="72.6487" y1="104.32" x2="72.6486" y2="115.32" gradientUnits="userSpaceOnUse">
<stop stop-color="#446E79"/>
<stop offset="1" stop-color="#64BAC7"/>
</linearGradient>
</defs>
</svg>
