<svg width="512" height="512" viewBox="0 0 512 512" fill="none" xmlns="http://www.w3.org/2000/svg">
<g clip-path="url(#clip0_1131_6032)">
<path d="M449.5 241.5L362.666 159.424C350.055 147.504 330.241 147.808 318.001 160.109L141 338" stroke="black" stroke-width="16" stroke-linecap="round"/>
<path d="M234.5 240.5L183.117 192.018C177.103 186.343 167.754 186.186 161.553 191.656L66.5 275.5" stroke="black" stroke-width="16" stroke-linecap="round"/>
<circle cx="225" cy="138" r="14" stroke="black" stroke-width="10"/>
</g>
<rect x="64" y="57" width="384" height="284" rx="24" stroke="black" stroke-width="16"/>
<path d="M139.841 400.455V447H132.341L110.409 415.295H110.023V447H101.591V400.455H109.136L131.045 432.182H131.455V400.455H139.841ZM190.619 423.727C190.619 428.742 189.68 433.038 187.801 436.614C185.938 440.174 183.392 442.902 180.165 444.795C176.953 446.689 173.309 447.636 169.233 447.636C165.157 447.636 161.506 446.689 158.278 444.795C155.066 442.886 152.521 440.152 150.642 436.591C148.778 433.015 147.847 428.727 147.847 423.727C147.847 418.712 148.778 414.424 150.642 410.864C152.521 407.288 155.066 404.553 158.278 402.659C161.506 400.765 165.157 399.818 169.233 399.818C173.309 399.818 176.953 400.765 180.165 402.659C183.392 404.553 185.938 407.288 187.801 410.864C189.68 414.424 190.619 418.712 190.619 423.727ZM182.142 423.727C182.142 420.197 181.589 417.22 180.483 414.795C179.392 412.356 177.877 410.515 175.938 409.273C173.998 408.015 171.763 407.386 169.233 407.386C166.703 407.386 164.468 408.015 162.528 409.273C160.589 410.515 159.066 412.356 157.96 414.795C156.869 417.22 156.324 420.197 156.324 423.727C156.324 427.258 156.869 430.242 157.96 432.682C159.066 435.106 160.589 436.947 162.528 438.205C164.468 439.447 166.703 440.068 169.233 440.068C171.763 440.068 173.998 439.447 175.938 438.205C177.877 436.947 179.392 435.106 180.483 432.682C181.589 430.242 182.142 427.258 182.142 423.727ZM222.898 400.455V447H214.466V400.455H222.898ZM232.028 400.455H242.347L256.165 434.182H256.71L270.528 400.455H280.847V447H272.756V415.023H272.324L259.46 446.864H253.415L240.551 414.955H240.119V447H232.028V400.455ZM296.006 447H287.006L303.392 400.455H313.801L330.21 447H321.21L308.778 410H308.415L296.006 447ZM296.301 428.75H320.847V435.523H296.301V428.75ZM365.335 415.318C364.956 414.091 364.434 412.992 363.767 412.023C363.116 411.038 362.328 410.197 361.403 409.5C360.494 408.803 359.449 408.28 358.267 407.932C357.085 407.568 355.797 407.386 354.403 407.386C351.903 407.386 349.676 408.015 347.722 409.273C345.767 410.53 344.229 412.379 343.108 414.818C342.002 417.242 341.449 420.197 341.449 423.682C341.449 427.197 342.002 430.174 343.108 432.614C344.214 435.053 345.752 436.909 347.722 438.182C349.691 439.439 351.979 440.068 354.585 440.068C356.949 440.068 358.994 439.614 360.722 438.705C362.464 437.795 363.805 436.508 364.744 434.841C365.684 433.159 366.153 431.189 366.153 428.932L368.062 429.227H355.426V422.636H374.312V428.227C374.312 432.212 373.464 435.659 371.767 438.568C370.07 441.477 367.737 443.72 364.767 445.295C361.797 446.856 358.388 447.636 354.54 447.636C350.252 447.636 346.487 446.674 343.244 444.75C340.017 442.811 337.494 440.061 335.676 436.5C333.873 432.924 332.972 428.682 332.972 423.773C332.972 420.015 333.502 416.659 334.562 413.705C335.638 410.75 337.138 408.242 339.062 406.182C340.987 404.106 343.244 402.53 345.835 401.455C348.426 400.364 351.244 399.818 354.29 399.818C356.866 399.818 359.267 400.197 361.494 400.955C363.722 401.697 365.699 402.758 367.426 404.136C369.169 405.515 370.6 407.152 371.722 409.045C372.843 410.939 373.578 413.03 373.926 415.318H365.335ZM382.466 447V400.455H412.739V407.523H390.898V420.159H411.17V427.227H390.898V439.932H412.92V447H382.466Z" fill="black"/>
<defs>
<clipPath id="clip0_1131_6032">
<rect x="56" y="49" width="400" height="300" rx="32" fill="white"/>
</clipPath>
</defs>
</svg>
