<svg width="166" height="120" viewBox="0 0 166 120" fill="none" xmlns="http://www.w3.org/2000/svg">
<path d="M8.96751 53.1634C14.5961 42.9977 22.6892 34.5398 33.4128 29.7446C47.0516 23.6456 64.0866 26.769 64.2927 44.5657C64.367 50.9709 61.7141 57.8349 56.8428 62.1142C49.9397 68.1784 38.7172 65.5519 43.1478 54.9494C47.8028 43.811 65.4018 38.5758 76.2499 38.3166C90.3683 37.9795 106.011 46.7093 99.2361 63.1707C97.8317 66.5811 95.3966 69.7033 92.7253 72.2056C91.7616 73.1168 90.7453 73.9616 89.6727 74.7389C87.4567 76.8784 84.8041 76.3802 81.7133 73.2445C81.8018 68.305 92.3426 61.5114 96.0644 59.2552C104.624 54.0682 123.97 46.3524 131.828 56.2442C140.635 67.3285 129.188 80.3043 123.519 89.462C121.41 92.866 126.043 97.6335 129.058 94.3729C138.671 83.9706 147.412 67.7928 139.356 53.9555C131.357 40.215 112.014 43.751 99.8208 48.7412C89.7003 52.8832 68.4011 66.0293 74.3113 79.8343C81.1008 95.6943 100.293 77.1016 104.675 68.8698C111.787 55.5062 106.848 39.6547 92.7001 33.8594C77.2529 27.5319 57.9698 32.1486 45.0288 41.9833C36.1572 48.7246 28.9135 65.4959 42.5746 71.8632C56.1421 78.1858 68.6359 61.4197 70.5942 49.9443C73.3193 33.9714 62.9977 19.2497 46.2008 19.9182C27.9079 20.6461 12.1023 35.1852 4.72458 51.0165C3.58092 53.4622 7.64712 55.5472 8.96751 53.1634Z" fill="#07444F" fill-opacity="0.8"/>
<path d="M120.183 65.4843C121.319 70.1958 121.666 74.9446 121.551 79.7814C121.451 84.0303 120.514 88.2355 121.108 92.4597C121.712 96.7585 127.83 96.8414 129.253 93.082C132.708 83.9589 128.454 72.4655 125.382 63.7454C124.346 60.8052 119.46 62.4794 120.183 65.4843Z" fill="#07444F" fill-opacity="0.8"/>
<path d="M159.31 72.6846C146.297 77.2318 134.472 82.3167 122.521 89.3079C117.194 92.4239 121.655 101.155 126.729 97.8583C137.939 90.576 149.664 83.3292 161.488 77.1089C164.367 75.595 162.238 71.6613 159.31 72.6846Z" fill="#07444F" fill-opacity="0.8"/>
<path d="M73.5652 24.9284C84.1362 23.47 94.3736 26.7409 101.562 34.7512C103.211 36.5867 106.11 34.0721 104.455 32.2274C96.5595 23.4316 84.6368 19.4262 73.1911 22.9647C71.9827 23.339 72.2643 25.1086 73.5652 24.9284Z" fill="#07444F" fill-opacity="0.8"/>
<path d="M107.278 36.0413C106.709 36.2087 106.282 36.3892 105.812 36.7582C104.503 37.782 104.951 40.1311 106.544 40.6019C107.116 40.7707 107.581 40.783 108.171 40.7295C109.456 40.6131 110.291 39.117 110.067 37.9408C109.845 36.7659 108.521 35.676 107.278 36.0413Z" fill="#07444F" fill-opacity="0.8"/>
</svg>
