<svg width="279" height="300" viewBox="0 0 279 300" fill="none" xmlns="http://www.w3.org/2000/svg">
<path d="M22.3818 61.6248C22.3818 61.6248 34.4542 29.3029 52.027 31.6171C66.7899 33.5612 64.5202 61.3463 78.8774 59.087C93.42 56.7984 75.9959 29.8116 89.5912 24.8812C103.9 19.6922 125.32 45.5092 125.32 45.5092" stroke="#308C9C" stroke-width="10"/>
<path d="M171.683 138.625C171.683 138.625 183.755 106.303 201.328 108.617C216.091 110.561 213.821 138.346 228.178 136.087C242.721 133.798 225.297 106.812 238.892 101.881C253.201 96.6922 274.621 122.509 274.621 122.509" stroke="#308C9C" stroke-width="10"/>
<path d="M4.68257 258.625C4.68257 258.625 16.755 226.303 34.3278 228.617C49.0907 230.561 46.821 258.346 61.1781 256.087C75.7208 253.798 58.2967 226.812 71.892 221.881C86.2006 216.692 107.621 242.509 107.621 242.509" stroke="#308C9C" stroke-width="10"/>
</svg>
