<svg width="114" height="114" viewBox="0 0 114 114" fill="none" xmlns="http://www.w3.org/2000/svg">
<path d="M84.9037 84.2985C80.7522 88.45 76.3418 91.4781 71.8008 93.5895C64.1794 97.1354 56.1899 98.0996 48.4356 97.4702C40.8451 96.8527 31.2596 92.7939 27.1983 87.2554C24.4172 89.5568 23.6287 94.1856 24.4219 100.427C23.0231 101.553 20.3441 101.831 18.3776 101.437C18.3728 101.435 18.3689 101.433 18.3657 101.432C17.4323 101.244 16.6604 100.902 16.2662 100.427C15.2307 90.8416 16.6889 82.6099 24.4671 77.8005C29.1173 72.4924 35.3778 69.222 43.4576 68.2506C48.4759 67.645 52.7414 64.2321 54.4372 59.4702C56.6602 53.2216 54.3279 45.5243 52.9148 36.7178C45.1319 32.0224 39.5721 24.2894 38.6814 14.5661C38.6767 14.5202 38.6719 14.4751 38.6672 14.4307C38.6672 13.3026 41.1158 12.3906 44.1344 12.3906C45.0013 12.3906 45.8231 12.4666 46.5498 12.5996C48.3572 12.9321 49.5993 13.628 49.5993 14.4307C49.5993 14.4307 50.2263 23.7692 58.9188 26.3247C59.7532 25.9622 60.5813 25.636 61.4031 25.3463C61.4062 25.3447 61.4102 25.3431 61.4149 25.3415C61.8456 25.1895 62.2739 25.0478 62.6998 24.9164C62.7362 24.9053 62.7711 24.895 62.8043 24.8855C92.7554 15.7061 112.233 54.3901 84.9037 84.2985Z" fill="#E86052"/>
<g style="mix-blend-mode:color-burn" opacity="0.2">
<path d="M71.8292 93.5753L71.8007 93.5896C64.1793 97.1354 56.1898 98.0997 48.4354 97.4703C40.8449 96.8528 31.2594 92.7939 27.1982 87.2554C24.4171 89.5568 23.6286 94.1857 24.4218 100.427C23.0229 101.553 20.3439 101.831 18.3774 101.437C18.3838 101.437 18.3909 101.437 18.3988 101.439C20.6218 101.847 22.0919 100.09 22.0919 98.2541C22.0919 96.4158 22.0919 88.4405 24.3316 85.239C26.2719 82.465 25.9038 80.9451 25.7708 80.5864C30.6562 92.3427 46.8513 101.111 71.8292 93.5753Z" fill="#512A23"/>
</g>
<g style="mix-blend-mode:color-burn" opacity="0.2">
<path d="M57.7834 28.9681C48.5138 26.7712 46.0153 16.4851 46.0153 16.4851L43.5073 15.9555C46.9083 15.015 48.3903 13.932 46.5497 12.5996C48.3571 12.9321 49.5992 13.628 49.5992 14.4307C49.5992 14.4307 50.2262 23.7692 58.9187 26.3247C59.7531 25.9622 60.5812 25.636 61.403 25.3462C57.6243 26.8187 57.7834 28.9681 57.7834 28.9681Z" fill="#512A23"/>
</g>
<g opacity="0.34">
<path d="M17.7009 100.783C17.347 94.4277 17.6747 88.4973 20.577 84.1771C20.9665 83.5976 21.8595 84.0798 21.5935 84.7258C19.836 88.977 19.4346 94.7506 19.7624 101.128" fill="white"/>
</g>
<g opacity="0.34">
<path d="M40.5674 15.958C40.5674 15.958 41.686 23.425 46.9585 29.3198C47.3314 29.7378 47.9916 29.2651 47.7114 28.7783C45.6736 25.2395 44.0871 21.354 43.7143 16.5446L40.5674 15.958Z" fill="white"/>
</g>
<path d="M20.1399 102.365C18.2779 102.365 16.4919 101.876 15.6867 100.907C15.5941 100.793 15.5347 100.655 15.5181 100.508C14.276 89.0104 16.9621 81.6076 23.9731 77.2209C28.8134 71.7371 35.3375 68.4667 43.3674 67.5024C48.0699 66.9372 52.1382 63.6834 53.7271 59.2161C55.4181 54.4637 54.3589 48.7874 53.1286 42.2182C52.8246 40.5866 52.5111 38.9051 52.2285 37.1808C48.2717 34.7393 45.0299 31.6328 42.586 27.9444C39.9426 23.9544 38.3775 19.4799 37.9334 14.6492C37.9286 14.6128 37.9247 14.5764 37.9215 14.5399L37.9191 14.5043C37.916 14.479 37.9144 14.4544 37.9144 14.4307C37.9144 12.5117 41.1396 11.6377 44.1345 11.6377C47.1127 11.6377 50.3166 12.5022 50.3522 14.3974C50.3712 14.6088 50.5755 16.7606 51.7036 19.1474C53.2212 22.3561 55.6319 24.5007 58.8737 25.5243C65.6235 22.6482 72.397 22.0046 78.4746 23.6623C84.2055 25.2227 89.1526 28.7329 92.7793 33.8131C97.3844 40.2659 99.4245 48.6331 98.5196 57.3778C97.5198 67.0654 93.0025 76.5488 85.4595 84.8043C85.4516 84.8138 85.4437 84.8225 85.4358 84.8304C75.3681 94.8981 62.8994 99.4011 48.3739 98.2183C41.3914 97.6507 31.775 94.0288 27.1152 88.3716C25.0941 90.5661 24.4386 94.5822 25.1677 100.332C25.201 100.591 25.0965 100.85 24.8922 101.014C23.7689 101.919 21.9187 102.365 20.1399 102.365ZM16.9882 100.085C18.0522 100.973 21.7216 101.232 23.6192 100.071C22.8569 93.5134 23.8995 89.0081 26.7186 86.6758C26.8801 86.5428 27.0867 86.4834 27.291 86.5072C27.4976 86.5333 27.6829 86.6426 27.8064 86.8088C31.8201 92.2856 41.4769 96.1473 48.495 96.7197C62.555 97.8644 74.62 93.5087 84.3599 83.7759C100.648 65.9421 99.5076 45.8306 91.5537 34.6894C84.253 24.4651 71.865 21.5248 59.2181 27.0158C59.0566 27.0847 58.8761 27.0966 58.7051 27.0467C54.9384 25.9399 52.0385 23.4129 50.319 19.7388C49.0294 16.9886 48.856 14.5803 48.8489 14.4806C48.8473 14.4632 48.8465 14.4465 48.8465 14.4307C48.8465 14.0982 47.2267 13.1434 44.1345 13.1434C41.0945 13.1434 39.4771 14.0649 39.4225 14.4117C39.4241 14.4307 39.4257 14.4489 39.4272 14.4663C39.4288 14.4774 39.4304 14.4877 39.432 14.4972C40.2585 23.5127 45.1842 31.1744 53.3044 36.0717C53.4944 36.1881 53.625 36.3804 53.6606 36.5989C53.9527 38.4253 54.2852 40.2113 54.6082 41.9403C55.8789 48.7257 56.9737 54.5848 55.1474 59.7219C53.3661 64.7237 48.8132 68.3646 43.5479 68.9963C35.8576 69.9226 29.628 73.0504 25.0324 78.2968C24.9833 78.3538 24.9263 78.4021 24.8614 78.4417C18.3824 82.4483 15.8767 89.3287 16.9882 100.085Z" fill="#611700"/>
<path d="M44.5404 17.3258C44.2744 17.3258 44.0108 17.3187 43.7496 17.3044C41.2416 17.1667 38.2111 16.3615 37.9237 14.547C37.8596 14.1362 38.1398 13.7514 38.5507 13.6849C38.9592 13.6208 39.3463 13.901 39.4104 14.3119C39.4912 14.8249 41.2558 15.6585 43.8327 15.801C46.4666 15.9435 48.5874 15.2833 48.8724 14.2312C48.9817 13.8298 49.3973 13.5947 49.7987 13.7039C50.2001 13.8132 50.4352 14.2264 50.3259 14.6278C49.7821 16.6252 47.1102 17.3258 44.5404 17.3258Z" fill="#611700"/>
<path d="M92.5346 61.9759L92.5322 61.9902C92.442 62.3781 92.3446 62.7652 92.2401 63.1515C91.701 65.1679 90.998 67.1486 90.143 69.0653C82.3458 86.5571 68.9912 93.9268 49.9651 93.5634C47.0248 93.5064 44.0988 93.01 41.3296 92.0125C26.8088 86.7875 29.7253 73.7227 45.3243 71.9367C46.2411 71.8322 47.1555 71.6778 48.0437 71.4284C53.0431 70.02 56.4702 66.9468 58.1873 62.059C59.9235 57.119 59.9116 50.3242 58.0068 41.5224C57.254 38.0549 58.4296 34.4402 61.1086 32.1127C72.4065 22.292 92.6557 29.9015 93.4917 52.2242C93.6152 55.5135 93.2803 58.791 92.5346 61.9759Z" fill="#B52E35"/>
<g opacity="0.2">
<path d="M93.5155 53.7204C88.6064 36.6014 70.9602 31.621 60.5244 40.6912C59.6528 41.4488 58.9284 42.3394 58.3727 43.3108C58.2587 42.7234 58.1367 42.1272 58.0069 41.5224C57.254 38.0549 58.4297 34.4402 61.1087 32.1127C72.4065 22.292 92.6558 29.9015 93.4918 52.2242C93.5092 52.7245 93.5171 53.2232 93.5155 53.7204Z" fill="#512A23"/>
</g>
<path d="M92.5322 61.99L92.2306 63.1467L92.2401 63.1514C91.701 65.1678 90.998 67.1485 90.143 69.0652C82.3458 86.557 68.9912 93.9267 49.9651 93.5633C47.0248 93.5063 44.0988 93.0099 41.3296 92.0124C26.8088 86.7874 29.7253 73.7225 45.3243 71.9365C46.2411 71.832 47.1555 71.6777 48.0437 71.4283C53.0431 70.0199 56.4702 66.9467 58.1873 62.0589C63.8945 59.4417 69.7607 61.3084 75.399 63.1728C83.6378 62.6265 88.2691 59.4583 92.5346 61.9758L92.5322 61.99Z" fill="#99B22F"/>
<g opacity="0.34">
<path d="M58.7358 68.6446C58.7358 68.6446 59.7856 64.6926 61.3649 63.8804C62.9443 63.0681 65.2504 63.2415 64.4976 66.2625C63.7447 69.2859 57.9521 72.5824 58.7358 68.6446Z" fill="white"/>
</g>
<g opacity="0.34">
<path d="M42.7047 85.2387C40.059 85.2102 37.8098 83.1986 37.6246 80.56C37.5415 79.3559 37.9001 78.147 39.2681 77.3656C42.909 75.2851 49.7513 75.4134 52.941 72.9172C56.133 70.4235 59.0685 75.0571 54.9502 79.1184C51.6703 82.3531 47.3193 85.2886 42.7047 85.2387Z" fill="white"/>
</g>
<g opacity="0.2">
<path d="M91.4209 65.8306C91.0425 66.9246 90.6166 68.0029 90.1431 69.0653C82.346 86.5572 68.9914 93.9268 49.9653 93.5634C47.025 93.5064 44.099 93.0101 41.3298 92.0126C32.1955 88.7256 29.963 82.3368 33.4448 77.6058C33.0196 81.5578 35.9884 85.7758 42.8474 88.2434C45.6166 89.2409 48.5426 89.7397 51.4853 89.7943C70.3143 90.1553 83.5905 82.9377 91.4209 65.8306Z" fill="#512A23"/>
</g>
<path d="M51.3096 94.3307C50.8615 94.3307 50.4087 94.3259 49.9511 94.3164C46.8398 94.2571 43.8544 93.7203 41.0757 92.7204C37.6913 91.5044 35.0004 89.7659 33.2904 87.6997C31.6493 85.7142 30.9226 83.4746 31.1838 81.2231C31.7871 76.0361 37.3042 72.0983 45.2391 71.1887C46.2342 71.0747 47.0844 70.9156 47.8397 70.7042C52.7322 69.3243 55.8933 66.3912 57.5059 61.7314C59.1827 56.8888 59.1019 50.1414 57.2708 41.6817C56.4562 37.9292 57.7387 34.0437 60.6124 31.5452C65.9372 26.9163 73.4327 25.8571 80.1706 28.7759C88.5709 32.4168 93.8316 41.1711 94.2448 52.1958C94.4586 57.9433 93.2782 63.8832 90.8319 69.3718C86.8894 78.2139 81.5979 84.5219 74.6511 88.6568C68.2457 92.4687 60.5982 94.3307 51.3096 94.3307ZM58.7409 41.3634C60.6338 50.0987 60.6956 57.1168 58.9286 62.2231C57.1687 67.3127 53.5753 70.6519 48.2482 72.1529C47.4146 72.3881 46.4859 72.5614 45.4101 72.6849C41.6694 73.1124 38.4846 74.2358 36.1974 75.9339C34.1336 77.4658 32.9176 79.3539 32.6801 81.3964C32.2169 85.3651 35.6298 89.1603 41.5839 91.3026C44.2083 92.2478 47.0346 92.7537 49.9796 92.8107C69.4308 93.1836 81.9756 85.5384 89.4568 68.7591C91.8104 63.4794 92.9457 57.7699 92.7391 52.2528C92.3472 41.8218 87.4262 33.5616 79.5721 30.1582C73.3686 27.4697 66.4834 28.4363 61.6004 32.6804C59.1399 34.8203 58.0451 38.1477 58.7409 41.3634Z" fill="#611700"/>
<path d="M85.9273 66.327C82.5096 66.327 78.9495 65.1466 75.4606 63.99C75.3941 63.9678 75.3268 63.9456 75.2588 63.9235C75.1653 63.9092 75.0783 63.8799 74.9975 63.8356C69.5279 62.0258 63.8896 60.2731 58.5008 62.7455C58.1231 62.9189 57.6766 62.7526 57.5033 62.375C57.3299 61.995 57.4961 61.5485 57.8738 61.3751C63.7994 58.6581 69.7369 60.5082 75.4915 62.413C78.4983 62.2016 81.0134 61.6364 83.2388 61.1376C87.0245 60.2874 90.0146 59.6152 92.9169 61.3276C93.2066 61.4986 93.3491 61.8406 93.2636 62.166L92.7934 63.9733C92.7483 64.1515 92.6366 64.3082 92.4846 64.4104C90.4041 65.8045 88.1978 66.327 85.9273 66.327ZM78.94 63.5316C83.443 64.9067 87.6824 65.6643 91.4111 63.3131L91.6581 62.3631C89.4019 61.2967 86.9176 61.8549 83.5665 62.6054C82.1581 62.9212 80.6358 63.2632 78.94 63.5316Z" fill="#611700"/>
<path d="M75.3587 63.9304C74.9834 63.9304 74.6604 63.6502 74.6129 63.2678C74.5631 62.8546 74.8576 62.4793 75.2684 62.4294C75.2874 62.4278 75.3064 62.4263 75.3254 62.4247C75.7268 62.3843 76.0902 62.6717 76.1448 63.0731C76.1994 63.4863 75.9097 63.8639 75.4988 63.9209C75.4766 63.9225 75.4537 63.9241 75.4299 63.9257C75.4062 63.9288 75.3824 63.9304 75.3587 63.9304Z" fill="#611700"/>
<path d="M66.6398 71.6537C64.6543 71.6537 63.0488 70.0482 63.0488 68.0627C63.0488 66.0796 64.6543 64.4741 66.6398 64.4741C68.6253 64.4741 70.2285 66.0796 70.2285 68.0627C70.2285 70.0482 68.6253 71.6537 66.6398 71.6537ZM66.6398 70.2976C65.4048 70.2976 64.405 69.3001 64.405 68.0627C64.405 66.8277 65.4048 65.8302 66.6398 65.8302C67.8748 65.8302 68.8747 66.8277 68.8747 68.0627C68.8747 69.3001 67.8748 70.2976 66.6398 70.2976Z" fill="#611700"/>
<path d="M68.8938 78.9121C67.4783 78.9121 66.3359 77.7673 66.3359 76.3518C66.3359 74.9363 67.4783 73.7939 68.8938 73.7939C70.3093 73.7939 71.4541 74.9363 71.4541 76.3518C71.4541 77.7673 70.3093 78.9121 68.8938 78.9121ZM68.8938 77.5559C68.2288 77.5559 67.6897 77.0192 67.6897 76.3518C67.6897 75.6868 68.2288 75.1477 68.8938 75.1477C69.5612 75.1477 70.0979 75.6868 70.0979 76.3518C70.0979 77.0192 69.5612 77.5559 68.8938 77.5559Z" fill="#611700"/>
<path d="M58.6553 83.7666C57.3514 83.7666 56.2969 82.7121 56.2969 81.4082C56.2969 80.1043 57.3514 79.0498 58.6553 79.0498C59.9591 79.0498 61.0136 80.1043 61.0136 81.4082C61.0136 82.7121 59.9591 83.7666 58.6553 83.7666ZM58.6553 82.4104C58.0995 82.4104 57.653 81.9639 57.653 81.4082C57.653 80.8548 58.0995 80.4059 58.6553 80.4059C59.211 80.4059 59.6575 80.8548 59.6575 81.4082C59.6575 81.9639 59.211 82.4104 58.6553 82.4104Z" fill="#611700"/>
<path d="M44.5216 83.4528C42.8923 83.4528 41.5742 82.1347 41.5742 80.503C41.5742 78.8738 42.8923 77.5557 44.5216 77.5557C46.1532 77.5557 47.469 78.8738 47.469 80.503C47.469 82.1347 46.1532 83.4528 44.5216 83.4528ZM44.5216 82.0967C43.6428 82.0967 42.9303 81.3842 42.9303 80.503C42.9303 79.6243 43.6428 78.9118 44.5216 78.9118C45.4027 78.9118 46.1152 79.6243 46.1152 80.503C46.1152 81.3842 45.4027 82.0967 44.5216 82.0967Z" fill="#611700"/>
</svg>
