<svg width="122" height="122" viewBox="0 0 122 122" fill="none" xmlns="http://www.w3.org/2000/svg">
<path d="M97.9021 84.2056H57.1236L56.1934 93.9274H97.4421L97.9021 84.2056Z" fill="#5C5682"/>
<path d="M97.521 94.0086H56.1045L57.0474 84.124H97.9912L97.521 94.0086ZM56.2824 93.8408H97.3608L97.8132 84.2867H57.1949L56.2824 93.8408Z" fill="#000072"/>
<path d="M87.2675 98.4515H67.0918L69.4581 89.82C69.6767 89.027 70.396 88.478 71.2169 88.478H83.7499C84.6166 88.478 85.3638 89.088 85.5367 89.9395L87.2675 98.4515Z" fill="#A6B1BC"/>
<path d="M87.3643 98.5327H66.9878L69.382 89.7995C69.6083 88.9734 70.3631 88.3965 71.2171 88.3965H83.7501C84.6524 88.3965 85.4352 89.0395 85.6157 89.9215L87.3643 98.5327ZM67.1962 98.3751H87.1686L85.4606 89.9571C85.2954 89.1463 84.5761 88.5591 83.7501 88.5591H71.2171C70.4343 88.5591 69.743 89.0878 69.5345 89.8427L67.1962 98.3751Z" fill="#000072"/>
<g opacity="0.55">
<path d="M87.268 98.4515H86.9834L85.5397 91.3349C85.3643 90.4859 84.6171 89.8759 83.7504 89.8759H71.2174C70.3965 89.8759 69.6746 90.425 69.4586 91.218L67.4735 98.4515H67.0923L69.4586 89.82C69.6746 89.027 70.3965 88.478 71.2174 88.478H83.7504C84.6171 88.478 85.3643 89.088 85.5397 89.9395L87.268 98.4515Z" fill="white"/>
</g>
<path d="M97.2058 93.0708V98.388H58.3081V93.0708H97.2058Z" fill="#000072"/>
<path d="M87.2677 99.0107H67.092C66.9192 99.0107 66.7539 98.9293 66.6497 98.7895C66.543 98.6523 66.5099 98.4718 66.5557 98.3041L68.9932 89.4108C69.2321 88.5339 70.0378 87.9214 70.9477 87.9214H84.0398C84.998 87.9214 85.8342 88.6025 86.0249 89.543L87.8117 98.3422C87.8447 98.5049 87.804 98.6752 87.6973 98.8048C87.5931 98.9344 87.4329 99.0107 87.2677 99.0107ZM67.8214 97.8949H86.584L84.9345 89.7666C84.8481 89.3422 84.4719 89.0346 84.0398 89.0346H70.9477C70.5385 89.0346 70.175 89.3117 70.0683 89.7056L67.8214 97.8949Z" fill="#000072"/>
<path d="M57.1238 98.4511C53.1842 98.4511 49.9995 95.269 49.9995 91.3294C49.9995 87.3898 53.1842 84.2051 57.1238 84.2051C61.0608 84.2051 64.2456 87.3898 64.2456 91.3294C64.2456 95.269 61.0608 98.4511 57.1238 98.4511Z" fill="#BECAD8"/>
<path d="M57.124 98.5326C53.1412 98.5326 49.9209 95.3123 49.9209 91.3295C49.9209 87.3468 53.1412 84.1265 57.124 84.1265C61.1068 84.1265 64.3271 87.3468 64.3271 91.3295C64.3271 95.3123 61.1068 98.5326 57.124 98.5326ZM57.124 98.3725C53.2276 98.3725 50.0785 95.2234 50.0785 91.3295C50.0785 87.4332 53.2276 84.2866 57.124 84.2866C61.0178 84.2866 64.1669 87.4332 64.1669 91.3295C64.1669 95.2234 61.0178 98.3725 57.124 98.3725Z" fill="#000072"/>
<path d="M57.1238 95.6172C54.7525 95.6172 52.8335 93.7008 52.8335 91.3294C52.8335 88.958 54.7525 87.0391 57.1238 87.0391C59.4952 87.0391 61.4116 88.958 61.4116 91.3294C61.4116 93.7008 59.4952 95.6172 57.1238 95.6172Z" fill="#A6B1BC"/>
<g opacity="0.3">
<path d="M61.4115 91.3294C61.4115 91.4446 61.4064 91.5598 61.3963 91.6751C61.2209 89.4664 59.3756 87.7304 57.1212 87.7304C54.8693 87.7304 53.024 89.4664 52.8512 91.6751C52.841 91.5598 52.8359 91.4446 52.8359 91.3294C52.8359 88.9606 54.7524 87.0391 57.1212 87.0391C59.49 87.0391 61.4115 88.9606 61.4115 91.3294Z" fill="#000072"/>
</g>
<g opacity="0.55">
<path d="M61.4115 91.9318C61.4115 94.3006 59.49 96.2221 57.1211 96.2221C54.7523 96.2221 52.8359 94.3006 52.8359 91.9318C52.8342 91.8301 52.8376 91.7301 52.846 91.6318C53.0011 93.8609 54.854 95.6172 57.1211 95.6172C59.3883 95.6172 61.2462 93.8609 61.3987 91.6318C61.4072 91.7301 61.4115 91.8301 61.4115 91.9318Z" fill="white"/>
</g>
<path d="M57.124 93.2231C56.0768 93.2231 55.2305 92.3767 55.2305 91.3296C55.2305 90.2824 56.0768 89.436 57.124 89.436C58.1712 89.436 59.0176 90.2824 59.0176 91.3296C59.0176 92.3767 58.1712 93.2231 57.124 93.2231Z" fill="#000072"/>
<g opacity="0.55">
<path d="M58.3593 91.1619C58.3593 91.1992 58.3576 91.2357 58.3542 91.2712C58.2957 90.6765 57.7671 90.2114 57.1215 90.2114C56.4784 90.2114 55.9498 90.6765 55.8939 91.2712C55.8905 91.2357 55.8879 91.1992 55.8862 91.1619C55.8862 90.5138 56.4403 89.9902 57.1215 89.9902C57.8052 89.9902 58.3593 90.5138 58.3593 91.1619Z" fill="white"/>
</g>
<g opacity="0.3">
<path d="M59.0176 92.2775C59.0176 93.3247 58.1686 94.1711 57.1215 94.1711C56.0768 94.1711 55.2305 93.3247 55.2305 92.2775C55.2305 92.1132 55.25 91.9547 55.2889 91.8022C55.4999 92.6181 56.2421 93.223 57.1215 93.223C58.006 93.223 58.7456 92.6181 58.9566 91.8022C58.9972 91.9547 59.0176 92.1132 59.0176 92.2775Z" fill="#000072"/>
</g>
<path d="M57.1238 99.0103C52.8767 99.0103 49.4429 95.5765 49.4429 91.3294C49.4429 87.0822 52.8767 83.6484 57.1238 83.6484C61.3709 83.6484 64.8022 87.0822 64.8022 91.3294C64.8022 95.5765 61.3709 99.0103 57.1238 99.0103ZM57.1238 97.8945C53.4917 97.8945 50.5561 94.9589 50.5561 91.3294C50.5561 87.6973 53.4917 84.7617 57.1238 84.7617C60.7533 84.7617 63.6889 87.6973 63.6889 91.3294C63.6889 94.9589 60.7533 97.8945 57.1238 97.8945Z" fill="#000072"/>
<path d="M97.4446 98.4511C93.505 98.4511 90.3203 95.269 90.3203 91.3294C90.3203 87.3898 93.505 84.2051 97.4446 84.2051C101.382 84.2051 104.566 87.3898 104.566 91.3294C104.566 95.269 101.382 98.4511 97.4446 98.4511Z" fill="#BECAD8"/>
<path d="M97.4448 98.5326C93.4595 98.5326 90.2417 95.3123 90.2417 91.3295C90.2417 87.3468 93.4595 84.1265 97.4448 84.1265C101.428 84.1265 104.645 87.3468 104.645 91.3295C104.645 95.3123 101.428 98.5326 97.4448 98.5326ZM97.4448 98.3725C93.5484 98.3725 90.3993 95.2234 90.3993 91.3295C90.3993 87.4332 93.5484 84.2866 97.4448 84.2866C101.339 84.2866 104.488 87.4332 104.488 91.3295C104.488 95.2234 101.339 98.3725 97.4448 98.3725Z" fill="#000072"/>
<path d="M97.4446 95.6172C95.0707 95.6172 93.1543 93.7008 93.1543 91.3294C93.1543 88.958 95.0707 87.0391 97.4446 87.0391C99.816 87.0391 101.732 88.958 101.732 91.3294C101.732 93.7008 99.816 95.6172 97.4446 95.6172Z" fill="#A6B1BC"/>
<g opacity="0.3">
<path d="M101.732 91.3294C101.732 91.4446 101.727 91.5598 101.717 91.6751C101.542 89.4664 99.6965 87.7304 97.4421 87.7304C95.1902 87.7304 93.3449 89.4664 93.1695 91.6751C93.1594 91.5598 93.1543 91.4446 93.1543 91.3294C93.1543 88.9606 95.0733 87.0391 97.4421 87.0391C99.8109 87.0391 101.732 88.9606 101.732 91.3294Z" fill="#000072"/>
</g>
<g opacity="0.55">
<path d="M101.732 91.9318C101.732 94.3006 99.8109 96.2221 97.4421 96.2221C95.0733 96.2221 93.1543 94.3006 93.1543 91.9318C93.1543 91.8301 93.1585 91.7301 93.167 91.6318C93.3195 93.8609 95.1749 95.6172 97.4421 95.6172C99.7093 95.6172 101.567 93.8609 101.72 91.6318C101.728 91.7301 101.732 91.8301 101.732 91.9318Z" fill="white"/>
</g>
<path d="M97.4449 93.2231C96.3952 93.2231 95.5488 92.3767 95.5488 91.3296C95.5488 90.2824 96.3952 89.436 97.4449 89.436C98.4921 89.436 99.3385 90.2824 99.3385 91.3296C99.3385 92.3767 98.4921 93.2231 97.4449 93.2231Z" fill="#000072"/>
<g opacity="0.3">
<path d="M99.3384 92.2775C99.3384 93.3247 98.4894 94.1711 97.4423 94.1711C96.3976 94.1711 95.5513 93.3247 95.5513 92.2775C95.5513 92.1132 95.5708 91.9547 95.6097 91.8022C95.8207 92.6181 96.5629 93.223 97.4423 93.223C98.3268 93.223 99.0664 92.6181 99.2774 91.8022C99.318 91.9547 99.3384 92.1132 99.3384 92.2775Z" fill="#000072"/>
</g>
<path d="M97.4446 99.0103C93.1975 99.0103 89.7637 95.5765 89.7637 91.3294C89.7637 87.0822 93.1975 83.6484 97.4446 83.6484C101.692 83.6484 105.123 87.0822 105.123 91.3294C105.123 95.5765 101.692 99.0103 97.4446 99.0103ZM97.4446 97.8945C93.8125 97.8945 90.8769 94.9589 90.8769 91.3294C90.8769 87.6973 93.8125 84.7617 97.4446 84.7617C101.074 84.7617 104.01 87.6973 104.01 91.3294C104.01 94.9589 101.074 97.8945 97.4446 97.8945Z" fill="#000072"/>
<path d="M97.4421 99.0103H57.1236C56.8161 99.0103 56.5645 98.7587 56.5645 98.4512C56.5645 98.1436 56.8161 97.8945 57.1236 97.8945H97.4421C97.7522 97.8945 98.0012 98.1436 98.0012 98.4512C98.0012 98.7587 97.7522 99.0103 97.4421 99.0103Z" fill="#000072"/>
<path d="M97.9021 84.7617H57.1236C56.8161 84.7617 56.5645 84.5126 56.5645 84.2051C56.5645 83.8975 56.8161 83.6484 57.1236 83.6484H97.9021C98.2097 83.6484 98.4587 83.8975 98.4587 84.2051C98.4587 84.5126 98.2097 84.7617 97.9021 84.7617Z" fill="#000072"/>
<path d="M68.5768 98.3064C66.6731 98.3064 65.1328 96.7687 65.1328 94.8624C65.1328 92.9562 66.6731 91.4185 68.5768 91.4185C70.483 91.4185 72.0207 92.9562 72.0207 94.8624C72.0207 96.7687 70.483 98.3064 68.5768 98.3064Z" fill="#BECAD8"/>
<path d="M68.5766 98.3875C66.6271 98.3875 65.0513 96.8117 65.0513 94.8622C65.0513 92.9128 66.6271 91.3369 68.5766 91.3369C70.526 91.3369 72.1019 92.9128 72.1019 94.8622C72.1019 96.8117 70.526 98.3875 68.5766 98.3875ZM68.5766 98.2274C66.7161 98.2274 65.2114 96.7227 65.2114 94.8622C65.2114 93.0017 66.7161 91.497 68.5766 91.497C70.4371 91.497 71.9417 93.0017 71.9417 94.8622C71.9417 96.7227 70.4371 98.2274 68.5766 98.2274Z" fill="#000072"/>
<path d="M68.5765 96.6541C67.5853 96.6541 66.7847 95.8534 66.7847 94.8622C66.7847 93.8709 67.5853 93.0703 68.5765 93.0703C69.5678 93.0703 70.3684 93.8709 70.3684 94.8622C70.3684 95.8534 69.5678 96.6541 68.5765 96.6541Z" fill="#A6B1BC"/>
<g opacity="0.55">
<path d="M70.3684 95.076C70.3684 96.0647 69.5652 96.8679 68.5765 96.8679C67.5878 96.8679 66.7847 96.0647 66.7847 95.076C66.7847 95.0404 66.7855 95.0048 66.7872 94.9692C66.8406 95.9097 67.6209 96.6544 68.5765 96.6544C69.5322 96.6544 70.3125 95.9097 70.3659 94.9692C70.3676 95.0048 70.3684 95.0404 70.3684 95.076Z" fill="white"/>
</g>
<g opacity="0.3">
<path d="M70.3684 94.8622C70.3684 94.9554 70.3616 95.0469 70.3481 95.1367C70.2134 94.2776 69.4712 93.6219 68.5765 93.6219C67.6819 93.6219 66.9397 94.2776 66.805 95.1367C66.7914 95.0469 66.7847 94.9554 66.7847 94.8622C66.7847 93.8735 67.5878 93.0703 68.5765 93.0703C69.5652 93.0703 70.3684 93.8735 70.3684 94.8622Z" fill="#000072"/>
</g>
<path d="M68.5767 95.8054C68.0557 95.8054 67.6338 95.3834 67.6338 94.8624C67.6338 94.3414 68.0557 93.9194 68.5767 93.9194C69.0978 93.9194 69.5197 94.3414 69.5197 94.8624C69.5197 95.3834 69.0978 95.8054 68.5767 95.8054Z" fill="#000072"/>
<g opacity="0.3">
<path d="M69.5197 95.2866C69.5197 95.8077 69.0978 96.2296 68.5767 96.2296C68.0557 96.2296 67.6338 95.8077 67.6338 95.2866C67.6338 95.2138 67.6423 95.1435 67.6592 95.0757C67.7558 95.4925 68.1294 95.8051 68.5767 95.8051C69.0241 95.8051 69.4002 95.4925 69.4943 95.0757C69.5112 95.1435 69.5197 95.2138 69.5197 95.2866Z" fill="#000072"/>
</g>
<g opacity="0.55">
<path d="M69.0797 94.7173C69.0797 94.736 69.0789 94.7546 69.0772 94.7732C69.0442 94.5648 68.8332 94.4072 68.5765 94.4072C68.3198 94.4072 68.1088 94.5648 68.0783 94.7732C68.0749 94.7546 68.0732 94.736 68.0732 94.7173C68.0732 94.4835 68.2969 94.2954 68.5765 94.2954C68.8561 94.2954 69.0797 94.4835 69.0797 94.7173Z" fill="white"/>
</g>
<path d="M68.5767 98.7867C66.4061 98.7867 64.6523 97.0329 64.6523 94.8623C64.6523 92.6917 66.4061 90.938 68.5767 90.938C70.7473 90.938 72.501 92.6917 72.501 94.8623C72.501 97.0329 70.7473 98.7867 68.5767 98.7867ZM68.5767 97.8284C66.9373 97.8284 65.6106 96.5017 65.6106 94.8623C65.6106 93.2229 66.9373 91.8962 68.5767 91.8962C70.2186 91.8962 71.5428 93.2229 71.5428 94.8623C71.5428 96.5017 70.2186 97.8284 68.5767 97.8284Z" fill="#000072"/>
<path d="M77.1799 98.3064C75.2736 98.3064 73.7334 96.7687 73.7334 94.8624C73.7334 92.9562 75.2736 91.4185 77.1799 91.4185C79.0836 91.4185 80.6239 92.9562 80.6239 94.8624C80.6239 96.7687 79.0836 98.3064 77.1799 98.3064Z" fill="#BECAD8"/>
<path d="M77.1801 98.3875C75.2306 98.3875 73.6548 96.8117 73.6548 94.8622C73.6548 92.9128 75.2306 91.3369 77.1801 91.3369C79.1295 91.3369 80.7054 92.9128 80.7054 94.8622C80.7054 96.8117 79.1295 98.3875 77.1801 98.3875ZM77.1801 98.2274C75.3196 98.2274 73.8149 96.7227 73.8149 94.8622C73.8149 93.0017 75.3196 91.497 77.1801 91.497C79.0406 91.497 80.5452 93.0017 80.5452 94.8622C80.5452 96.7227 79.0406 98.2274 77.1801 98.2274Z" fill="#000072"/>
<path d="M77.1801 96.6541C76.1888 96.6541 75.3882 95.8534 75.3882 94.8622C75.3882 93.8709 76.1888 93.0703 77.1801 93.0703C78.1713 93.0703 78.9719 93.8709 78.9719 94.8622C78.9719 95.8534 78.1713 96.6541 77.1801 96.6541Z" fill="#A6B1BC"/>
<g opacity="0.55">
<path d="M78.9719 95.076C78.9719 96.0647 78.1688 96.8679 77.1801 96.8679C76.1914 96.8679 75.3882 96.0647 75.3882 95.076C75.3882 95.0404 75.389 95.0048 75.3907 94.9692C75.4441 95.9097 76.2244 96.6544 77.1801 96.6544C78.1332 96.6544 78.9135 95.9097 78.9694 94.9692C78.9711 95.0048 78.9719 95.0404 78.9719 95.076Z" fill="white"/>
</g>
<g opacity="0.3">
<path d="M78.9719 94.8622C78.9719 94.9554 78.9652 95.0469 78.9516 95.1367C78.8169 94.2776 78.0747 93.6219 77.1801 93.6219C76.2854 93.6219 75.5432 94.2776 75.4085 95.1367C75.395 95.0469 75.3882 94.9554 75.3882 94.8622C75.3882 93.8735 76.1914 93.0703 77.1801 93.0703C78.1688 93.0703 78.9719 93.8735 78.9719 94.8622Z" fill="#000072"/>
</g>
<path d="M77.1803 95.8054C76.6592 95.8054 76.2373 95.3834 76.2373 94.8624C76.2373 94.3414 76.6592 93.9194 77.1803 93.9194C77.7013 93.9194 78.1232 94.3414 78.1232 94.8624C78.1232 95.3834 77.7013 95.8054 77.1803 95.8054Z" fill="#000072"/>
<g opacity="0.3">
<path d="M78.1232 95.2866C78.1232 95.8077 77.7013 96.2296 77.1803 96.2296C76.6592 96.2296 76.2373 95.8077 76.2373 95.2866C76.2373 95.2138 76.2458 95.1435 76.2627 95.0757C76.3568 95.4925 76.7329 95.8051 77.1803 95.8051C77.6276 95.8051 78.0012 95.4925 78.0978 95.0757C78.113 95.1435 78.1215 95.2138 78.1232 95.2866Z" fill="#000072"/>
</g>
<g opacity="0.55">
<path d="M77.6833 94.7173C77.6833 94.736 77.6816 94.7546 77.6782 94.7732C77.6451 94.5648 77.4367 94.4072 77.18 94.4072C76.9233 94.4072 76.7123 94.5648 76.6793 94.7732C76.6776 94.7546 76.6768 94.736 76.6768 94.7173C76.6768 94.4835 76.9004 94.2954 77.18 94.2954C77.4571 94.2954 77.6833 94.4835 77.6833 94.7173Z" fill="white"/>
</g>
<path d="M77.1802 98.7867C75.0096 98.7867 73.2559 97.0329 73.2559 94.8623C73.2559 92.6917 75.0096 90.938 77.1802 90.938C79.3482 90.938 81.102 92.6917 81.102 94.8623C81.102 97.0329 79.3482 98.7867 77.1802 98.7867ZM77.1802 97.8284C75.5383 97.8284 74.2141 96.5017 74.2141 94.8623C74.2141 93.2229 75.5383 91.8962 77.1802 91.8962C78.8196 91.8962 80.1463 93.2229 80.1463 94.8623C80.1463 96.5017 78.8196 97.8284 77.1802 97.8284Z" fill="#000072"/>
<path d="M88.9101 78.3975V84.2052H71.7056V78.3975H88.9101Z" fill="#A6B1BC"/>
<path d="M88.9912 78.3188V84.2867H71.624V78.3188H88.9912ZM88.8337 78.479V84.1265H71.7867V78.479H88.8337Z" fill="#000072"/>
<g opacity="0.3">
<path d="M88.9096 78.3975V81.9863H71.7051V78.3975H88.9096Z" fill="#000072"/>
</g>
<path d="M88.9101 84.7618H71.7056C71.398 84.7618 71.1489 84.5127 71.1489 84.2051V78.3974C71.1489 78.0899 71.398 77.8408 71.7056 77.8408H88.9101C89.2176 77.8408 89.4693 78.0899 89.4693 78.3974V84.2051C89.4693 84.5127 89.2176 84.7618 88.9101 84.7618ZM88.3535 78.9566V83.6485H72.2622V78.9566H88.3535Z" fill="#000072"/>
<path d="M94.8038 63.1932H87.2881V56.2163H93.2686C94.1175 56.2163 94.8038 56.9051 94.8038 57.754V63.1932Z" fill="#F7AC15"/>
<path d="M94.8853 63.2722H87.2095V56.1377H93.2688C94.1584 56.1377 94.8853 56.8621 94.8853 57.7542V63.2722ZM87.3671 63.112H94.7252V57.7542C94.7252 56.951 94.072 56.2953 93.2688 56.2953H87.3671V63.112Z" fill="#000072"/>
<g opacity="0.55">
<path d="M94.8038 57.754V59.0071C94.8038 58.1581 94.1175 57.4694 93.2686 57.4694H87.2881V56.2163H93.2686C94.1175 56.2163 94.8038 56.9051 94.8038 57.754Z" fill="white"/>
</g>
<path d="M94.8038 63.7498H87.2881C86.9805 63.7498 86.7314 63.5007 86.7314 63.1932V56.2163C86.7314 55.9087 86.9805 55.6597 87.2881 55.6597H93.2686C94.4225 55.6597 95.363 56.6001 95.363 57.754V63.1932C95.363 63.5007 95.1139 63.7498 94.8038 63.7498ZM87.8447 62.6365H94.2472V57.754C94.2472 57.2126 93.8074 56.7729 93.2686 56.7729H87.8447V62.6365Z" fill="#000072"/>
<path d="M61.2334 76.4046V64.901L66.7336 48.6242C67.2419 47.1195 68.6525 46.1079 70.2385 46.1079H85.6359C86.5484 46.1079 87.288 46.8475 87.288 47.76V61.3706C87.288 62.3771 88.1039 63.193 89.1104 63.193H96.5702C98.2375 63.193 99.5897 64.5452 99.5897 66.2125V76.4046" fill="#F7AC15"/>
<path d="M99.6687 76.4047H99.5085V66.2127C99.5085 64.5911 98.192 63.272 96.5704 63.272H89.1106C88.0609 63.272 87.2094 62.4205 87.2094 61.3708V47.7602C87.2094 46.8935 86.5028 46.1869 85.6361 46.1869H70.2387C68.6857 46.1869 67.3056 47.1781 66.8075 48.6498L61.3124 64.9139V76.4047H61.1548V64.8885L61.1573 64.8758L66.6575 48.5989C67.176 47.0612 68.6171 46.0293 70.2387 46.0293H85.6361C86.5918 46.0293 87.367 46.8045 87.367 47.7602V61.3708C87.367 62.3315 88.1498 63.1144 89.1106 63.1144H96.5704C98.2784 63.1144 99.6687 64.5021 99.6687 66.2127V76.4047Z" fill="#000072"/>
<g opacity="0.3">
<path d="M97.3027 71.2935C97.1375 71.2935 97.0053 71.4282 97.0053 71.5934V72.8185C97.0053 73.2887 96.6241 73.6725 96.1513 73.6725H91.1976C90.7248 73.6725 90.3436 73.2912 90.3436 72.8185V71.2935H77.8157C77.6912 71.2935 77.5921 71.3926 77.5921 71.5171V72.5185C77.5921 73.1413 77.0888 73.6445 76.4686 73.6445H75.3427C75.9654 73.6445 76.4686 73.1387 76.4686 72.5185V71.2935H65.753C65.631 71.2935 65.5293 71.3926 65.5293 71.5171V72.5185C65.5293 73.1387 66.0326 73.6445 66.6553 73.6445H65.5293C64.9091 73.6445 64.4033 73.1387 64.4033 72.5185V71.2935H61.2339V75.289H99.5902V71.2935H97.3027Z" fill="#000072"/>
</g>
<g opacity="0.55">
<path d="M87.2885 48.8711C87.2885 47.9586 86.5489 47.219 85.6364 47.219H70.239C68.653 47.219 67.2398 48.2331 66.7341 49.7352L61.2339 66.0146V64.4337L66.7341 48.1569C67.2398 46.6522 68.653 45.6406 70.239 45.6406H85.6364C86.5489 45.6406 87.2885 46.3803 87.2885 47.2927V48.8711Z" fill="white"/>
</g>
<g opacity="0.55">
<path d="M99.5898 65.8926V67.4735C99.5898 65.8061 98.2376 64.454 96.5703 64.454H89.1105C88.104 64.454 87.2881 63.6381 87.2881 62.6341V61.0532C87.2881 62.0597 88.104 62.8731 89.1105 62.8731H96.5703C98.2376 62.8731 99.5898 64.2252 99.5898 65.8926Z" fill="white"/>
</g>
<path d="M76.4686 49.7809V49.8673H71.947C71.4488 49.8673 71.004 50.1825 70.8413 50.6527L65.8521 65.0461C65.7758 65.2647 65.7555 65.4884 65.7834 65.6968C64.8252 65.6612 64.1695 64.7055 64.4846 63.7931L69.4765 49.3996C69.6366 48.9294 70.0814 48.6143 70.5796 48.6143H75.2994C75.945 48.6143 76.4686 49.1378 76.4686 49.7809Z" fill="#000072"/>
<path d="M84.5128 49.4683V49.8673H81.323C80.8502 49.8673 80.4664 50.2485 80.4664 50.7213V62.5095H79.9556C79.4828 62.5095 79.1016 62.1258 79.1016 61.6555V49.4683C79.1016 48.998 79.4828 48.6143 79.9556 48.6143H83.6562C84.129 48.6143 84.5128 48.998 84.5128 49.4683Z" fill="#000072"/>
<path d="M99.5902 76.9642C99.2826 76.9642 99.031 76.7126 99.031 76.405V66.213C99.031 64.8557 97.9279 63.7501 96.5707 63.7501H89.1109C87.7994 63.7501 86.7319 62.6826 86.7319 61.3711V47.7605C86.7319 47.1556 86.2388 46.665 85.6364 46.665H70.239C68.8894 46.665 67.6922 47.5241 67.2602 48.8025L61.7905 64.993V76.405C61.7905 76.7126 61.5414 76.9642 61.2339 76.9642C60.9263 76.9642 60.6772 76.7126 60.6772 76.405V64.9015C60.6772 64.8405 60.6866 64.7812 60.7052 64.7235L66.2054 48.4467C66.79 46.7158 68.4115 45.5518 70.239 45.5518H85.6364C86.8539 45.5518 87.8451 46.543 87.8451 47.7605V61.3711C87.8451 62.0701 88.4119 62.6368 89.1109 62.6368H96.5707C98.543 62.6368 100.147 64.2406 100.147 66.213V76.405C100.147 76.7126 99.8977 76.9642 99.5902 76.9642Z" fill="#000072"/>
<g opacity="0.67">
<path d="M76.4685 49.7809V62.5095L75.3781 63.5593L73.6981 65.1859L73.1643 65.6993H65.8418C64.8531 65.6993 64.1617 64.7259 64.4845 63.7931L65.7325 60.1916L67.4074 55.3598L68.3656 52.6047L69.3162 49.8622L69.4764 49.3996C69.6365 48.9294 70.0813 48.6143 70.5794 48.6143H75.2993C75.9449 48.6143 76.4685 49.1378 76.4685 49.7809Z" fill="#91B5C4"/>
</g>
<path opacity="0.55" d="M76.4685 61.0329V62.5096L75.3782 63.5594L68.3657 52.6048L69.3163 49.8623L76.4685 61.0329Z" fill="url(#paint0_linear_1_30069)"/>
<path opacity="0.55" d="M73.698 65.1859L73.1643 65.6994H69.2577L65.7324 60.1916L67.4074 55.3599L73.698 65.1859Z" fill="url(#paint1_linear_1_30069)"/>
<g opacity="0.67">
<path d="M84.5128 49.4683V61.6555C84.5128 62.1258 84.129 62.5095 83.6562 62.5095H79.9556C79.4828 62.5095 79.1016 62.1258 79.1016 61.6555V49.4683C79.1016 49.2624 79.1753 49.0718 79.2947 48.9243C79.4549 48.7337 79.6912 48.6143 79.9556 48.6143H83.6562C84.129 48.6143 84.5128 48.998 84.5128 49.4683Z" fill="#91B5C4"/>
</g>
<path opacity="0.55" d="M84.513 53.662V57.0704L79.2949 48.9243C79.455 48.7337 79.6914 48.6143 79.9557 48.6143H81.28L84.513 53.662Z" fill="url(#paint2_linear_1_30069)"/>
<path opacity="0.55" d="M84.5128 59.8333V61.6556C84.5128 62.1258 84.129 62.5096 83.6562 62.5096H82.2176L79.1016 57.6398V51.3848L84.5128 59.8333Z" fill="url(#paint3_linear_1_30069)"/>
<path d="M73.1641 66.1266H65.8415C65.2315 66.1266 64.6774 65.8419 64.3242 65.3438C63.9709 64.8456 63.8819 64.2305 64.0802 63.6535L69.072 49.2601C69.2931 48.617 69.898 48.1875 70.5792 48.1875H75.2991C76.1785 48.1875 76.8952 48.9017 76.8952 49.7811V62.5098C76.8952 62.6267 76.8469 62.736 76.7631 62.8173L73.4614 66.0071C73.3801 66.0834 73.2759 66.1266 73.1641 66.1266ZM70.5792 49.0415C70.264 49.0415 69.9819 49.2423 69.8777 49.5397L64.8884 63.9331C64.7791 64.2457 64.8274 64.5787 65.0206 64.8481C65.2112 65.1175 65.5111 65.2726 65.8415 65.2726H72.9912L76.0412 62.3293V49.7811C76.0412 49.3745 75.7083 49.0415 75.2991 49.0415H70.5792Z" fill="#000072"/>
<path d="M83.6565 62.9368H79.9558C79.2492 62.9368 78.6748 62.3624 78.6748 61.6558V49.4685C78.6748 48.7619 79.2492 48.1875 79.9558 48.1875H83.6565C84.3631 48.1875 84.94 48.7619 84.94 49.4685V61.6558C84.94 62.3624 84.3631 62.9368 83.6565 62.9368ZM79.9558 49.0415C79.7194 49.0415 79.5288 49.2321 79.5288 49.4685V61.6558C79.5288 61.8922 79.7194 62.0828 79.9558 62.0828H83.6565C83.8928 62.0828 84.086 61.8922 84.086 61.6558V49.4685C84.086 49.2321 83.8928 49.0415 83.6565 49.0415H79.9558Z" fill="#000072"/>
<path d="M100.017 80.1868H61.2333C60.7758 80.1868 60.4072 79.8182 60.4072 79.3633V77.2308C60.4072 76.7759 60.7758 76.4048 61.2333 76.4048H100.017C100.472 76.4048 100.843 76.7759 100.843 77.2308V79.3633C100.843 79.8182 100.472 80.1868 100.017 80.1868Z" fill="#A6B1BC"/>
<path d="M100.017 80.2683H61.2334C60.7327 80.2683 60.3286 79.8616 60.3286 79.3635V77.231C60.3286 76.7328 60.7327 76.3262 61.2334 76.3262H100.017C100.515 76.3262 100.922 76.7328 100.922 77.231V79.3635C100.922 79.8616 100.515 80.2683 100.017 80.2683ZM61.2334 76.4863C60.8217 76.4863 60.4862 76.8193 60.4862 77.231V79.3635C60.4862 79.7727 60.8217 80.1082 61.2334 80.1082H100.017C100.428 80.1082 100.761 79.7727 100.761 79.3635V77.231C100.761 76.8193 100.428 76.4863 100.017 76.4863H61.2334Z" fill="#000072"/>
<g opacity="0.55">
<path d="M100.841 77.3173V78.3975C100.841 77.9425 100.472 77.574 100.017 77.574H61.2338C60.7763 77.574 60.4077 77.9425 60.4077 78.3975V77.3173C60.4077 76.8598 60.7763 76.4912 61.2338 76.4912H100.017C100.472 76.4912 100.841 76.8598 100.841 77.3173Z" fill="white"/>
</g>
<path d="M100.017 80.7459H61.2337C60.4712 80.7459 59.8511 80.1258 59.8511 79.3633V77.2308C59.8511 76.4683 60.4712 75.8481 61.2337 75.8481H100.017C100.78 75.8481 101.4 76.4683 101.4 77.2308V79.3633C101.4 80.1258 100.78 80.7459 100.017 80.7459ZM61.2337 76.9639C61.0863 76.9639 60.9643 77.0834 60.9643 77.2308V79.3633C60.9643 79.5107 61.0863 79.6301 61.2337 79.6301H100.017C100.164 79.6301 100.284 79.5107 100.284 79.3633V77.2308C100.284 77.0834 100.164 76.9639 100.017 76.9639H61.2337Z" fill="#000072"/>
<path d="M75.3423 74.0716H65.5289C64.6749 74.0716 63.9785 73.3751 63.9785 72.5186V64.2048C63.9785 63.9684 64.1691 63.7778 64.4055 63.7778C64.6393 63.7778 64.8325 63.9684 64.8325 64.2048V72.5186C64.8325 72.9024 65.1451 73.2176 65.5289 73.2176H75.3423C75.7261 73.2176 76.0413 72.9024 76.0413 72.5186V62.5095C76.0413 62.2731 76.2319 62.0825 76.4683 62.0825C76.7021 62.0825 76.8953 62.2731 76.8953 62.5095V72.5186C76.8953 73.3751 76.1988 74.0716 75.3423 74.0716Z" fill="#000072"/>
<path d="M72.1882 68.8816C71.6112 68.8816 71.1436 68.4139 71.1436 67.8344C71.1436 67.659 71.2859 67.5142 71.4638 67.5142H72.9151C73.093 67.5142 73.2353 67.659 73.2353 67.8344C73.2353 68.4139 72.7677 68.8816 72.1882 68.8816Z" fill="#000072"/>
<path d="M95.3175 73.6725H90.3638C89.891 73.6725 89.5098 73.2888 89.5098 72.8185V67.8623C89.5098 67.3921 89.891 67.0083 90.3638 67.0083H95.3175C95.7902 67.0083 96.1715 67.3921 96.1715 67.8623V72.8185C96.1715 73.2888 95.7902 73.6725 95.3175 73.6725Z" fill="#A6B1BC"/>
<path d="M95.3173 73.7515H90.3636C89.8476 73.7515 89.4282 73.3321 89.4282 72.8187V67.8625C89.4282 67.3491 89.8476 66.9297 90.3636 66.9297H95.3173C95.8332 66.9297 96.2526 67.3491 96.2526 67.8625V72.8187C96.2526 73.3321 95.8332 73.7515 95.3173 73.7515ZM90.3636 67.0898C89.9366 67.0898 89.5883 67.4355 89.5883 67.8625V72.8187C89.5883 73.2457 89.9366 73.5914 90.3636 73.5914H95.3173C95.7443 73.5914 96.0925 73.2457 96.0925 72.8187V67.8625C96.0925 67.4355 95.7443 67.0898 95.3173 67.0898H90.3636Z" fill="#000072"/>
<path d="M95.3173 74.0134H90.3636C89.7028 74.0134 89.1665 73.4771 89.1665 72.8188V67.8626C89.1665 67.2043 89.7028 66.668 90.3636 66.668H95.3173C95.9782 66.668 96.5145 67.2043 96.5145 67.8626V72.8188C96.5145 73.4771 95.9782 74.0134 95.3173 74.0134ZM90.3636 67.3517C90.0815 67.3517 89.8502 67.5804 89.8502 67.8626V72.8188C89.8502 73.1009 90.0815 73.3297 90.3636 73.3297H95.3173C95.5995 73.3297 95.8308 73.1009 95.8308 72.8188V67.8626C95.8308 67.5804 95.5995 67.3517 95.3173 67.3517H90.3636Z" fill="#000072"/>
<path d="M94.9491 68.9449H90.7909C90.6028 68.9449 90.4478 68.7924 90.4478 68.6044C90.4478 68.4137 90.6028 68.2612 90.7909 68.2612H94.9491C95.1371 68.2612 95.2896 68.4137 95.2896 68.6044C95.2896 68.7924 95.1371 68.9449 94.9491 68.9449Z" fill="#000072"/>
<path d="M94.9491 70.6251H90.7909C90.6028 70.6251 90.4478 70.4726 90.4478 70.2845C90.4478 70.0939 90.6028 69.9414 90.7909 69.9414H94.9491C95.1371 69.9414 95.2896 70.0939 95.2896 70.2845C95.2896 70.4726 95.1371 70.6251 94.9491 70.6251Z" fill="#000072"/>
<path d="M94.9491 72.3053H90.7909C90.6028 72.3053 90.4478 72.1528 90.4478 71.9647C90.4478 71.7741 90.6028 71.6216 90.7909 71.6216H94.9491C95.1371 71.6216 95.2896 71.7741 95.2896 71.9647C95.2896 72.1528 95.1371 72.3053 94.9491 72.3053Z" fill="#000072"/>
<path d="M49.0566 64.3373L54.6736 75.2487L51.5448 76.8601L45.9278 65.9462C45.7727 65.6463 45.8922 65.2752 46.1946 65.1201L48.2305 64.073C48.5304 63.9154 48.9015 64.0349 49.0566 64.3373Z" fill="#BECAD8"/>
<path d="M51.5093 76.9668L45.8566 65.9842C45.6838 65.6437 45.8185 65.2243 46.1565 65.0489L48.1924 64.0017C48.533 63.8264 48.9523 63.9611 49.1277 64.3017L54.7804 75.2842L51.5093 76.9668ZM48.5101 64.0831C48.4271 64.0831 48.3457 64.1026 48.2661 64.1415L46.2302 65.1912C45.9684 65.3259 45.8642 65.6487 45.9989 65.9105L51.5779 76.7507L54.5643 75.2156L48.9854 64.3728C48.8913 64.1898 48.7033 64.0831 48.5101 64.0831Z" fill="#000072"/>
<g opacity="0.55">
<path d="M54.6709 75.2482L53.7101 75.7438L48.1007 64.835C47.9431 64.5325 47.572 64.4131 47.2721 64.5707L46.1309 65.1578C46.1512 65.1425 46.1724 65.1298 46.1944 65.1197L48.2303 64.0725C48.5327 63.9149 48.9013 64.0344 49.0563 64.3368L54.6709 75.2482Z" fill="white"/>
</g>
<path d="M18.5665 44.7203L17.0009 74.9763H13.2468V47.6483L10.6416 44.6263V37.1258C10.6416 36.1422 11.4371 35.3467 12.4208 35.3467H13.7907C14.205 35.3467 14.5939 35.489 14.9014 35.7356C15.1454 35.9313 15.3386 36.1905 15.4555 36.4955L15.6919 37.1258L18.5665 44.7203Z" fill="#F7AC15"/>
<path d="M17.0747 75.0553H13.1682V47.679L10.563 44.6544V37.126C10.563 36.1017 11.3967 35.2681 12.4209 35.2681H13.7909C14.2128 35.2681 14.6246 35.4129 14.9524 35.6747C15.2117 35.8832 15.4125 36.1577 15.5294 36.4677L18.648 44.7078V44.7231L17.0747 75.0553ZM13.3232 74.8952H16.9222L18.4854 44.7307L15.3769 36.5237C15.2702 36.2415 15.0872 35.9899 14.8482 35.7967C14.5509 35.5578 14.1747 35.4257 13.7884 35.4257H12.4184C11.4805 35.4257 10.718 36.1882 10.718 37.126V44.596L13.3232 47.618V74.8952Z" fill="#000072"/>
<path d="M48.1516 64.1135L46.2733 65.0794L41.4238 56.0615L39.6294 52.7193L40.2089 52.4219L41.5051 51.7534L42.0846 52.8311L43.2259 54.9534L48.1516 64.1135Z" fill="#BECAD8"/>
<path d="M46.2402 65.1859L39.52 52.686L41.5381 51.6465L48.2583 64.1464L46.2402 65.1859ZM39.7386 52.7547L46.3063 64.9724L48.0422 64.0778L41.472 51.86L39.7386 52.7547Z" fill="#000072"/>
<path d="M51.545 77.3684C51.3595 77.3684 51.1816 77.2692 51.0901 77.0913L45.4755 66.1799C45.1908 65.6284 45.4094 64.9498 45.961 64.6651L47.9968 63.6179C48.5484 63.3358 49.227 63.5519 49.5117 64.1034L55.1262 75.0148C55.1872 75.1368 55.1999 75.2766 55.1593 75.4037C55.1161 75.5333 55.0271 75.64 54.9051 75.7036L51.7763 77.3124C51.7018 77.3497 51.6247 77.3684 51.545 77.3684ZM48.5103 64.5126C48.495 64.5126 48.4798 64.5168 48.4645 64.5253L46.4286 65.5725C46.3753 65.6004 46.3549 65.6614 46.3829 65.7148L51.7636 76.1712L53.985 75.03L48.6043 64.5711C48.5865 64.5355 48.5484 64.5126 48.5103 64.5126Z" fill="#000072"/>
<path d="M46.2733 65.5874C46.0929 65.5874 45.9149 65.4909 45.8234 65.3206L39.1795 52.9604C39.1134 52.841 39.1007 52.6987 39.1414 52.569C39.1821 52.4369 39.2736 52.3301 39.3956 52.2666L41.2713 51.3007C41.5204 51.1737 41.8229 51.2677 41.955 51.5117L48.5989 63.8718C48.665 63.9913 48.6777 64.1336 48.6371 64.2632C48.5964 64.3954 48.5049 64.5022 48.3829 64.5657L46.5072 65.5315C46.4309 65.5688 46.353 65.5874 46.2733 65.5874ZM40.3233 52.935L46.4843 64.3954L47.4552 63.8972L41.2942 52.4369L40.3233 52.935Z" fill="#000072"/>
<path d="M17.001 75.4874H13.2469C12.9648 75.4874 12.7386 75.2586 12.7386 74.9765V47.8391L10.2554 44.9594C10.1741 44.8654 10.1309 44.7484 10.1309 44.6264V37.126C10.1309 35.8628 11.1577 34.8359 12.4209 34.8359H13.7909C14.7364 34.8359 15.598 35.4307 15.9309 36.3152L19.0445 44.5375C19.0699 44.6053 19.0801 44.6747 19.075 44.7459L17.5093 75.0019C17.4966 75.2739 17.2729 75.4874 17.001 75.4874ZM13.7578 74.4656H16.5155L18.0507 44.7993L14.9778 36.6761C14.7923 36.1856 14.3144 35.8577 13.7909 35.8577H12.4209C11.7194 35.8577 11.1501 36.427 11.1501 37.126V44.4358L13.6333 47.3155C13.7121 47.4096 13.7578 47.5265 13.7578 47.6485V74.4656Z" fill="#000072"/>
<path d="M14.1341 44.3672C12.8709 44.3672 11.8491 43.348 11.8491 42.0848C11.8491 40.8216 12.8709 39.7998 14.1341 39.7998C15.3973 39.7998 16.4165 40.8216 16.4165 42.0848C16.4165 43.348 15.3973 44.3672 14.1341 44.3672Z" fill="#000072"/>
<path d="M52.0914 77.485H61.9353V72.4678H52.0914C51.4941 72.4678 51.0112 72.9507 51.0112 73.548V76.4048C51.0112 77.0021 51.4941 77.485 52.0914 77.485Z" fill="#A6B1BC"/>
<path d="M62.0139 77.564H52.0912C51.4507 77.564 50.9297 77.0455 50.9297 76.405V73.5482C50.9297 72.9077 51.4507 72.3892 52.0912 72.3892H62.0139V77.564ZM52.0912 72.5467C51.5397 72.5467 51.0898 72.9941 51.0898 73.5456V76.4025C51.0898 76.954 51.5397 77.4039 52.0912 77.4039H61.8563V72.5467H52.0912Z" fill="#000072"/>
<g opacity="0.55">
<path d="M61.9353 72.4678V73.7183H52.0914C51.4941 73.7183 51.0112 74.2037 51.0112 74.801V73.548C51.0112 72.9507 51.4941 72.4678 52.0914 72.4678H61.9353Z" fill="white"/>
</g>
<path d="M30.1259 36.2058L42.5495 38.9178C44.0974 39.2558 45.081 40.7859 44.743 42.3363L44.6032 42.9692L29.3761 39.6447C29.0202 39.5659 28.7966 39.2152 28.8728 38.8619L29.343 36.7065C29.4218 36.3532 29.7726 36.1296 30.1259 36.2058Z" fill="#BECAD8"/>
<path d="M44.6644 43.0634L29.3584 39.7211C29.1678 39.6805 29.0026 39.5661 28.8959 39.4009C28.7891 39.2331 28.7535 39.0374 28.7967 38.8443L29.2669 36.6915C29.3534 36.295 29.7473 36.0408 30.1438 36.1272L42.5649 38.8392C44.156 39.1874 45.1676 40.7632 44.8194 42.3543L44.6644 43.0634ZM29.9862 36.2696C29.7219 36.2696 29.4804 36.4551 29.422 36.7245L28.9518 38.8773C28.8832 39.1899 29.0814 39.4975 29.394 39.5661L44.5424 42.8728L44.6644 42.3187C44.9922 40.8141 44.0366 39.3246 42.5319 38.9968L30.1082 36.2823C30.0676 36.2738 30.0269 36.2696 29.9862 36.2696Z" fill="#000072"/>
<g opacity="0.3">
<path d="M44.8094 41.7366C44.8077 41.9349 44.7856 42.1348 44.7433 42.3365L44.6035 42.9668L29.3764 39.6423C29.0205 39.5661 28.7969 39.2153 28.8757 38.862L29.0841 37.9038C29.1349 38.1504 29.3255 38.3537 29.5848 38.4121L44.8094 41.7366Z" fill="#000072"/>
</g>
<g opacity="0.55">
<path d="M44.7432 42.3363L44.6034 42.9667L44.5068 42.9463C44.611 41.5433 43.6681 40.2445 42.2549 39.9345L29.8338 37.2225C29.5821 37.1666 29.3331 37.2632 29.1831 37.4512L29.3458 36.7065C29.422 36.3532 29.7728 36.1296 30.1261 36.2058L42.5497 38.9178C44.0976 39.2558 45.0812 40.7859 44.7432 42.3363Z" fill="white"/>
</g>
<path d="M13.4656 33.2881L29.3358 36.7524L28.8833 38.8162L13.0132 35.3519L13.4656 33.2881Z" fill="#BECAD8"/>
<path d="M28.9442 38.9101L12.9189 35.4127L13.4044 33.1938L29.4296 36.6912L28.9442 38.9101ZM13.107 35.2907L28.8222 38.722L29.239 36.8157L13.5239 33.3845L13.107 35.2907Z" fill="#000072"/>
<g opacity="0.55">
<path d="M29.3332 36.7524L29.1451 37.6216L13.2749 34.1548L13.463 33.2881L29.3332 36.7524Z" fill="white"/>
</g>
<g opacity="0.3">
<path d="M43.2259 54.9534C42.8014 55.5507 42.1482 55.9523 41.4238 56.0615L39.6294 52.7192L40.2089 52.4219L42.0846 52.8311L43.2259 54.9534Z" fill="#000072"/>
</g>
<path d="M61.935 77.996H52.0911C51.2142 77.996 50.5 77.2818 50.5 76.4049V73.5481C50.5 72.6712 51.2142 71.957 52.0911 71.957H61.935C62.2171 71.957 62.4458 72.1858 62.4458 72.4679V77.4852C62.4458 77.7673 62.2171 77.996 61.935 77.996ZM52.0911 72.9788C51.7759 72.9788 51.5192 73.233 51.5192 73.5481V76.4049C51.5192 76.7201 51.7759 76.9743 52.0911 76.9743H61.4241V72.9788H52.0911Z" fill="#000072"/>
<path d="M59.2636 69.3927H56.1501L50.0475 56.0947L47.755 51.0953L40.4731 49.5042L37.9543 48.9552L35.4914 48.4163L32.9752 47.8673L30.4843 47.3234L30.4488 47.3158L27.9681 46.7719L13.5645 43.6253C13.229 43.5541 12.9392 43.3686 12.7359 43.1144C12.5325 42.8628 12.4131 42.54 12.4131 42.1969C12.4131 41.3251 13.173 40.6465 14.0398 40.7431L31.2138 42.6925L33.9258 43.0001L36.6047 43.3051L39.3141 43.6126L41.965 43.9125L44.677 44.2201L48.7462 44.6826C50.1289 44.8377 51.293 45.7806 51.7403 47.0972L59.2636 69.3927Z" fill="#F7AC15"/>
<path d="M59.3756 69.4714H56.0994L56.0766 69.4257L47.6992 51.1638L13.5468 43.704C13.2037 43.6303 12.8936 43.4371 12.6751 43.1652C12.4539 42.8932 12.3345 42.5501 12.3345 42.1968C12.3345 41.7571 12.5226 41.3403 12.8479 41.0454C13.1758 40.7557 13.6129 40.6159 14.0476 40.6642L48.754 44.6038C50.1596 44.7613 51.3618 45.7297 51.8142 47.0717L59.3756 69.4714ZM56.2011 69.3113H59.1545L51.6642 47.12C51.2296 45.839 50.0808 44.9113 48.7388 44.7588L14.0323 40.8217C13.6409 40.776 13.2495 40.9031 12.9546 41.1649C12.6623 41.4267 12.4946 41.8028 12.4946 42.1968C12.4946 42.512 12.6013 42.8195 12.7996 43.0635C12.9953 43.3075 13.2723 43.4803 13.5824 43.5464L47.8136 51.024L47.8288 51.0596L56.2011 69.3113Z" fill="#000072"/>
<path d="M33.9259 42.9999L30.4845 47.3233L30.4489 47.3157L27.9683 46.7718L31.214 42.6924L33.9259 42.9999Z" fill="#000072"/>
<path d="M39.3145 43.6122L35.4918 48.416L32.9756 47.867L36.6051 43.3047L39.3145 43.6122Z" fill="#000072"/>
<path d="M44.6773 44.2196L40.4734 49.5038L37.9546 48.9548L41.9653 43.9121L44.6773 44.2196Z" fill="#000072"/>
<g opacity="0.55">
<path d="M59.264 69.3922H57.9932L50.8536 48.243C50.4088 46.9264 49.2422 45.9835 47.8621 45.8284L13.1556 41.8889C12.8964 41.8609 12.6498 41.899 12.4287 41.9931C12.5329 41.2229 13.242 40.6536 14.0401 40.7426L48.7466 44.6821C50.1292 44.8372 51.2933 45.7801 51.7407 47.0967L59.264 69.3922Z" fill="white"/>
</g>
<path d="M44.6037 43.4776C44.5681 43.4776 44.5317 43.4742 44.4944 43.4674L29.2673 40.1429C28.9623 40.0743 28.703 39.8938 28.5353 39.632C28.365 39.3702 28.3091 39.0576 28.3751 38.7526L28.8454 36.5998C28.9826 35.9695 29.6053 35.5704 30.2356 35.7077L42.6568 38.4196C44.4791 38.8187 45.6381 40.6233 45.2416 42.4456L45.1019 43.076C45.051 43.3149 44.8401 43.4776 44.6037 43.4776ZM29.9866 36.7015C29.9179 36.7015 29.8569 36.7472 29.8417 36.8159L29.3715 38.9712C29.3613 39.0195 29.3766 39.0576 29.3918 39.0805C29.4071 39.1033 29.435 39.1339 29.4859 39.1466L44.2148 42.3618L44.2453 42.2271C44.5224 40.9562 43.7116 39.693 42.4407 39.416L30.0171 36.704C30.0069 36.7023 29.9967 36.7015 29.9866 36.7015Z" fill="#000072"/>
<path d="M28.8859 39.3268C28.8486 39.3268 28.8121 39.3226 28.7766 39.3141L12.9064 35.8498C12.7742 35.8193 12.6573 35.7406 12.5861 35.6262C12.5124 35.5118 12.487 35.3746 12.515 35.2424L12.9674 33.1786C13.0259 32.9041 13.2978 32.7312 13.5723 32.7897L29.4425 36.254C29.5746 36.2845 29.6916 36.3633 29.7627 36.4776C29.8364 36.592 29.8619 36.7293 29.8339 36.8614L29.3815 38.9253C29.3306 39.1642 29.1197 39.3268 28.8859 39.3268ZM13.6206 34.9603L28.4944 38.2085L28.7283 37.1436L13.8544 33.8953L13.6206 34.9603Z" fill="#000072"/>
<path d="M61.2918 69.3921V72.4675H56.1475V69.3921H61.2918Z" fill="#BECAD8"/>
<path d="M61.3733 69.3135V72.5465H56.0688V69.3135H61.3733ZM61.2132 69.4711V72.3889H56.229V69.4711H61.2132Z" fill="#000072"/>
<g opacity="0.55">
<path d="M61.2922 69.3926V70.3177H56.1504V69.3926H61.2922Z" fill="white"/>
</g>
<path d="M61.2923 72.9785H56.148C55.8684 72.9785 55.6396 72.7498 55.6396 72.4676V69.3922C55.6396 69.1101 55.8684 68.8813 56.148 68.8813H61.2923C61.5744 68.8813 61.8032 69.1101 61.8032 69.3922V72.4676C61.8032 72.7498 61.5744 72.9785 61.2923 72.9785ZM60.784 69.9031V71.9568H56.6589V69.9031H60.784Z" fill="#000072"/>
<path d="M43.0911 50.3324L42.8217 51.2499C42.7437 51.5109 42.6336 51.7498 42.4912 51.9667C41.9931 52.7317 41.1365 53.1994 40.2165 53.1994C40.0182 53.1994 39.8183 53.1774 39.6166 53.1333C38.5059 52.8817 37.685 51.9692 37.5274 50.8687C37.5104 50.7433 37.502 50.6154 37.502 50.4849V49.1099L43.0911 50.3324Z" fill="#F7AC15"/>
<path d="M40.2166 53.2807C40.0099 53.2807 39.804 53.257 39.599 53.2096C38.4756 52.9554 37.6114 52.0201 37.4488 50.8789C37.4318 50.7467 37.4233 50.6154 37.4233 50.4849V49.0107L43.1929 50.2714L42.8981 51.2728C42.8184 51.5405 42.7049 51.7871 42.5575 52.0124C42.039 52.8054 41.1647 53.2807 40.2166 53.2807ZM37.5809 49.209V50.4849C37.5809 50.6086 37.5902 50.7331 37.6089 50.8585C37.7614 51.9311 38.5747 52.8156 39.6346 53.0545C39.8278 53.0986 40.0218 53.1206 40.2166 53.1206C41.1113 53.1206 41.9373 52.6733 42.4253 51.9235C42.5626 51.7117 42.6693 51.4795 42.7456 51.2271L42.9896 50.3909L37.5809 49.209Z" fill="#000072"/>
<path d="M12.9343 36.8057C11.6381 36.8057 10.5884 35.7585 10.5884 34.4597C10.5884 33.1635 11.6381 32.1138 12.9343 32.1138C14.2306 32.1138 15.2803 33.1635 15.2803 34.4597C15.2803 35.7585 14.2306 36.8057 12.9343 36.8057Z" fill="#F7AC15"/>
<path d="M12.9345 36.8872C11.5925 36.8872 10.5098 35.8019 10.5098 34.4599C10.5098 33.1204 11.5925 32.0352 12.9345 32.0352C14.2765 32.0352 15.3593 33.1204 15.3593 34.4599C15.3593 35.8019 14.2765 36.8872 12.9345 36.8872ZM12.9345 36.7271C11.6815 36.7271 10.6699 35.7129 10.6699 34.4599C10.6699 33.2069 11.6815 32.1953 12.9345 32.1953C14.1876 32.1953 15.2017 33.2069 15.2017 34.4599C15.2017 35.7129 14.1876 36.7271 12.9345 36.7271Z" fill="#000072"/>
<g opacity="0.3">
<path d="M15.692 37.1261C15.2853 37.8124 14.5355 38.2724 13.6764 38.2724C12.4691 38.2724 11.4753 37.36 11.3457 36.1883C11.7651 36.572 12.3217 36.8059 12.9342 36.8059C13.7603 36.8059 14.4847 36.3814 14.9015 35.7358C15.1455 35.9315 15.3387 36.1908 15.4556 36.4958L15.692 37.1261Z" fill="#000072"/>
</g>
<g opacity="0.55">
<path d="M14.7645 35.9263C14.795 35.7755 14.8102 35.6187 14.8102 35.4561C14.8102 34.1598 13.7605 33.1101 12.4643 33.1101C11.7247 33.1101 11.0664 33.4507 10.6343 33.987C10.8554 32.9195 11.8009 32.1138 12.9345 32.1138C14.2307 32.1138 15.2804 33.166 15.2804 34.4597C15.2804 35.0164 15.0873 35.5247 14.7645 35.9263Z" fill="white"/>
</g>
<path d="M40.5674 43.7546L40.9944 42.2424C41.2943 41.185 42.2601 40.4556 43.3581 40.4556C44.6137 40.4556 45.6685 41.4036 45.8007 42.6516L45.9837 44.3672" fill="#F7AC15"/>
<path d="M45.905 44.3771L45.722 42.659C45.5923 41.4491 44.5757 40.5341 43.3582 40.5341C42.3009 40.5341 41.3605 41.2458 41.0707 42.265L40.6437 43.7748L40.4912 43.7316L40.9182 42.2193C41.2258 41.134 42.2297 40.374 43.3582 40.374C44.6595 40.374 45.7423 41.35 45.8795 42.6437L46.0625 44.3594L45.905 44.3771Z" fill="#000072"/>
<g opacity="0.55">
<path d="M45.9835 44.3672L44.9414 44.2477L44.8245 43.1396C44.7559 42.5169 44.461 41.9679 44.0239 41.5739C43.5867 41.1825 43.0072 40.9436 42.3819 40.9436C42.1803 40.9453 41.9854 40.9698 41.7974 41.0173C42.2269 40.6614 42.7734 40.4556 43.3579 40.4556C43.9883 40.4556 44.5652 40.6919 44.9999 41.0859C45.4396 41.4773 45.7369 42.0263 45.8005 42.6516L45.9835 44.3672Z" fill="white"/>
</g>
<path d="M59.2638 69.9031C59.0503 69.9031 58.852 69.7684 58.7808 69.5549L51.255 47.2594C50.8763 46.136 49.8698 45.3226 48.6904 45.1879L13.984 41.2509C13.7095 41.2204 13.4451 41.3043 13.2418 41.4873C13.0359 41.6703 12.9241 41.9219 12.9241 42.1964C12.9241 42.6412 13.2393 43.0326 13.6713 43.1266L47.8644 50.5966C48.022 50.6322 48.1541 50.7364 48.2202 50.8813L56.6128 69.1787C56.7297 69.4354 56.6179 69.7379 56.3612 69.8548C56.1045 69.9717 55.802 69.8599 55.6851 69.6057L47.3993 51.5396L13.4553 44.123C12.5556 43.9273 11.9023 43.1165 11.9023 42.1964C11.9023 41.6347 12.1438 41.0984 12.5632 40.7248C12.98 40.3511 13.5392 40.1732 14.0983 40.2368L48.8048 44.1738C50.3756 44.3517 51.7176 45.4345 52.2208 46.9341L59.7467 69.2296C59.8382 69.4964 59.6933 69.7862 59.4264 69.8751C59.3722 69.8938 59.318 69.9031 59.2638 69.9031Z" fill="#000072"/>
<path d="M12.9344 37.3166C11.356 37.3166 10.0801 36.0407 10.0801 34.4598C10.0801 32.8814 11.356 31.6055 12.9344 31.6055C14.5127 31.6055 15.7912 32.8814 15.7912 34.4598C15.7912 36.0407 14.5127 37.3166 12.9344 37.3166ZM12.9344 36.2974C11.9202 36.2974 11.0993 35.4764 11.0993 34.4598C11.0993 33.4456 11.9202 32.6247 12.9344 32.6247C13.951 32.6247 14.7695 33.4456 14.7695 34.4598C14.7695 35.4764 13.951 36.2974 12.9344 36.2974Z" fill="#000072"/>
<path d="M45.9837 44.8782C45.7244 44.8782 45.5033 44.685 45.4753 44.4232L45.2949 42.7051C45.1881 41.7138 44.357 40.964 43.3581 40.964C42.4914 40.964 41.7213 41.5486 41.4849 42.3823L41.0579 43.892C40.9817 44.164 40.6995 44.3216 40.4276 44.2453C40.1582 44.1665 40.0006 43.8844 40.0768 43.615L40.5038 42.1027C40.8647 40.8319 42.0365 39.9448 43.3581 39.9448C44.878 39.9448 46.1463 41.086 46.309 42.5983L46.492 44.3139C46.52 44.5935 46.3166 44.8452 46.037 44.8757C46.0184 44.8774 46.0006 44.8782 45.9837 44.8782Z" fill="#000072"/>
<path d="M40.214 53.7103C39.9785 53.7103 39.7421 53.6832 39.5049 53.629C38.0257 53.2935 36.9912 52.0023 36.9912 50.4849V49.1099C36.9912 48.8303 37.22 48.6016 37.5021 48.6016C37.7842 48.6016 38.0104 48.8303 38.0104 49.1099V50.4849C38.0104 51.5219 38.717 52.4064 39.7286 52.6352C40.8622 52.8919 42.0059 52.2209 42.3313 51.1051L42.6032 50.1876C42.682 49.9181 42.9641 49.7631 43.2361 49.8419C43.5055 49.9232 43.6605 50.2054 43.5818 50.4773L43.3098 51.3949C42.9006 52.7902 41.6145 53.7103 40.214 53.7103Z" fill="#000072"/>
<path d="M31.6514 76.4556L31.9919 72.1323C32.0504 71.385 31.1202 71.0012 30.6347 71.5731L27.5542 75.2077" fill="#F7AC15"/>
<path d="M31.7301 76.4607L31.5725 76.4505L31.9131 72.1246C31.936 71.8196 31.7682 71.5476 31.4861 71.4307C31.204 71.3163 30.8939 71.39 30.6957 71.6239L27.6152 75.2585L27.4932 75.1568L30.5737 71.5222C30.8177 71.235 31.1989 71.141 31.5471 71.2833C31.8953 71.4282 32.1012 71.7637 32.0707 72.1373L31.7301 76.4607Z" fill="#000072"/>
<path d="M13.1708 70.8257L31.6513 76.4555C24.4177 83.8034 17.1434 87.6795 12.4922 75.1745L13.1708 70.8257Z" fill="#F7AC15"/>
<path d="M20.4855 83.3741C20.0585 83.3741 19.6425 83.33 19.2376 83.2419C16.4366 82.6446 14.2051 80.014 12.4157 75.2026L12.4106 75.1823L12.4132 75.162L13.1071 70.7217L31.801 76.4176L31.707 76.5116C27.1345 81.1578 23.5254 83.3741 20.4855 83.3741ZM12.5733 75.1671C14.3398 79.9098 16.5307 82.4998 19.2706 83.0869C22.4858 83.7757 26.3746 81.6788 31.5011 76.4938L13.2341 70.9276L12.5733 75.1671Z" fill="#000072"/>
<g opacity="0.3">
<path d="M12.4922 75.175C17.1434 87.68 24.4202 83.8039 31.6513 76.456L30.0983 75.9832C23.6247 81.8189 17.3341 83.7938 13.1581 72.5672L13.4199 70.9024L13.1708 70.8262L12.4922 75.175Z" fill="#000072"/>
</g>
<g opacity="0.55">
<path d="M12.9927 71.9725L30.7259 77.376C31.0343 77.0761 31.3427 76.7694 31.6511 76.456L13.1706 70.8262L12.9927 71.9725Z" fill="white"/>
</g>
<path d="M20.4804 83.8039C20.0263 83.8039 19.5823 83.7573 19.1486 83.6641C16.1926 83.0312 13.8593 80.3142 12.0141 75.3529C11.9836 75.2698 11.9751 75.1843 11.9887 75.0962L12.6673 70.7474C12.6902 70.6025 12.7741 70.4729 12.8986 70.3941C13.0257 70.3153 13.1782 70.2949 13.3205 70.3382L31.7984 75.968C31.9687 76.0188 32.1009 76.1586 32.1441 76.3314C32.1898 76.5042 32.139 76.6872 32.0145 76.8143C27.3581 81.5444 23.6473 83.8039 20.4804 83.8039ZM13.0155 75.1216C14.6981 79.5873 16.8331 82.1264 19.3621 82.6678C22.3155 83.2981 25.9272 81.3995 30.6903 76.6974L13.5848 71.4845L13.0155 75.1216Z" fill="#000072"/>
<path d="M31.6512 76.9665C31.6377 76.9665 31.6241 76.9657 31.6105 76.964C31.331 76.9411 31.12 76.6971 31.1429 76.415L31.4835 72.0916C31.4962 71.9213 31.3767 71.8527 31.3233 71.8298C31.27 71.8069 31.1352 71.7714 31.0234 71.9035L27.9429 75.5381C27.7625 75.7516 27.4397 75.7796 27.2236 75.5966C27.0101 75.4136 26.9822 75.0933 27.1652 74.8773L30.2457 71.2427C30.6117 70.8106 31.1861 70.6708 31.7122 70.8869C32.2358 71.1029 32.5433 71.6061 32.5001 72.1704L32.1595 76.4963C32.1392 76.7632 31.9155 76.9665 31.6512 76.9665Z" fill="#000072"/>
<g opacity="0.3">
<path d="M12.9346 43.3149L13.2726 44.8399C13.4277 45.544 13.9029 46.1311 14.5562 46.4336L18.4347 48.2229L18.8516 44.7815L12.9346 43.3149Z" fill="#000072"/>
</g>
<g opacity="0.3">
<path d="M43.0911 50.3324L42.8217 51.2499C42.7437 51.5109 42.6336 51.7498 42.4912 51.9667L37.5274 50.8687C37.5104 50.7433 37.502 50.6154 37.502 50.4849V49.1099L43.0911 50.3324Z" fill="#000072"/>
</g>
<g opacity="0.3">
<path d="M13.519 58.9155L17.3392 62.667V71.8551L13.519 70.3251V58.9155Z" fill="#000072"/>
</g>
<g opacity="0.3">
<path d="M50.4263 55.2989L50.0476 56.0945L47.755 51.095L30.4488 47.3155L29.333 46.8148L30.5988 46.1184C31.008 45.8922 31.4833 45.8109 31.9433 45.8897L47.239 48.4644C47.9863 48.5889 48.6243 49.0744 48.947 49.7606L50.4314 52.925C50.7847 53.6773 50.7821 54.5491 50.4263 55.2989Z" fill="#000072"/>
</g>
<path d="M23.6372 98.266C25.4876 97.9788 27.3379 97.9076 29.1882 97.872C31.0386 97.8339 32.8915 97.8542 34.7418 97.8746L37.5173 97.8924L40.2953 97.8949H45.8463H68.0579H90.267H101.374L104.15 97.8924L105.537 97.8797L106.925 97.8568C107.85 97.8449 108.776 97.8627 109.703 97.9102C110.166 97.9356 110.628 97.9762 111.091 98.0322C111.553 98.0906 112.016 98.1567 112.479 98.266C112.58 98.2914 112.644 98.3931 112.621 98.4973C112.603 98.5684 112.547 98.6218 112.479 98.6396C112.016 98.7464 111.553 98.815 111.091 98.8734C110.628 98.9294 110.166 98.97 109.703 98.9954C108.776 99.0429 107.85 99.0607 106.925 99.0488L105.537 99.0259L104.15 99.0107H101.374H90.267H68.0579H45.8463H40.2953H37.5173L34.7418 99.0285C32.8915 99.0514 31.0386 99.0717 29.1882 99.031C27.3379 98.9954 25.4876 98.9268 23.6372 98.6396C23.533 98.6218 23.4644 98.5252 23.4797 98.4236C23.4924 98.3397 23.5584 98.2787 23.6372 98.266Z" fill="#000072"/>
<path d="M85.7834 98.3064C83.8772 98.3064 82.3369 96.7687 82.3369 94.8624C82.3369 92.9562 83.8772 91.4185 85.7834 91.4185C87.6871 91.4185 89.2274 92.9562 89.2274 94.8624C89.2274 96.7687 87.6871 98.3064 85.7834 98.3064Z" fill="#BECAD8"/>
<path d="M85.7836 98.3875C83.8341 98.3875 82.2583 96.8117 82.2583 94.8622C82.2583 92.9128 83.8341 91.3369 85.7836 91.3369C87.733 91.3369 89.3063 92.9128 89.3063 94.8622C89.3063 96.8117 87.733 98.3875 85.7836 98.3875ZM85.7836 98.2274C83.9205 98.2274 82.4184 96.7227 82.4184 94.8622C82.4184 93.0017 83.9205 91.497 85.7836 91.497C87.6441 91.497 89.1488 93.0017 89.1488 94.8622C89.1488 96.7227 87.6441 98.2274 85.7836 98.2274Z" fill="#000072"/>
<path d="M85.7836 96.6541C84.7923 96.6541 83.9917 95.8534 83.9917 94.8622C83.9917 93.8709 84.7923 93.0703 85.7836 93.0703C86.7723 93.0703 87.5755 93.8709 87.5755 94.8622C87.5755 95.8534 86.7723 96.6541 85.7836 96.6541Z" fill="#A6B1BC"/>
<g opacity="0.55">
<path d="M87.5755 95.076C87.5755 96.0647 86.7724 96.8679 85.7837 96.8679C84.7924 96.8679 83.9893 96.0647 83.9893 95.076C83.991 95.0404 83.9926 95.0048 83.9943 94.9692C84.0477 95.9097 84.828 96.6544 85.7837 96.6544C86.7368 96.6544 87.5171 95.9097 87.573 94.9692C87.5747 95.0048 87.5755 95.0404 87.5755 95.076Z" fill="white"/>
</g>
<g opacity="0.3">
<path d="M87.5755 94.8622C87.5755 94.9554 87.5688 95.0469 87.5552 95.1367C87.4205 94.2776 86.6783 93.6219 85.7837 93.6219C84.8865 93.6219 84.1443 94.2776 84.0121 95.1367C83.9969 95.0469 83.9893 94.9554 83.9893 94.8622C83.9893 93.8735 84.7924 93.0703 85.7837 93.0703C86.7724 93.0703 87.5755 93.8735 87.5755 94.8622Z" fill="#000072"/>
</g>
<path d="M85.7838 95.8054C85.2627 95.8054 84.8408 95.3834 84.8408 94.8624C84.8408 94.3414 85.2627 93.9194 85.7838 93.9194C86.3048 93.9194 86.7242 94.3414 86.7242 94.8624C86.7242 95.3834 86.3048 95.8054 85.7838 95.8054Z" fill="#000072"/>
<g opacity="0.3">
<path d="M86.7242 95.2866C86.7242 95.8077 86.3048 96.2296 85.7838 96.2296C85.2627 96.2296 84.8408 95.8077 84.8408 95.2866C84.8408 95.2138 84.8493 95.1435 84.8662 95.0757C84.9603 95.4925 85.3365 95.8051 85.7838 95.8051C86.2311 95.8051 86.6047 95.4925 86.7013 95.0757C86.7166 95.1435 86.7242 95.2138 86.7242 95.2866Z" fill="#000072"/>
</g>
<g opacity="0.55">
<path d="M86.2869 94.7173C86.2869 94.736 86.2852 94.7546 86.2818 94.7732C86.2488 94.5648 86.0378 94.4072 85.7836 94.4072C85.5269 94.4072 85.316 94.5648 85.2829 94.7732C85.2795 94.7546 85.2778 94.736 85.2778 94.7173C85.2778 94.4835 85.504 94.2954 85.7836 94.2954C86.0607 94.2954 86.2869 94.4835 86.2869 94.7173Z" fill="white"/>
</g>
<path d="M85.7837 98.7867C83.6131 98.7867 81.8594 97.0329 81.8594 94.8623C81.8594 92.6917 83.6131 90.938 85.7837 90.938C87.9518 90.938 89.7055 92.6917 89.7055 94.8623C89.7055 97.0329 87.9518 98.7867 85.7837 98.7867ZM85.7837 97.8284C84.1418 97.8284 82.815 96.5017 82.815 94.8623C82.815 93.2229 84.1418 91.8962 85.7837 91.8962C87.4231 91.8962 88.7498 93.2229 88.7498 94.8623C88.7498 96.5017 87.4231 97.8284 85.7837 97.8284Z" fill="#000072"/>
<g opacity="0.55">
<path d="M98.6801 91.1619C98.6801 91.1992 98.6784 91.2357 98.675 91.2712C98.6165 90.6765 98.0853 90.2114 97.4423 90.2114C96.7992 90.2114 96.2706 90.6765 96.2121 91.2712C96.2087 91.2357 96.207 91.1992 96.207 91.1619C96.207 90.5138 96.7611 89.9902 97.4423 89.9902C98.126 89.9902 98.6801 90.5138 98.6801 91.1619Z" fill="white"/>
</g>
<defs>
<linearGradient id="paint0_linear_1_30069" x1="79.6797" y1="43.1792" x2="88.2189" y2="56.4013" gradientUnits="userSpaceOnUse">
<stop stop-color="white"/>
<stop offset="1" stop-color="white"/>
</linearGradient>
<linearGradient id="paint1_linear_1_30069" x1="71.4288" y1="47.6238" x2="80.179" y2="61.1726" gradientUnits="userSpaceOnUse">
<stop stop-color="white"/>
<stop offset="1" stop-color="white"/>
</linearGradient>
<linearGradient id="paint2_linear_1_30069" x1="82.8172" y1="40.3279" x2="92.2561" y2="53.4958" gradientUnits="userSpaceOnUse">
<stop stop-color="white"/>
<stop offset="1" stop-color="white"/>
</linearGradient>
<linearGradient id="paint3_linear_1_30069" x1="84.5545" y1="39.2605" x2="94.0432" y2="52.4978" gradientUnits="userSpaceOnUse">
<stop stop-color="white"/>
<stop offset="1" stop-color="white"/>
</linearGradient>
</defs>
</svg>
