<svg width="124" height="124" viewBox="0 0 124 124" fill="none" xmlns="http://www.w3.org/2000/svg">
<g clip-path="url(#clip0_1_29946)">
<path d="M42.4826 103.584C41.7335 104.532 41.2995 106.046 40.8009 107.154C40.7337 107.304 40.6648 107.446 40.5942 107.578C40.2816 108.162 39.9251 108.557 39.4446 108.557C38.0496 108.557 37.0215 107.896 35.8461 105.375C34.6681 102.853 34.3012 97.609 35.2571 96.2115C35.3259 96.1116 35.4095 96.0212 35.5076 95.9402C35.8564 95.6457 36.3731 95.4649 36.9388 95.3538C38.4294 95.0567 40.261 95.2556 40.261 95.2556C40.7079 100.621 42.4826 103.584 42.4826 103.584Z" fill="#7CD6E8"/>
<g opacity="0.2">
<path d="M42.4828 103.584C41.7336 104.532 41.2996 106.046 40.8011 107.154C37.0707 104.158 35.885 98.9395 35.5078 95.9402C35.8566 95.6457 36.3732 95.4649 36.939 95.3538C38.4296 95.0567 40.2611 95.2556 40.2611 95.2556C40.7081 100.621 42.4828 103.584 42.4828 103.584Z" fill="#21003B"/>
</g>
<path d="M40.5942 107.578C40.2816 108.162 39.9251 108.557 39.4446 108.557C38.0496 108.557 37.0215 107.896 35.8461 105.374C34.6681 102.853 34.3012 97.6088 35.2571 96.2112C35.5696 95.7539 36.2155 95.4956 36.9388 95.3535C36.8639 97.7638 36.3266 100.055 37.6828 103.824C38.5534 106.25 39.6436 106.723 40.5942 107.578Z" fill="white"/>
<path d="M64.0563 107.681C64.0434 108.374 63.6378 108.996 63.0101 109.278C61.9819 109.738 60.1581 110.311 57.8641 110.001C55.3014 109.655 52.0025 110.265 50.2897 110.65C49.5199 110.823 48.7346 110.464 48.3574 109.771C48.1559 109.404 47.9725 109.007 47.8098 108.604C46.8617 106.268 46.5 103.584 46.5 103.584C52.2789 99.8616 57.2777 100.058 57.2777 100.058C57.8408 102.088 59.334 102.897 59.334 102.897C61.1966 103.055 62.341 103.7 63.0333 104.512C63.5268 105.085 63.7928 105.741 63.9298 106.364C64.0331 106.842 64.0615 107.296 64.0563 107.681Z" fill="#7CD6E8"/>
<g opacity="0.2">
<path d="M64.0563 107.681C64.0434 108.373 63.6378 108.996 63.0101 109.278C61.9819 109.737 60.1581 110.311 57.8641 110.001C55.3014 109.655 52.0025 110.264 50.2897 110.649C49.5199 110.822 48.7346 110.463 48.3574 109.771C48.1559 109.404 47.9725 109.006 47.8098 108.603C46.8617 106.268 46.5 103.584 46.5 103.584C46.5 103.584 48.1172 103.388 49.2926 104.759C50.468 106.131 51.9379 106.351 53.847 105.764C55.7587 105.175 62.4495 106.643 63.0333 104.511C63.5268 105.085 63.7928 105.741 63.9298 106.364C64.0331 106.842 64.0615 107.296 64.0563 107.681Z" fill="#21003B"/>
</g>
<path d="M64.0562 107.681C64.0432 108.374 63.6377 108.996 63.0099 109.278C61.9817 109.738 60.1579 110.311 57.8639 110.001C55.3012 109.655 52.0023 110.265 50.2896 110.65C49.5197 110.823 48.7344 110.464 48.3572 109.771C48.1557 109.404 47.9723 109.007 47.8096 108.604C48.5458 108.616 49.5017 108.503 50.6874 108.115C54.069 107.012 55.9316 106.961 58.7707 107.307C60.5738 107.526 62.7464 107.736 63.9296 106.364C64.0329 106.842 64.0613 107.296 64.0562 107.681Z" fill="white"/>
<path d="M61.0209 82.1321C60.6773 85.1391 59.5045 90.8509 55.5132 95.2555C55.5132 95.2555 55.7277 95.6352 56.0196 96.2785C56.4122 97.1413 56.9392 98.4872 57.2777 100.058C57.2777 100.058 50.4189 100.35 46.5 103.584L45.8128 102.897L42.4829 103.584C42.4829 103.584 40.4266 100.644 40.2302 94.5709C40.2302 94.5709 30.9225 86.7331 32.2942 77.3271L61.163 80.0707C61.163 80.0707 61.1656 80.8586 61.0209 82.1321Z" fill="#403E7A"/>
<g opacity="0.2">
<path d="M46.5 92.8323C46.5 92.8323 44.0071 93.2353 41.8629 91.5949C42.7154 92.295 45.2755 94.4417 46.6576 96.139C48.3367 98.1953 54.5342 99.6652 55.5132 96.139C55.5132 96.139 55.7122 96.1881 56.0196 96.2785C56.4122 97.1413 56.9392 98.4872 57.2777 100.058C57.2777 100.058 50.4189 100.35 46.5 103.584L45.8128 102.897L42.4829 103.584C42.4829 103.584 40.4266 100.644 40.2302 94.5709C40.2302 94.5709 30.9225 86.7331 32.2942 77.3271L61.163 80.0707C61.163 80.0707 61.1656 80.8586 61.0209 82.1321C58.7269 82.8271 54.7408 85.0151 53.7953 91.8429C53.7953 91.8429 51.4342 87.2265 49.4088 86.0252C49.4088 86.0252 46.1822 80.1197 43.0693 81.3701C39.959 82.6178 40.548 90.2593 46.5 92.8323Z" fill="#21003B"/>
</g>
<path d="M72.7337 85.6584C72.0129 87.6502 70.8659 88.5156 70.4061 88.3864C70.1323 88.3089 70.0496 87.4978 70.0264 87.0069C70.0212 86.9501 69.9437 86.9398 69.9256 86.994C69.613 87.8956 68.621 89.2854 68.4893 87.6605L68.0527 82.716C68.0527 82.716 66.9754 86.1441 65.7148 85.5577C64.4541 84.9687 65.7148 81.2461 65.7148 81.2461C63.0824 79.678 62.0542 76.1363 62.0542 76.1363L62.6639 73.3101C66.2909 71.4501 70.7239 71.7394 70.7239 71.7394C70.7239 71.7394 71.0674 72.3362 71.5066 73.3592C72.2325 75.0513 73.2219 77.911 73.3434 81.1479C73.4157 83.0312 73.1444 84.5269 72.7337 85.6584Z" fill="#FFC8AB"/>
<g opacity="0.2">
<path d="M72.7337 85.6584C72.0129 87.6502 70.8659 88.5156 70.4061 88.3864C70.1323 88.3089 70.0496 87.4978 70.0264 87.0069C70.0212 86.9501 69.9437 86.9398 69.9256 86.994C69.613 87.8956 68.621 89.2854 68.4893 87.6605L68.0527 82.716C68.0527 82.716 66.9754 86.1441 65.7148 85.5577C64.4541 84.9687 65.7148 81.2461 65.7148 81.2461C63.0824 79.678 62.0542 76.1363 62.0542 76.1363L62.6639 73.3101C66.2909 71.4501 70.7239 71.7394 70.7239 71.7394C70.7239 71.7394 71.0674 72.3362 71.5066 73.3592C70.0987 73.4832 66.9522 73.9223 65.3841 75.3974C65.3841 75.3974 65.3479 77.6217 67.0194 79.3861C67.0194 79.3861 66.2805 82.4112 67.0194 82.9614C67.567 83.3696 67.8693 82.2872 68.0449 81.5406C68.0837 81.3753 68.3033 81.3365 68.3963 81.4786C68.6727 81.9023 69.2694 83.7752 69.6027 85.0772C69.6699 85.3407 70.0522 85.3071 70.0729 85.0359C70.1504 84.0258 70.1581 82.6747 70.2124 82.5817C70.388 82.2872 70.7678 84.1523 70.9744 85.2709C71.0209 85.5344 71.3981 85.5319 71.4446 85.2684C71.6125 84.3022 71.6694 82.8013 71.6719 82.7289C71.6771 82.4499 72.4469 83.956 72.7337 85.6584Z" fill="#21003B"/>
</g>
<path d="M61.4058 76.1595C61.5918 75.1649 61.7778 74.1626 61.9844 73.1654C62.0283 72.9536 62.1678 72.7831 62.3487 72.6927C63.6455 72.0262 65.0379 71.5767 66.4639 71.308C67.5231 71.1065 68.5952 71.0006 69.6724 70.9748C70.0367 70.9644 70.3803 70.9644 70.7729 70.9825C71.0364 70.9954 71.2612 71.1453 71.38 71.3623C73.8445 75.8263 75.813 84.4778 71.7184 88.4846C71.2999 88.8773 70.5094 89.2906 69.9566 88.8127C69.4709 88.3012 69.7267 87.707 69.7706 87.1335L69.7861 87.0198C69.7861 87.1361 69.9514 87.2472 70.0703 87.1697C70.1348 87.1387 70.1684 87.0379 70.1529 87.0922L70.1426 87.1516L70.1193 87.2653C69.9411 87.8853 69.7964 88.6318 69.1532 88.9496C68.4195 89.2415 67.9364 88.5673 67.8667 87.9524C67.7995 87.4538 67.7401 86.7098 67.6833 86.2009L67.3397 82.778L68.7373 82.9304C68.4867 83.6925 68.2128 84.3668 67.7969 85.0565C67.3784 85.7101 66.8359 86.3921 65.9214 86.3637C65.2549 86.3533 64.6556 85.7178 64.529 85.1366C64.2035 83.7183 64.6143 82.3518 65.0147 81.0084L65.3376 81.8816C63.4104 80.6803 62.1911 78.6447 61.4962 76.5367C61.4626 76.4178 61.4161 76.2938 61.4058 76.1595ZM62.7052 76.113C62.7069 76.0872 62.7052 76.0613 62.7 76.0355C62.6974 76.0148 62.6845 75.9709 62.6923 75.9916L62.7052 76.0329L62.7362 76.1182C63.2451 77.446 63.9658 78.7403 64.9785 79.74C65.3221 80.0784 65.6967 80.3652 66.0919 80.6132C66.3916 80.7992 66.5156 81.1608 66.4148 81.4838C66.2159 82.1063 66.0506 82.7935 65.9576 83.4342C65.9008 83.9147 65.8258 84.5063 66.0299 84.8834C66.0248 84.8783 66.0196 84.8834 66.0144 84.8808C66.6422 84.4365 67.0762 83.3024 67.3681 82.5016C67.4869 82.1141 67.9028 81.8971 68.2878 82.0288C68.5668 82.1244 68.7476 82.3776 68.7683 82.654L69.0266 86.0847C69.0473 86.3559 69.1015 87.1077 69.1222 87.3712C69.1273 87.459 69.1428 87.676 69.1558 87.7587C69.1635 87.8568 69.1971 87.955 69.179 87.9343C69.1041 87.8413 68.9026 87.769 68.7915 87.8129C68.7605 87.8284 68.7476 87.8258 68.7373 87.8465C68.7347 87.862 68.7657 87.8568 68.8044 87.8388C69.1583 87.6553 69.4451 87.3118 69.6595 86.9708C69.6931 86.9113 69.675 86.9578 69.7138 86.8726C69.8558 86.6143 70.2511 86.7202 70.264 86.9966C70.3441 87.3169 70.4965 87.7303 70.7264 87.9473C70.7497 87.9705 70.7884 87.9653 70.7187 87.8801C70.6722 87.8336 70.6076 87.8078 70.5508 87.7819C70.4345 87.7509 70.4965 87.7638 70.6102 87.6889C71.4963 87.0534 71.9716 85.8883 72.2687 84.8369C73.2865 80.6752 72.0052 75.8805 70.0677 72.1166L70.6748 72.4938C68.7114 72.4188 66.6861 72.6513 64.8028 73.2145C64.1699 73.3979 63.5706 73.6537 62.9816 73.9301L63.3433 73.4573C63.1469 74.3408 62.9273 75.2243 62.7052 76.113Z" fill="#21003B"/>
<path d="M70.6462 87.7533C71.2636 86.9757 71.4031 85.8675 71.4057 84.8884C71.4057 84.6843 71.7054 84.6481 71.7544 84.8419C72.0954 86.0044 72.2349 87.3167 71.7338 88.4611C71.2507 89.1664 70.1967 88.4818 70.6462 87.7533Z" fill="#21003B"/>
<path d="M69.7292 86.9218C69.9617 86.2037 70.0599 85.4054 69.9591 84.6511C69.9488 84.5607 70.0134 84.4754 70.1064 84.4651C70.1917 84.4547 70.2691 84.5116 70.2898 84.5917C70.3389 84.7958 70.3828 85.0024 70.4035 85.2091C70.4758 85.842 70.4474 86.4646 70.3182 87.0923C70.2821 87.2577 70.1193 87.3636 69.954 87.3274C69.7732 87.2913 69.6647 87.0949 69.7292 86.9218Z" fill="#21003B"/>
<path d="M71.372 71.8401C71.372 71.8401 66.9752 70.861 62.6636 73.31C62.6636 73.31 62.5112 73.7724 62.3407 74.5345C62.0617 75.7926 61.7336 77.8747 61.979 80.0706L38.2692 77.9161L42.5059 71.7807L43.069 70.9592C43.069 70.9592 37.1919 69.5874 32.2939 65.4722C32.2939 65.4722 32.6375 64.6248 33.3841 63.3461C34.4252 61.5739 36.2542 58.9802 39.0339 56.7069C39.4283 56.3814 39.8424 56.0654 40.2764 55.7588C40.9653 55.2714 41.6973 54.8633 42.4723 54.5343C42.7616 54.4103 43.057 54.2992 43.3584 54.2011C46.0554 53.3072 51.6999 52.0517 59.2355 53.6663C61.8085 54.2192 63.8339 55.3377 65.4071 56.7017C68.9644 59.7837 70.2095 64.1082 70.2095 65.9113C70.2095 66.5339 70.2741 67.2004 70.3774 67.8514C70.5376 68.8822 70.7856 69.8767 70.9949 70.6156C71.2041 71.357 71.372 71.8401 71.372 71.8401Z" fill="#816AC7"/>
<path d="M46.8588 67.9214C46.8588 67.9214 53.9681 72.4991 63.6453 70.2851C63.6453 70.2851 62.3588 73.2534 62.3045 74.979C62.3045 74.979 51.5449 77.1 42.5059 71.7809L43.069 70.9594H44.2961L46.8588 67.9214Z" fill="#7CD6E8"/>
<g opacity="0.2">
<path d="M71.372 71.8401C71.372 71.8401 66.9752 70.861 62.6636 73.31C62.6636 73.31 62.5112 73.7724 62.3407 74.5345C62.0617 75.7926 61.7336 77.8747 61.979 80.0706L38.2692 77.9161L42.5059 71.7807L43.069 70.9592C43.069 70.9592 37.1919 69.5874 32.2939 65.4722C32.2939 65.4722 32.6375 64.6248 33.3841 63.3461C34.4252 61.5739 36.2542 58.9802 39.0339 56.7069C38.9357 56.8774 36.4221 61.3001 39.6668 64.6145C40.8809 65.8571 41.6559 65.9294 42.1494 65.5238C42.8339 64.9607 43.8259 64.9994 44.4924 65.5832C45.3191 66.3117 46.5875 66.6605 48.5069 65.7434C48.5069 65.7434 48.7033 71.5972 52.0099 72.6254C52.0099 72.6254 49.5119 72.5996 47.0861 70.9592C47.0861 70.9592 48.2641 76.0044 54.2135 76.3712C60.0622 76.7329 61.6535 70.086 61.7078 69.8561C61.6484 69.9749 60.5737 72.0777 56.9338 71.6592C56.9338 71.6592 61.731 70.3366 62.568 67.482C52.2838 65.9165 43.9215 60.4502 42.4723 54.5343C42.7616 54.4103 43.057 54.2992 43.3584 54.2011C46.0554 53.3072 51.6999 52.0517 59.2355 53.6663C61.8085 54.2192 63.8339 55.3377 65.4071 56.7017C65.5173 56.7982 65.625 56.8946 65.73 56.9911C65.7317 56.9928 65.7326 56.9937 65.7326 56.9937C65.8291 57.0832 65.9229 57.1728 66.0142 57.2623C66.2329 57.4759 66.4413 57.6937 66.6394 57.9159C66.7237 58.0089 66.8047 58.1019 66.8822 58.1949C66.8994 58.2156 66.9166 58.2354 66.9339 58.2543C67.0148 58.349 67.0932 58.4446 67.1689 58.5411C67.3429 58.7581 67.5074 58.9759 67.6624 59.1947C67.7313 59.2928 67.7993 59.391 67.8664 59.4892C67.9508 59.6149 68.0326 59.7415 68.1119 59.8689C68.1635 59.9481 68.2135 60.0282 68.2617 60.1092C68.3409 60.24 68.4176 60.3709 68.4916 60.5018C68.5519 60.6086 68.6104 60.7154 68.6673 60.8222C68.7241 60.9272 68.7792 61.0323 68.8326 61.1373C68.8343 61.1408 68.8369 61.1451 68.8404 61.1502C68.8937 61.2553 68.9454 61.3612 68.9954 61.468C69.0367 61.5575 69.078 61.6471 69.1194 61.7367C69.202 61.9209 69.2795 62.1026 69.3519 62.2817C69.3829 62.3558 69.4121 62.4299 69.4397 62.5039C69.5069 62.6779 69.5689 62.8501 69.6257 63.0206C69.655 63.1032 69.6834 63.185 69.7109 63.266C69.7213 63.3004 69.7316 63.334 69.7419 63.3667C69.7833 63.4994 69.8212 63.6285 69.8556 63.7542C70.0442 64.4285 70.1527 65.0278 70.1914 65.5109C70.1949 65.5522 70.1975 65.5919 70.1992 65.6297C70.2061 65.7296 70.2095 65.8235 70.2095 65.9113C70.2095 66.5339 70.2741 67.2004 70.3774 67.8514C70.5376 68.8822 70.7856 69.8767 70.9949 70.6156C71.2041 71.357 71.372 71.8401 71.372 71.8401Z" fill="#21003B"/>
</g>
<path d="M45.0789 70.0319L44.2961 70.9593H43.069C43.069 70.9593 37.1919 69.5875 32.2939 65.4723C32.2939 65.4723 32.6375 64.6249 33.3841 63.3462C33.3841 63.3462 41.3795 68.9804 45.0789 70.0319Z" fill="#7CD6E8"/>
<path d="M71.3725 71.8401C71.3725 71.8401 66.9756 70.8611 62.6641 73.3101C62.6641 73.3101 62.7726 72.6901 63.0981 71.7136C63.3176 71.5379 67.3063 68.4508 70.9953 70.6156C71.2046 71.3571 71.3725 71.8401 71.3725 71.8401Z" fill="#7CD6E8"/>
<path d="M61.9792 80.7189C61.9602 80.7189 61.9404 80.7181 61.9197 80.7164L38.2099 78.5619C37.9826 78.5412 37.7785 78.3991 37.6829 78.1899C37.5847 77.9806 37.6054 77.7352 37.7346 77.5466L42.0177 71.344C40.15 70.786 35.7454 69.2205 31.8756 65.9707C31.6612 65.7899 31.5862 65.4902 31.6922 65.2293C31.7051 65.1931 32.0616 64.3225 32.8262 63.0179C34.0998 60.8454 36.3628 57.7324 39.902 55.2292C40.9043 54.5188 41.9997 53.9659 43.1544 53.5836C45.9134 52.6691 51.6923 51.3852 59.3726 53.0334C68.1352 54.9114 70.8581 63.1316 70.8581 65.9113C70.8581 67.5078 71.336 69.4324 71.6202 70.4399C71.8217 71.1503 71.9844 71.623 71.987 71.6282C72.0619 71.8504 72.0128 72.0984 71.8578 72.274C71.7002 72.4497 71.46 72.5272 71.2301 72.4755C71.15 72.4574 67.1484 71.6282 63.2088 73.7517C63.152 73.9506 63.0667 74.2684 62.9737 74.6765C62.687 75.9656 62.3951 77.9341 62.625 79.9982C62.6457 80.1919 62.5785 80.3857 62.4416 80.5252C62.3202 80.6492 62.1522 80.7189 61.9792 80.7189ZM39.437 77.3684L61.2687 79.3549C61.1577 77.4097 61.4341 75.6143 61.7053 74.3949C61.8836 73.607 62.0412 73.1265 62.0489 73.1059C62.098 72.9534 62.2039 72.8243 62.3434 72.7468C65.5752 70.91 68.8172 70.8997 70.4447 71.0521C70.4206 70.9712 70.3957 70.8851 70.3698 70.7938C70.0004 69.484 69.5587 67.5749 69.5587 65.9113C69.5587 63.4106 67.0812 56.0145 59.0987 54.3018C51.7182 52.7182 46.1976 53.9453 43.5626 54.8159C42.5292 55.1569 41.5502 55.6529 40.6512 56.2884C37.3006 58.6599 35.1564 61.6126 33.9448 63.6741C33.5418 64.3639 33.2577 64.927 33.0897 65.2861C37.7268 69.0087 43.1622 70.3133 43.219 70.3262C43.4282 70.3753 43.5987 70.5251 43.6762 70.724C43.7537 70.9255 43.7279 71.1503 43.6039 71.3285L39.437 77.3684Z" fill="#21003B"/>
<path d="M42.4825 104.233C42.2733 104.233 42.0744 104.132 41.9504 103.956C41.8625 103.832 39.8424 100.882 39.5918 94.8757C38.1322 93.5763 30.346 86.1777 31.6506 77.2342C31.6997 76.8906 32.0123 76.6477 32.3559 76.6813L61.2246 79.4248C61.5553 79.4558 61.811 79.7348 61.811 80.0681C61.8136 80.4349 61.78 88.9961 56.2956 95.3511C56.6779 96.1028 57.4581 97.8078 57.9102 99.921C57.9515 100.107 57.9076 100.303 57.7888 100.453C57.6725 100.606 57.4943 100.699 57.3031 100.706C57.2385 100.709 50.6149 101.032 46.9129 104.085C46.6546 104.297 46.2774 104.279 46.0398 104.044L45.6006 103.605L42.6143 104.22C42.5695 104.228 42.5256 104.233 42.4825 104.233ZM32.8622 78.0324C32.0355 86.7124 40.5579 94 40.6484 94.0749C40.7879 94.1937 40.8731 94.3668 40.8783 94.5502C41.0281 99.1951 42.2914 101.931 42.8003 102.856L45.6833 102.261C45.8977 102.218 46.1173 102.285 46.2723 102.44L46.5539 102.719C49.8424 100.303 54.6035 99.6394 56.4687 99.4663C55.8771 97.2188 54.96 95.5965 54.9497 95.5784C54.8102 95.3356 54.8438 95.0282 55.0324 94.8215C59.6514 89.7246 60.3773 82.7134 60.4909 80.6597L32.8622 78.0324Z" fill="#21003B"/>
<path d="M43.0695 70.959L38.2697 77.9159C38.2697 77.9159 37.2906 79.3858 37.1925 80.9513C37.0943 82.5194 37.3888 85.3611 36.017 85.5574C34.6453 85.7537 34.5471 82.6175 34.5471 82.6175C34.5471 82.6175 33.2735 86.6346 33.2735 88.1045C33.2735 88.1045 32.6535 88.833 32.2066 87.3941C32.1877 87.3407 32.1705 87.2839 32.155 87.2236C32.155 87.2236 30.53 87.5052 29.7473 83.1006C29.0808 79.3574 30.561 72.6743 32.0542 68.1044C32.3151 67.2984 32.5786 66.5595 32.8318 65.9111C32.8318 65.9111 36.3115 69.0964 43.0695 70.959Z" fill="#FFC8AB"/>
<g opacity="0.2">
<path d="M43.069 70.959L38.2692 77.9159C38.2692 77.9159 37.2901 79.3858 37.192 80.9513C37.0938 82.5194 37.3883 85.3611 36.0165 85.5574C34.6448 85.7537 34.5466 82.6175 34.5466 82.6175C34.5466 82.6175 33.273 86.6346 33.273 88.1045C33.273 88.1045 32.653 88.833 32.2061 87.3941C32.1286 84.1495 33.7716 79.7526 34.3012 79.7526C34.8902 79.7526 35.4766 80.6336 35.4766 80.6336C35.7272 79.2954 36.5255 76.7482 37.1661 74.7978C37.613 73.4364 37.0757 71.9277 35.8409 71.2018C34.2185 70.2511 32.8675 68.9672 32.0537 68.1044C32.3146 67.2984 32.5781 66.5595 32.8313 65.9111C32.8313 65.9111 36.311 69.0964 43.069 70.959Z" fill="#21003B"/>
</g>
<path d="M32.9039 88.9393C32.8316 88.9393 32.7575 88.9307 32.6817 88.9135C32.1237 88.7869 31.824 88.2444 31.6639 87.8207C30.9147 87.6089 29.7264 86.7022 29.1064 83.2172C28.303 78.699 30.4471 70.2386 32.227 65.6764C32.3071 65.4749 32.4776 65.3277 32.6869 65.2786C32.8961 65.2321 33.1131 65.2889 33.2707 65.4336C33.3043 65.462 36.735 68.5413 43.2424 70.3342C43.4465 70.3884 43.6092 70.5408 43.6815 70.7372C43.7539 70.9335 43.7255 71.1556 43.604 71.3287L38.8094 78.2779C38.7603 78.3528 37.9233 79.66 37.8406 80.993C37.8225 81.2797 37.8174 81.6233 37.8148 81.985C37.7916 83.7571 37.7657 85.9633 36.1098 86.201C35.6913 86.2604 35.2986 86.1467 34.9731 85.8729C34.7716 85.7024 34.6063 85.4751 34.472 85.2219C34.18 86.3405 33.9217 87.503 33.9217 88.1049C33.9217 88.2599 33.8675 88.4072 33.7667 88.526C33.5936 88.7301 33.2759 88.9367 32.9039 88.9393ZM32.2219 86.5497C32.3175 86.5497 32.4105 86.5807 32.5112 86.6324C32.6378 86.6996 32.705 86.8158 32.7515 86.9476C33.0563 85.1987 33.821 82.7574 33.9269 82.4216C34.0251 82.1193 34.3221 81.9307 34.6373 81.9747C34.9499 82.0186 35.185 82.2821 35.1953 82.5972C35.2211 83.3309 35.4304 84.5606 35.8075 84.8783C35.8566 84.9197 35.8825 84.9197 35.9238 84.9145C36.4792 84.8344 36.5025 82.9718 36.5154 81.9695C36.5206 81.5897 36.5231 81.2306 36.5438 80.9129C36.6523 79.1898 37.6856 77.6217 37.7296 77.5546C37.7313 77.5528 37.733 77.5503 37.7347 77.5468L42.0256 71.3313C37.386 69.926 34.41 67.9601 33.1235 66.9836C31.5115 71.4527 29.6799 79.0245 30.3851 82.9873C30.9535 86.1803 31.9171 86.5368 32.0746 86.573C32.1263 86.5575 32.1754 86.5497 32.2219 86.5497Z" fill="#21003B"/>
<path d="M45.8156 103.548C45.5599 103.548 45.317 103.398 45.2137 103.147C43.1445 98.1616 39.8249 95.0797 39.7913 95.0487C39.5278 94.8059 39.5097 94.3977 39.75 94.1316C39.9928 93.8681 40.4035 93.85 40.667 94.0903C40.8117 94.2246 44.2269 97.384 46.415 102.649C46.5519 102.98 46.3943 103.359 46.0636 103.499C45.981 103.532 45.8983 103.548 45.8156 103.548Z" fill="#21003B"/>
<path d="M54.9111 95.5009C53.7771 92.7187 52.2555 90.0191 50.3593 87.676C49.7238 86.8933 49.0211 86.1699 48.2746 85.4931C48.1196 85.3613 48.1015 85.1237 48.241 84.9713C48.3701 84.8266 48.5923 84.8137 48.7396 84.9351C50.3722 86.2629 51.7646 87.8542 52.9736 89.567C54.1852 91.2952 55.2315 93.0803 56.115 95.0101C56.2622 95.3382 56.1176 95.7231 55.7895 95.8703C55.4485 96.0279 55.0403 95.8548 54.9111 95.5009Z" fill="#21003B"/>
<path d="M49.9097 111.342C49.0417 111.342 48.215 110.867 47.7862 110.081C47.5864 109.716 47.3935 109.305 47.2075 108.846C46.2387 106.465 45.8719 103.783 45.8564 103.672C45.8228 103.421 45.9365 103.176 46.1483 103.039C52.0332 99.2493 57.0887 99.3991 57.3006 99.4095C57.5847 99.4198 57.825 99.611 57.9025 99.8822C58.3055 101.334 59.2329 102.057 59.5455 102.267C63.0459 102.613 64.2084 104.605 64.5623 106.224C64.6639 106.694 64.7113 107.184 64.7044 107.694C64.6863 108.635 64.1257 109.487 63.2758 109.869C62.0875 110.402 60.1707 110.967 57.7759 110.644C55.3269 110.314 52.1236 110.903 50.4315 111.285C50.2575 111.323 50.0836 111.342 49.9097 111.342ZM47.2075 103.904C47.3444 104.729 47.719 106.656 48.4113 108.358C48.5767 108.77 48.748 109.137 48.9254 109.459C49.1657 109.895 49.6668 110.125 50.1473 110.017C51.9221 109.616 55.2985 108.999 57.9516 109.358C60.0415 109.642 61.7103 109.149 62.7437 108.684C63.1389 108.508 63.3972 108.11 63.405 107.671C63.4119 107.263 63.3749 106.874 63.2939 106.503C62.9064 104.731 61.5553 103.734 59.2794 103.545C59.1881 103.537 59.1029 103.511 59.0237 103.468C58.9591 103.434 57.5202 102.633 56.8072 100.714C55.5232 100.771 51.6147 101.176 47.2075 103.904Z" fill="#21003B"/>
<path d="M59.2746 103.545C57.0607 103.38 54.8519 104.08 52.8679 105.023C52.7155 105.103 52.5244 105.041 52.452 104.881C52.3874 104.739 52.4417 104.574 52.5734 104.496C53.0824 104.194 53.5913 103.892 54.126 103.638C55.6864 102.884 57.3836 102.331 59.1274 102.251C59.2152 102.249 59.303 102.249 59.4141 102.254C59.7732 102.267 60.0522 102.572 60.0367 102.931C60.0238 103.321 59.6569 103.613 59.2746 103.545Z" fill="#21003B"/>
<path d="M39.4445 109.205C37.6258 109.205 36.4504 108.208 35.2569 105.648C34.0427 103.049 33.5622 97.539 34.7221 95.8443C35.1019 95.2863 35.7865 94.9169 36.8121 94.7154C38.3827 94.4029 40.2505 94.6018 40.3305 94.6095C40.638 94.6457 40.8808 94.8937 40.9066 95.2037C41.3329 100.329 43.0224 103.222 43.0405 103.251C43.1774 103.483 43.1593 103.775 42.9914 103.987C42.5238 104.579 42.1776 105.467 41.8418 106.328C41.6196 106.893 41.4104 107.428 41.1676 107.885C40.9919 108.211 40.4597 109.205 39.4445 109.205ZM38.8529 95.8392C38.2975 95.8392 37.649 95.8728 37.0652 95.989C36.1895 96.1621 35.8924 96.4308 35.7942 96.578C35.0399 97.6785 35.275 102.618 36.4323 105.1C37.6413 107.692 38.5481 107.906 39.4445 107.906C39.5969 107.906 39.8035 107.681 40.0231 107.273C40.2298 106.883 40.4261 106.384 40.6302 105.855C40.9454 105.049 41.2683 104.222 41.7178 103.535C41.2425 102.597 40.0851 99.9622 39.664 95.8624C39.4419 95.8495 39.1629 95.8392 38.8529 95.8392Z" fill="#21003B"/>
<path d="M47.8433 67.2441L44.7924 71.3774C44.671 71.5402 44.485 71.6177 44.2964 71.6074H43.0693C42.7128 71.6074 42.4209 71.318 42.4209 70.9589C42.4209 70.5999 42.7128 70.3105 43.0693 70.3105H44.2964L43.8004 70.5404L47.3602 66.8359C47.6315 66.5595 48.0706 66.9289 47.8433 67.2441Z" fill="#21003B"/>
<path d="M44.2964 71.3674H43.0719C43.0392 71.3674 43.0082 71.364 42.9789 71.3571C42.7335 71.3003 36.9468 69.9156 32.0308 65.7849C31.8964 65.6712 31.8499 65.4826 31.9145 65.3199C31.93 65.2837 32.2788 64.4286 33.0331 63.1395C33.0925 63.0414 33.1881 62.9716 33.2992 62.9458C33.4103 62.9225 33.5265 62.9458 33.6221 63.0129C33.6996 63.0672 41.5994 68.6188 45.1903 69.6392C45.3246 69.6754 45.4279 69.7787 45.4693 69.9104C45.5106 70.0448 45.4796 70.1869 45.3918 70.2928L44.6064 71.2228C44.5289 71.3132 44.4153 71.3674 44.2964 71.3674ZM43.121 70.5511H44.1053L44.3765 70.2308C40.9329 68.9934 35.0584 65.0021 33.5188 63.9352C33.1597 64.5733 32.922 65.0693 32.7903 65.3534C37.2853 69.0269 42.5863 70.4168 43.121 70.5511Z" fill="#21003B"/>
<path d="M42.3125 55.7974C45.2833 56.9831 47.4172 60.0831 47.6342 63.2554C47.6729 63.7049 47.6342 64.1674 47.6032 64.6143C47.4559 64.1854 47.3862 63.7489 47.2389 63.3252C46.3942 60.3802 44.6065 57.8279 42.3125 55.7974Z" fill="#21003B"/>
<path d="M65.0792 68.0659C64.1595 69.7193 63.6248 71.6025 63.3277 73.4599C63.1727 74.3486 61.8785 74.1652 61.9792 73.2662C62.2608 72.2406 62.6586 71.3003 63.103 70.3496C63.5344 69.4454 64.0459 68.5749 64.6581 67.7792C64.7434 67.6681 64.9035 67.6474 65.0146 67.7327C65.1205 67.8102 65.1438 67.9549 65.0792 68.0659Z" fill="#21003B"/>
<path d="M65.8643 59.8486C66.523 63.6926 63.4902 66.8546 59.0882 66.914C54.6836 66.9734 50.5813 63.9044 49.92 60.0604C49.2612 56.2164 52.294 53.0544 56.696 52.995C61.098 52.9356 65.203 56.0046 65.8643 59.8486Z" fill="#7CD6E8"/>
<path d="M63.7489 59.8769C64.232 62.7004 62.0051 65.0229 58.7708 65.0668C55.5365 65.1107 52.5217 62.8554 52.0361 60.0319C51.553 57.2083 53.7798 54.8859 57.0141 54.8419C60.2485 54.798 63.2632 57.0533 63.7489 59.8769Z" fill="#FFC8AB"/>
<path d="M58.9646 67.5648C54.3146 67.5648 49.9849 64.271 49.2822 60.1687C48.9567 58.2777 49.4347 56.4435 50.6307 55.0072C52.0102 53.3487 54.219 52.3773 56.6887 52.3463C56.7317 52.3446 56.7756 52.3438 56.8204 52.3438C61.4704 52.3438 65.8001 55.6375 66.5027 59.7373C66.8282 61.6308 66.3477 63.465 65.1517 64.9013C63.7747 66.5598 61.566 67.5286 59.0963 67.5622C59.0533 67.5639 59.0094 67.5648 58.9646 67.5648ZM56.8204 53.6432C56.7825 53.6432 56.7446 53.6432 56.7067 53.6432C54.6168 53.6716 52.7646 54.4698 51.6305 55.8364C50.6798 56.9783 50.3001 58.4378 50.561 59.9491C51.1629 63.4521 54.9165 66.2653 58.962 66.2653C59.0016 66.2653 59.0404 66.2653 59.0782 66.2653C61.1682 66.2369 63.0178 65.4387 64.1545 64.0721C65.1026 62.9303 65.4823 61.4707 65.224 59.9568C64.6221 56.4564 60.8659 53.6432 56.8204 53.6432Z" fill="#21003B"/>
<path d="M58.6806 65.3738C55.343 65.3738 52.2378 63.0178 51.7341 60.0832C51.5041 58.745 51.8452 57.4456 52.6899 56.4278C53.6716 55.2498 55.2448 54.56 57.0092 54.5368C57.042 54.535 57.0738 54.5342 57.1048 54.5342C60.4425 54.5342 63.5451 56.8902 64.0488 59.8248C64.2787 61.163 63.9403 62.4624 63.0956 63.4803C62.1139 64.6583 60.5381 65.348 58.7736 65.3713C58.7426 65.373 58.7116 65.3738 58.6806 65.3738ZM57.1048 55.1464C57.0773 55.1464 57.0488 55.1473 57.0196 55.149C55.4334 55.1697 54.0281 55.7793 53.1601 56.8204C52.4316 57.6962 52.1396 58.8199 52.3386 59.9798C52.7932 62.6303 55.6271 64.7616 58.6781 64.7616C58.7073 64.7616 58.7366 64.7607 58.7659 64.759C60.3521 64.7383 61.7574 64.1287 62.6228 63.0876C63.3539 62.2118 63.6458 61.0881 63.4469 59.9282C62.9896 57.2777 60.1583 55.1464 57.1048 55.1464Z" fill="#21003B"/>
<path d="M62.6639 73.718C62.5795 73.718 62.5011 73.693 62.4288 73.6431C62.2996 73.5527 62.235 73.3951 62.2635 73.2401C62.2686 73.2143 62.3797 72.5788 62.7104 71.5842C62.7362 71.5067 62.781 71.4421 62.8447 71.3904C63.2942 71.0391 67.35 68.0011 71.2018 70.2641C71.2922 70.3183 71.3594 70.4036 71.3878 70.5044C71.5919 71.2251 71.7572 71.703 71.7572 71.7082C71.8063 71.8477 71.7753 72.0027 71.6771 72.1112C71.5789 72.2223 71.4291 72.2714 71.2845 72.2404C71.2405 72.23 66.9806 71.3284 62.868 73.6664C62.8025 73.7008 62.7345 73.718 62.6639 73.718ZM63.4466 71.9613C63.3777 72.1715 63.32 72.3618 63.2735 72.5323C66.4304 71.0262 69.4632 71.1657 70.7807 71.331C70.7394 71.2001 70.6955 71.0529 70.649 70.8893C67.4999 69.1662 64.0718 71.4989 63.4466 71.9613Z" fill="#21003B"/>
<path d="M89.5596 40.9561C89.5269 41.5882 89.4468 42.2245 89.3193 42.8652C88.2628 48.2644 84.2689 53.6661 84.2689 53.6661C85.8112 58.9568 78.9783 68.8768 63.2535 65.056C47.5288 61.2353 46.0588 51.8294 46.0588 51.8294C46.0588 51.8294 42.313 52.9324 40.8431 49.9926C39.3732 47.0528 40.5486 43.6014 42.0908 42.9401L42.1089 42.9117L47.3815 34.49C52.3777 21.6302 66.1934 20.3799 75.5993 23.0252C85.0026 25.6705 89.8541 35.0041 89.5596 40.9561Z" fill="#FFC8AB"/>
<g opacity="0.2">
<path d="M89.5591 40.9561C89.5263 41.5882 89.4463 42.2245 89.3188 42.8652C88.4508 42.9272 87.9212 42.9401 87.9212 42.9401C87.4097 40.3904 84.7102 40.3904 84.7102 40.3904C83.0181 41.7182 81.2046 42.2581 81.2046 42.2581V39.4862C80.0524 41.5193 76.8723 40.9794 76.8723 40.9794L77.7532 38.5304C75.4024 40.0003 70.817 39.4862 70.817 39.4862C71.2303 38.6776 71.3724 37.6494 71.3724 37.6494C68.616 39.2149 64.8701 38.1635 64.8701 38.1635L65.3093 36.3991C62.664 37.5022 61.1631 37.2568 61.1631 37.2568V35.6758C60.1504 36.0555 58.8432 37.0604 58.8432 37.0604L59.3341 35.1514L56.2961 36.3991C55.5133 41.0284 50.8117 43.4904 50.8117 43.4904L47.6884 49.3649C47.6884 49.3649 44.9397 46.3604 42.1084 42.9117L47.381 34.49C52.3772 21.6302 66.1928 20.3799 75.5987 23.0252C85.0021 25.6705 89.8536 35.0041 89.5591 40.9561Z" fill="#21003B"/>
</g>
<g opacity="0.2">
<path d="M89.5596 40.9564C89.2651 46.9058 84.2689 53.6664 84.2689 53.6664C85.8112 58.9571 78.9783 68.8771 63.2535 65.0563C47.5288 61.2356 46.0588 51.8297 46.0588 51.8297C46.0588 51.8297 42.313 52.9328 40.8431 49.9929C39.3732 47.0531 40.5486 43.6018 42.0908 42.9404L47.3815 34.4903C48.5466 31.4911 50.1896 29.1248 52.1452 27.2932C50.8458 28.8277 49.7401 30.6851 48.9031 32.9042L44.0387 40.9254C42.6204 41.5532 41.8661 44.3974 43.2172 47.1874C44.5683 49.9774 47.6889 49.3652 47.6889 49.3652C47.6889 49.3652 49.04 58.2906 63.4989 61.9176C77.9604 65.5446 84.3516 58.6884 82.9308 53.6664C82.9308 53.6664 87.4206 44.6919 87.6893 39.0422C87.8675 35.3351 86.0049 30.2408 82.2565 26.4717C87.263 30.5017 89.774 36.6242 89.5596 40.9564Z" fill="#21003B"/>
</g>
<path d="M69.9106 66.5597C67.9059 66.5597 65.6455 66.3065 63.1009 65.6865C54.8033 63.6715 50.4504 60.0807 48.2597 57.4224C46.5624 55.3661 45.8546 53.5423 45.5808 52.6019C43.9662 52.8654 41.4371 52.6355 40.2617 50.2847C39.4014 48.5642 39.2826 46.4665 39.9388 44.6737C40.3237 43.6249 40.9359 42.824 41.6386 42.4391L46.8001 34.1957C49.1199 28.2669 53.5633 24.162 59.6496 22.3227C64.5011 20.8554 70.3782 20.8838 75.7748 22.4002C85.6535 25.1799 90.5049 34.981 90.2079 40.9873C89.9366 46.4794 85.9014 52.4831 84.974 53.798C85.5604 56.3452 84.4755 59.502 82.1453 61.9407C80.6315 63.5243 76.8236 66.5597 69.9106 66.5597ZM46.0587 51.1811C46.1827 51.1811 46.2989 51.2147 46.4074 51.2819C46.565 51.3826 46.6709 51.5454 46.6994 51.7288C46.7045 51.7495 47.092 54.0021 49.3214 56.6707C51.3907 59.1507 55.5137 62.5065 63.4058 64.4259C74.0775 67.0169 79.4095 62.9249 81.2075 61.0443C83.3181 58.833 84.2765 56.0094 83.6462 53.8497C83.5894 53.6534 83.6255 53.4441 83.7469 53.2814C83.796 53.2142 88.6295 46.606 88.911 40.9227C89.1849 35.3504 84.6511 26.2468 75.4234 23.6505C67.676 21.4728 53.1835 21.3539 47.9859 34.7253C47.9721 34.7632 47.954 34.7993 47.9316 34.8338L42.6409 43.2839C42.5712 43.3949 42.4679 43.4828 42.3464 43.537C41.9021 43.7256 41.4474 44.3327 41.1581 45.1206C40.6208 46.5854 40.7215 48.2981 41.4216 49.7034C42.628 52.1137 45.7461 51.2457 45.8779 51.2069C45.9364 51.1897 45.9967 51.1811 46.0587 51.1811Z" fill="#21003B"/>
<path d="M59.9209 45.813C61.4476 43.7153 64.6742 44.5652 64.8706 47.1873C64.4598 46.836 64.1059 46.5079 63.7391 46.2495C62.6282 45.3815 61.2668 45.5443 59.9209 45.813Z" fill="#21003B"/>
<path d="M76.4312 50.1063C77.7797 48.1094 81.0786 48.5228 81.2052 51.1552C80.8151 50.8116 80.4741 50.5068 80.1227 50.2846C78.9938 49.5535 77.7151 49.9023 76.4312 50.1063Z" fill="#21003B"/>
<path d="M61.1636 38.5308C62.3855 38.9234 63.548 39.0061 64.7932 38.9596C65.7826 38.9208 66.7332 38.7503 67.7356 38.7142C66.0254 40.2952 62.6128 40.6026 61.1636 38.5308Z" fill="#21003B"/>
<path d="M78.5724 41.8374C79.5696 42.9482 80.6287 43.7827 81.9411 44.4388C82.1322 44.5447 82.3338 44.6352 82.5404 44.7772C82.4285 44.8168 82.3139 44.8496 82.1968 44.8754C81.613 45.0097 80.9878 44.9245 80.435 44.6946C79.3293 44.2373 78.4252 43.0697 78.5724 41.8374Z" fill="#21003B"/>
<path d="M66.8961 55.3944C67.9501 55.2214 69.5052 55.273 70.6935 56.606C71.001 56.947 70.6961 57.4818 70.2466 57.3836C69.327 57.1821 67.9862 56.8308 66.7876 56.2909C66.3613 56.0997 66.4388 55.4694 66.8961 55.3944Z" fill="#21003B"/>
<path d="M61.4969 31.1835L63.1063 29.0032C63.2329 28.8275 63.5145 28.9722 63.4499 29.1737L62.6568 31.7674C62.3003 32.7258 60.9415 32.0464 61.4969 31.1835Z" fill="#21003B"/>
<path d="M73.0908 37.5539C73.9898 37.0605 75.0412 36.5361 75.7258 35.7973C76.3355 35.0869 76.5189 34.1982 76.5628 33.2449C76.5576 33.1416 76.6403 33.0512 76.7462 33.0564C76.8056 33.0589 76.8573 33.0899 76.8857 33.1364C77.0614 33.4077 77.1647 33.6919 77.2422 33.9967C77.8622 36.4018 75.6354 38.1584 73.5481 38.7707C72.7808 38.9722 72.3881 37.9053 73.0908 37.5539Z" fill="#21003B"/>
<path d="M85.3178 37.1535C85.7957 36.8926 86.1315 36.3604 86.2478 35.8205C86.2995 35.6139 86.3046 35.3969 86.3046 35.1747C86.3046 35.0765 86.3821 34.999 86.4777 34.999C86.5526 34.999 86.6172 35.0455 86.6405 35.1127C86.935 35.8309 86.9324 36.673 86.6172 37.3938C86.4984 37.6624 86.3589 37.9234 86.1574 38.1429C85.4909 38.6803 84.6797 37.7244 85.3178 37.1535Z" fill="#21003B"/>
<path d="M46.1341 44.6917C45.8731 44.6917 45.6277 44.5316 45.527 44.2732C45.3978 43.94 45.5657 43.5628 45.899 43.4362L48.7665 42.3331C49.0997 42.204 49.4769 42.3719 49.6061 42.7051C49.7326 43.041 49.5673 43.4155 49.2315 43.5447L46.3666 44.6478C46.2891 44.6771 46.2116 44.6917 46.1341 44.6917Z" fill="#21003B"/>
<path d="M92.644 36.4717L93.0857 39.7061C93.0857 39.7061 88.676 49.9929 84.2688 53.6664C84.2688 53.6664 87.9423 46.9058 87.9423 42.3514L85.7387 37.6497L82.8712 39.4116C82.8712 39.4116 83.9743 35.813 81.4039 29.9385C81.453 30.1297 82.8144 35.658 79.4922 39.4116C79.4922 39.4116 80.2259 36.4717 79.934 34.7099C79.934 34.7099 79.0505 37.5748 73.3206 38.1638C73.3206 38.1638 73.9071 36.0584 72.9538 33.3614C72.9538 33.3614 73.3206 36.5467 68.5441 36.9135C68.5441 36.9135 71.1894 35.224 69.7195 26.4071C69.7195 26.4071 68.5441 31.7701 67.2937 33.0204C66.0847 34.2294 63.287 35.441 63.1139 35.5133C63.2482 35.3945 64.9558 33.8367 65.2374 30.4474C65.2374 30.4474 63.9225 33.6068 61.1635 33.9737L62.078 31.4756L54.5088 35.0044C54.5088 35.0044 52.5997 41.176 48.9986 42.9404L47.7482 49.112C47.7482 49.112 45.7642 47.9366 46.1336 44.0409C46.1336 44.0409 44.2969 42.4987 42.0907 42.9404V38.5307C42.0907 38.5307 40.4736 38.3834 40.1816 36.0326L40.3857 35.7174L42.0907 33.0927C42.0907 33.0927 42.0899 33.0902 42.0881 33.085C42.0494 32.9972 41.7006 32.1162 41.9616 30.5895C41.9616 30.586 41.9616 30.5826 41.9616 30.5792C42.0081 30.3019 42.0769 30.0039 42.1682 29.6853C42.1992 29.5837 42.2328 29.4804 42.269 29.3753C42.269 29.3719 42.2698 29.3693 42.2716 29.3676C42.703 28.0604 43.5632 26.4458 45.1778 24.5703C49.7322 19.2797 57.2291 13.4 60.4608 15.4589C60.4608 15.4589 72.0703 10.3542 78.8309 15.0378C79.7092 15.6449 80.6186 16.3347 81.5408 17.0993C81.5408 17.0993 81.5417 17.0993 81.5434 17.0993C82.2426 17.6763 82.9436 18.2902 83.6462 18.9412C83.6462 18.943 83.6462 18.9438 83.6462 18.9438C89.1539 24.0562 94.4084 31.2612 94.4084 37.5025L92.644 36.4717Z" fill="#694242"/>
<g opacity="0.6">
<path d="M83.646 18.9438C79.7038 15.446 75.3018 14.3946 71.3958 14.4152C71.4595 14.479 71.4966 14.5496 71.5069 14.6271C71.587 15.1773 70.2307 15.8232 68.4792 16.0712C66.7303 16.3217 65.2475 16.0789 65.17 15.5287C65.1579 15.446 65.1777 15.3625 65.2294 15.2781C62.2999 16.0608 60.3882 17.0993 60.3882 17.0993C56.738 13.6945 44.834 25.5985 42.168 29.6853C42.199 29.5837 42.2326 29.4804 42.2687 29.3753C42.2687 29.3719 42.2696 29.3693 42.2713 29.3676C42.7027 28.0604 43.563 26.4458 45.1776 24.5703C49.732 19.2797 57.2288 13.4 60.4606 15.4589C60.4606 15.4589 72.0701 10.3542 78.8306 15.0378C79.709 15.6449 80.6183 16.3347 81.5406 17.0993C81.5406 17.0993 81.5414 17.0993 81.5431 17.0993C82.2424 17.6763 82.9433 18.2902 83.646 18.9412C83.646 18.943 83.646 18.9438 83.646 18.9438Z" fill="white"/>
</g>
<g opacity="0.2">
<path d="M94.4084 37.5023C94.4084 30.4679 87.7331 22.209 81.5434 17.0991C81.5417 17.0991 81.5408 17.0991 81.5408 17.0991C81.5408 17.0991 85.2246 22.2916 88.3091 27.5823C91.3962 32.873 89.1177 38.5305 89.1177 38.5305C88.4667 32.3098 85.3228 28.1532 85.2246 28.024C87.0614 31.9895 85.2246 34.1207 85.2246 34.1207C84.5013 30.1889 78.9936 23.5316 78.8231 23.325C80.6418 25.9677 80.5566 28.0964 80.5566 28.0964C80.2259 27.1405 77.8751 25.8179 77.8751 25.8179C79.5646 30.3749 75.0954 33.6815 75.0954 33.6815C75.3744 29.6309 72.9202 23.387 72.68 22.7825C73.8141 25.6396 71.9231 29.0884 71.9231 29.0884C71.9231 23.7615 68.2496 19.1322 68.2496 19.1322C69.3242 24.707 66.7021 28.9747 66.635 29.0858C67.2214 27.5074 66.6324 25.451 66.6324 25.451C65.3097 28.5381 62.6773 29.0884 62.6773 29.0884C63.3516 27.8768 62.6773 27.2155 62.6773 27.2155C58.8695 30.4472 55.7591 28.8171 55.7591 28.8171C59.8744 26.1563 59.0658 21.886 59.0658 21.886C56.5677 21.7026 54.142 23.6866 50.5408 26.4715C46.9422 29.2563 42.2716 29.3674 42.2716 29.3674C42.2698 29.3691 42.269 29.3717 42.269 29.3751C42.1062 29.7549 42.0106 30.1708 41.9616 30.579C41.9616 30.5824 41.9616 30.5858 41.9616 30.5893C41.8169 31.806 42.0649 32.9711 42.0881 33.0848C42.0899 33.09 42.0907 33.0925 42.0907 33.0925C44.5165 33.7539 47.8955 30.9613 47.8955 30.9613C45.865 34.6064 42.5635 35.5338 40.3857 35.7172L40.1816 36.0324C40.4736 38.3832 42.0907 38.5305 42.0907 38.5305V42.9402C44.2969 42.4985 46.1336 44.0407 46.1336 44.0407C45.7642 47.9364 47.7482 49.1118 47.7482 49.1118L48.9986 42.9402C52.5997 41.1758 54.5088 35.0042 54.5088 35.0042L62.078 31.4754L61.1635 33.9735C63.9225 33.6066 65.2374 30.4472 65.2374 30.4472C64.9558 33.8365 63.2482 35.3943 63.1139 35.5131C63.287 35.4408 66.0847 34.2292 67.2937 33.0202C68.5441 31.7699 69.7195 26.4069 69.7195 26.4069C71.1894 35.2238 68.5441 36.9133 68.5441 36.9133C73.3206 36.5465 72.9538 33.3612 72.9538 33.3612C73.9071 36.0582 73.3206 38.1636 73.3206 38.1636C79.0505 37.5746 79.934 34.7097 79.934 34.7097C80.2259 36.4715 79.4922 39.4114 79.4922 39.4114C82.8144 35.6578 81.453 30.1295 81.4039 29.9383C83.9743 35.8128 82.8712 39.4114 82.8712 39.4114L85.7387 37.6495L87.9423 42.3512C87.9423 46.9056 84.2688 53.6662 84.2688 53.6662C88.676 49.9927 93.0857 39.7059 93.0857 39.7059L92.644 36.4715L94.4084 37.5023ZM44.2969 38.1636C44.2969 38.1636 38.5645 39.0471 44.2969 37.6495C50.0293 36.2545 53.0751 29.6877 53.0751 29.6877C52.5248 40.1683 44.2969 38.1636 44.2969 38.1636Z" fill="#21003B"/>
</g>
<path d="M84.2688 54.3173C84.1216 54.3173 83.9769 54.2682 83.8581 54.1701C83.6152 53.9712 83.5481 53.6302 83.6979 53.3563C83.7341 53.2917 87.2164 46.8308 87.2913 42.4934L85.4597 38.5822L83.2122 39.9643C82.9823 40.1064 82.6904 40.0909 82.476 39.9256C82.2616 39.7602 82.1737 39.4812 82.2512 39.2229C82.259 39.1997 82.7111 37.5928 82.2331 34.8157C81.9826 36.4742 81.3522 38.2877 79.9779 39.8429C79.7816 40.0677 79.4561 40.1271 79.19 39.9876C78.9265 39.8481 78.7896 39.5458 78.8619 39.2539C78.8671 39.2358 79.1874 37.9416 79.3088 36.6086C78.2936 37.5076 76.5007 38.4892 73.3852 38.8096C73.1708 38.8302 72.9616 38.745 72.8246 38.5822C72.6851 38.4169 72.6361 38.1947 72.6955 37.9881C72.6981 37.9777 72.9331 37.0813 72.8143 35.7406C72.804 35.7526 72.7928 35.7656 72.7807 35.7793C71.9282 36.8127 70.5203 37.412 68.5931 37.5618C68.2883 37.5877 67.9912 37.4042 67.9034 37.1097C67.8156 36.8178 67.9266 36.5156 68.1953 36.3657C68.2005 36.3632 69.7918 35.1206 69.4715 29.848C69.0091 31.305 68.4071 32.824 67.7536 33.4776C66.4309 34.8002 63.4859 36.0609 63.3593 36.1152C63.0648 36.2417 62.7212 36.1307 62.5533 35.8568C62.3854 35.583 62.4422 35.2265 62.6876 35.0198C62.7264 34.9888 63.2792 34.5006 63.7856 33.4621C63.1139 34.0227 62.2717 34.4825 61.2487 34.6194C61.0214 34.6478 60.7992 34.5574 60.6571 34.3817C60.5151 34.2035 60.4763 33.9658 60.5538 33.7514L60.9284 32.7284L55.0384 35.4719C54.6199 36.7042 52.7935 41.566 49.5746 43.3692L48.3863 49.2411C48.345 49.4452 48.2055 49.6182 48.0117 49.7061C47.8206 49.7887 47.5984 49.7784 47.4176 49.6699C47.3246 49.6157 45.2166 48.3162 45.4568 44.3534C44.9272 43.9995 43.6407 43.2917 42.2199 43.5758C42.0287 43.6146 41.8298 43.5655 41.68 43.4415C41.5301 43.3175 41.4423 43.1341 41.4423 42.9403V39.0162C40.781 38.745 39.7761 38.0191 39.5358 36.1126C39.5177 35.9602 39.5539 35.8077 39.6366 35.6786L41.3777 32.9997C41.0987 31.9534 40.7267 28.7423 44.6844 24.1466C48.7686 19.4036 56.5445 12.8187 60.4996 14.7381C62.4267 13.945 72.7575 10.039 79.2003 14.503C82.9668 17.1122 86.7824 20.7934 89.6731 24.6012C92.1299 27.8407 95.0568 32.7077 95.0568 37.5024C95.0568 37.7349 94.9328 37.9493 94.7313 38.0656C94.5298 38.1792 94.2818 38.1792 94.0803 38.063L93.4681 37.7039L93.729 39.6182C93.7445 39.737 93.729 39.8515 93.6825 39.9617C93.4991 40.388 89.1616 50.4346 84.6847 54.1649C84.5633 54.2657 84.4161 54.3173 84.2688 54.3173ZM85.7387 36.9987C85.8007 36.9987 85.8627 37.0081 85.9247 37.0271C86.1004 37.0787 86.2476 37.2053 86.3251 37.3732L88.5313 42.0749C88.5709 42.1627 88.5907 42.2549 88.5907 42.3513C88.5907 44.7177 87.6659 47.5981 86.7359 49.9024C89.5776 45.9318 91.9801 40.6076 92.4192 39.613L92.0007 36.5595C91.9671 36.3141 92.0782 36.0712 92.2849 35.9343C92.4916 35.7948 92.7576 35.7871 92.9721 35.9111L93.6954 36.3347C92.9385 29.1686 85.4907 20.4395 78.4615 15.5699C72.0832 11.1524 60.8354 16.0039 60.7217 16.053C60.5254 16.1382 60.2955 16.1227 60.1121 16.0065C57.5236 14.3557 50.5537 19.3209 45.6686 24.9939C41.4914 29.8428 42.6746 32.8033 42.6849 32.8317C42.7701 33.0307 42.7546 33.2657 42.6358 33.4466L40.8585 36.1797C41.1323 37.7039 42.0546 37.8718 42.1631 37.8847C42.4963 37.9157 42.7417 38.1947 42.7417 38.5306V42.2118C44.8497 42.1447 46.4746 43.4802 46.5496 43.5448C46.7123 43.6817 46.8001 43.891 46.7795 44.1028C46.609 45.9163 46.9784 47.053 47.3685 47.7247L48.3631 42.8112C48.4018 42.6122 48.531 42.4443 48.7118 42.3565C52.0236 40.7342 53.8707 34.87 53.8888 34.8106C53.9431 34.6375 54.0696 34.4928 54.235 34.4153L61.8041 30.8891C62.0418 30.778 62.3234 30.8193 62.5171 30.9976C62.7109 31.1758 62.7781 31.4522 62.6876 31.7002L62.2278 32.9557C63.8166 32.1084 64.6277 30.22 64.6381 30.1967C64.7621 29.9022 65.0824 29.7421 65.3924 29.817C65.7024 29.8945 65.9116 30.1838 65.8832 30.5016C65.7696 31.8811 65.4311 32.9816 65.0462 33.8263C65.7205 33.4414 66.3999 32.9971 66.8365 32.5605C67.6476 31.7493 68.6474 28.2696 69.084 26.2675C69.1511 25.9678 69.4146 25.756 69.7195 25.756C69.7246 25.756 69.7298 25.7569 69.735 25.7586C70.0476 25.7663 70.3085 25.9937 70.3601 26.2985C71.254 31.6692 70.665 34.5367 69.9804 36.017C70.7675 35.7965 71.3616 35.4487 71.7629 34.9733C72.3751 34.2474 72.3106 33.4647 72.308 33.4311C72.277 33.1056 72.494 32.8033 72.8143 32.7336C73.1321 32.6638 73.455 32.8369 73.5635 33.1469C74.1964 34.932 74.199 36.4768 74.1034 37.4068C78.5106 36.7145 79.3088 34.5316 79.3166 34.5083C79.4121 34.2267 79.6886 34.0433 79.9856 34.0666C80.2801 34.0924 80.5256 34.3094 80.5746 34.6039C80.6418 35.0121 80.6599 35.4719 80.647 35.9447C81.5021 33.0229 80.7839 30.1347 80.7736 30.096C80.6909 29.7679 80.8717 29.4295 81.1921 29.321C81.5098 29.2099 81.8611 29.3623 81.9981 29.6723C83.6953 33.5499 83.8477 36.4846 83.7263 38.125L85.3977 37.0968C85.5028 37.0314 85.6165 36.9987 85.7387 36.9987Z" fill="#21003B"/>
<path d="M42.4395 45.6839C43.6846 45.9345 44.4622 47.0738 44.7903 48.2156C44.8988 48.6005 44.9324 49.0061 44.8936 49.4013C44.8781 49.5744 44.7231 49.7036 44.5475 49.6881C44.439 49.6778 44.3537 49.6158 44.2995 49.5305C43.9146 48.9518 43.5968 48.4094 43.1938 47.8694C42.7882 47.3114 42.3594 46.8025 42.0752 46.1489C41.9616 45.9138 42.1863 45.6323 42.4395 45.6839Z" fill="#21003B"/>
<path d="M49.9101 111.342C49.0421 111.342 48.2155 110.867 47.7866 110.081C47.5869 109.716 47.394 109.304 47.208 108.846C47.1253 108.645 47.1511 108.415 47.2751 108.234C47.3991 108.056 47.5981 107.953 47.8228 107.955C48.6133 107.971 49.5149 107.816 50.4862 107.498C54.0073 106.351 55.9887 106.315 58.8485 106.663C60.7395 106.893 62.5142 107.012 63.4365 105.94C63.5966 105.754 63.8498 105.674 64.0875 105.736C64.3277 105.795 64.5111 105.987 64.5628 106.227C64.6644 106.695 64.7118 107.184 64.7049 107.694C64.6868 108.635 64.1262 109.487 63.2763 109.869C62.088 110.402 60.1711 110.967 57.7764 110.644C55.3274 110.314 52.1241 110.903 50.432 111.285C50.258 111.323 50.0841 111.342 49.9101 111.342ZM48.7916 109.203C48.8363 109.291 48.8811 109.376 48.9259 109.459C49.1661 109.895 49.6673 110.125 50.1478 110.017C51.9226 109.616 55.299 108.999 57.9521 109.358C60.042 109.642 61.7108 109.149 62.7441 108.684C63.1394 108.508 63.3977 108.11 63.4055 107.671C63.4055 107.643 63.4055 107.616 63.4055 107.588C61.9536 108.35 60.0471 108.115 58.6935 107.953C55.9706 107.619 54.1985 107.653 50.8892 108.733C50.1556 108.972 49.4563 109.129 48.7916 109.203Z" fill="#21003B"/>
<path d="M39.4445 109.206C37.6258 109.206 36.4504 108.208 35.2569 105.648C34.0427 103.05 33.5622 97.5393 34.7221 95.8446C35.1019 95.2866 35.7865 94.9172 36.8121 94.7157C37.0058 94.677 37.2073 94.7286 37.3597 94.8578C37.5095 94.9844 37.5948 95.1755 37.5871 95.3719C37.5716 95.8446 37.5405 96.3174 37.5095 96.7746C37.3778 98.6966 37.2409 100.683 38.2923 103.605C38.9381 105.403 39.6744 105.992 40.452 106.615C40.6414 106.764 40.8334 106.925 41.0281 107.095C41.2502 107.297 41.3071 107.622 41.1676 107.886C40.9919 108.211 40.4597 109.206 39.4445 109.206ZM36.2437 96.2399C35.9751 96.3665 35.851 96.493 35.7942 96.5783C35.0399 97.6788 35.275 102.618 36.4323 105.101C37.6413 107.692 38.5481 107.906 39.4445 107.906C39.5306 107.906 39.6287 107.84 39.739 107.707C39.7062 107.681 39.6727 107.655 39.6382 107.627C38.7961 106.953 37.8402 106.186 37.0704 104.044C35.9286 100.867 36.0784 98.645 36.2127 96.6868C36.223 96.5352 36.2334 96.3863 36.2437 96.2399Z" fill="#21003B"/>
</g>
<defs>
<clipPath id="clip0_1_29946">
<rect width="124" height="124" fill="white"/>
</clipPath>
</defs>
</svg>
