<svg width="120" height="120" viewBox="0 0 120 120" fill="none" xmlns="http://www.w3.org/2000/svg">
<path d="M30.8999 48.0198C30.8999 48.0198 13.5774 47.4198 13.8774 64.0423C14.1774 80.6648 31.3999 80.4648 36.2074 74.8573C36.2074 74.8573 39.2599 89.8773 56.3849 89.8773C73.5074 89.8773 78.3149 76.8098 78.3149 76.8098C78.3149 76.8098 95.2874 86.7223 103.697 70.0498C112.11 53.3773 96.4899 42.6123 86.8749 47.5198C86.8749 47.5198 76.3624 30.6973 60.8399 41.9123C60.8399 41.9123 56.4999 39.2423 51.8949 43.9823C51.8949 43.9823 39.4124 33.9998 30.8999 48.0198Z" fill="white"/>
<path d="M13.8926 62.765C14.4851 78.945 31.4426 78.7 36.2076 73.1425C36.2076 73.1425 39.2601 88.1625 56.3851 88.1625C73.5076 88.1625 78.3151 75.095 78.3151 75.095C78.3151 75.095 95.2876 85.01 103.698 68.3375C105.21 65.3425 105.945 62.5375 106.078 59.98C105.958 57.7475 105.368 55.735 104.44 53.98C104.748 57.0425 104.133 60.5525 102.198 64.39C95.8326 77.005 84.3926 73.8575 79.7376 71.905C78.6126 71.4325 77.3051 71.86 76.6851 72.915C74.5926 76.4725 68.8776 83.535 56.5076 83.535C44.8076 83.535 39.9101 76.2725 38.0476 72.0275C37.4776 70.7275 35.9151 70.1925 34.6626 70.8575C28.3251 74.22 15.7126 72.5475 15.4601 58.5875C15.4451 57.6308 15.4867 56.7316 15.5851 55.89C14.6251 57.7225 14.0001 59.9825 13.8926 62.765Z" fill="#000072"/>
<path d="M28.7502 61.4873C28.7502 61.4873 28.1952 53.8623 44.7527 55.1298C61.3077 56.3973 92.8427 44.4473 94.9677 59.2498C94.9677 59.2498 82.2702 53.7273 76.4627 67.8473C76.4627 67.8473 63.9452 61.1373 56.5352 69.9498C56.5352 69.9498 48.1327 51.7248 28.7502 61.4873Z" fill="#000072"/>
<path d="M56.385 90.4998C47.2875 90.4998 42.1175 86.2848 39.3825 82.7473C37.3375 80.1023 36.325 77.4798 35.885 76.0598C32.7 78.8323 26.795 79.7373 22.065 78.0348C18.8475 76.8773 13.425 73.5223 13.255 64.0523C13.165 59.0923 14.5975 55.1223 17.5125 52.2548C22.115 47.7273 28.8925 47.4023 30.555 47.3923C33.1675 43.2223 36.405 40.7673 40.1775 40.0998C45.5825 39.1398 50.3775 42.1298 51.8375 43.1623C54.2425 40.8873 56.5625 40.4748 58.1225 40.5473C59.35 40.6023 60.295 40.9548 60.7875 41.1848C65.315 38.0073 69.87 36.8398 74.335 37.7123C81.3375 39.0848 85.895 44.9973 87.095 46.7248C91.9275 44.5523 98.1125 45.8948 102.33 50.0923C104.647 52.3998 106.112 55.3398 106.57 58.5948C107.09 62.3048 106.312 66.2523 104.255 70.3298C101.767 75.2598 98.2975 78.4148 93.9375 79.7023C87.2875 81.6698 80.65 78.7198 78.6175 77.6798C78.085 78.8273 76.7525 81.2998 74.205 83.7873C71.075 86.8498 65.44 90.4998 56.385 90.4998ZM36.2075 74.2323C36.2591 74.2323 36.3108 74.239 36.3625 74.2523C36.595 74.3123 36.77 74.4998 36.8175 74.7323C36.825 74.7673 37.6 78.4273 40.4 82.0273C44.1275 86.8223 49.5075 89.2548 56.385 89.2548C63.2925 89.2548 68.9825 87.1298 73.2925 82.9398C76.515 79.8073 77.7175 76.6248 77.73 76.5923C77.7925 76.4198 77.93 76.2848 78.105 76.2223C78.2775 76.1598 78.47 76.1773 78.6275 76.2698C78.705 76.3148 86.3 80.6648 93.5925 78.5048C97.605 77.3173 100.817 74.3773 103.142 69.7698C106.74 62.6373 106.107 55.6123 101.45 50.9773C97.4625 47.0073 91.5875 45.8148 87.16 48.0748C86.8725 48.2223 86.5175 48.1248 86.3475 47.8498C86.3 47.7748 81.6025 40.3998 74.0875 38.9348C69.875 38.1123 65.54 39.2848 61.205 42.4173C61 42.5648 60.7275 42.5748 60.515 42.4423C60.355 42.3473 56.5225 40.1123 52.3425 44.4148C52.1175 44.6448 51.7575 44.6673 51.505 44.4673C51.455 44.4273 46.1875 40.2948 40.3875 41.3273C36.895 41.9498 33.8825 44.3098 31.4325 48.3423C31.315 48.5348 31.1025 48.6448 30.8775 48.6423C30.7825 48.6398 23.155 48.4473 18.38 53.1498C15.7225 55.7673 14.4175 59.4273 14.5 64.0298C14.6575 72.7523 19.5725 75.8148 22.4875 76.8623C24.8325 77.7073 27.5375 77.8873 30.1 77.3698C32.505 76.8873 34.5575 75.8223 35.735 74.4498C35.855 74.3098 36.0275 74.2323 36.2075 74.2323Z" fill="#000072"/>
<path d="M90.6975 58.3677C89.4525 63.1877 86.055 67.1577 81.56 69.2927C73.85 72.9527 59.0175 77.9227 49.01 68.2877C46.9325 66.2852 45.4175 63.7902 44.645 61.0677C44.2275 59.6027 44.0275 58.0702 44.0675 56.5127C44.16 53.0127 45.4575 49.0252 50.04 46.4677C54.27 44.1052 59.435 44.2927 63.6275 46.7252C65.2975 47.6927 67.4775 48.5577 70.0075 48.6377C75.9675 48.8227 79.755 42.7427 87.8325 48.6377C88.6975 49.2677 89.365 49.9702 89.865 50.7202C91.405 53.0302 91.365 55.7977 90.6975 58.3677Z" fill="#32A6FC"/>
<path d="M83.1998 49.9375L83.5799 50.36C83.7474 50.545 84.0174 50.6025 84.2449 50.5L84.7623 50.2675C85.2748 50.0375 85.7799 50.5975 85.5024 51.0825L85.2173 51.575C85.0948 51.7925 85.1224 52.065 85.2924 52.2525L85.6724 52.6725C86.0474 53.0875 85.6724 53.74 85.1249 53.625L84.5673 53.51C84.3223 53.4575 84.0724 53.57 83.9474 53.7875L83.6649 54.28C83.3874 54.765 82.6498 54.61 82.5898 54.0525L82.5273 53.4875C82.5023 53.24 82.3174 53.035 82.0724 52.985L81.5174 52.8675C80.9699 52.7525 80.8899 52.0025 81.3999 51.775L81.9174 51.5425C82.1474 51.44 82.2823 51.2025 82.2573 50.9525L82.1948 50.3875C82.1373 49.83 82.8248 49.5225 83.1998 49.9375Z" fill="white"/>
<path d="M59.6798 62.6349L59.6623 63.2024C59.6548 63.4524 59.8098 63.6799 60.0448 63.7649L60.5798 63.9574C61.1073 64.1449 61.0848 64.8999 60.5473 65.0549L60.0023 65.2149C59.7623 65.2849 59.5923 65.5024 59.5848 65.7524L59.5698 66.3199C59.5523 66.8799 58.8273 67.0899 58.5123 66.6274L58.1923 66.1599C58.0523 65.9524 57.7948 65.8599 57.5523 65.9299L57.0098 66.0874C56.4723 66.2449 56.0473 65.6224 56.3898 65.1799L56.7373 64.7299C56.8898 64.5324 56.8973 64.2574 56.7573 64.0499L56.4373 63.5824C56.1223 63.1199 56.5823 62.5224 57.1098 62.7124L57.6448 62.9049C57.8798 62.9874 58.1448 62.9124 58.2973 62.7124L58.6448 62.2649C58.9873 61.8224 59.6973 62.0749 59.6798 62.6349Z" fill="white"/>
<path d="M67.0802 50.4523L67.2202 50.7423C67.2827 50.8698 67.4177 50.9423 67.5602 50.9223L67.8777 50.8798C68.1902 50.8348 68.3752 51.2198 68.1477 51.4373L67.9152 51.6598C67.8127 51.7573 67.7877 51.9098 67.8477 52.0373L67.9877 52.3273C68.1252 52.6123 67.8177 52.9073 67.5402 52.7573L67.2577 52.6048C67.1327 52.5398 66.9777 52.5598 66.8752 52.6573L66.6452 52.8798C66.4177 53.0998 66.0427 52.8973 66.0977 52.5873L66.1552 52.2698C66.1802 52.1323 66.1127 51.9923 65.9877 51.9248L65.7052 51.7748C65.4252 51.6248 65.5002 51.2048 65.8152 51.1623L66.1327 51.1198C66.2727 51.0998 66.3827 50.9923 66.4077 50.8523L66.4652 50.5373C66.5227 50.2248 66.9427 50.1673 67.0802 50.4523Z" fill="white"/>
<path d="M78.6374 59.4951L78.6999 59.8076C78.7274 59.9476 78.8424 60.0526 78.9824 60.0676L79.3024 60.1051C79.6149 60.1401 79.6999 60.5576 79.4249 60.7126L79.1449 60.8701C79.0224 60.9401 78.9574 61.0826 78.9849 61.2201L79.0499 61.5351C79.1124 61.8451 78.7424 62.0551 78.5074 61.8401L78.2724 61.6226C78.1674 61.5276 78.0149 61.5101 77.8899 61.5801L77.6124 61.7376C77.3374 61.8926 77.0224 61.6051 77.1549 61.3176L77.2874 61.0251C77.3474 60.8976 77.3149 60.7451 77.2124 60.6476L76.9749 60.4326C76.7424 60.2176 76.9199 59.8301 77.2324 59.8676L77.5524 59.9026C77.6924 59.9201 77.8274 59.8426 77.8874 59.7151L78.0199 59.4226C78.1499 59.1351 78.5749 59.1851 78.6374 59.4951Z" fill="white"/>
<path d="M63.7777 45.2324C63.7777 45.2324 66.5552 48.2899 62.0727 55.4324C61.9202 55.6799 61.9002 55.9899 62.0252 56.2524C62.2052 56.6349 62.4652 57.2424 62.6427 57.9174C62.6427 57.9174 60.8702 57.0624 58.6152 57.2224C58.6152 57.2224 64.5627 50.6549 63.7777 45.2324Z" fill="#000072"/>
<path d="M90.6975 58.3677C89.4525 63.1877 86.055 67.1577 81.56 69.2927C73.85 72.9527 59.0175 77.9227 49.01 68.2877C46.9325 66.2852 45.4175 63.7902 44.645 61.0677L53.1625 62.0377C53.1625 62.0377 55.2 64.0977 56.2825 65.9227C56.565 66.3977 57.1875 66.5352 57.645 66.2252C59.3925 65.0352 63.5525 62.7277 68.485 63.6077C68.485 63.6077 70.705 59.7577 69.0025 56.5677C69.0025 56.5677 69.785 57.3002 70.5025 58.8152C70.815 59.4777 71.775 59.4077 71.9825 58.7052C72.39 57.3402 73.0875 55.7927 74.28 54.7027C74.28 54.7027 74.2175 55.3477 74.2125 56.3427C74.1975 59.4802 77.8075 61.2677 80.285 59.3452C81.575 58.3452 83.2025 57.4702 85.21 57.0277C88.075 56.3952 90.0425 53.7377 89.87 50.8102C89.8684 50.7802 89.8667 50.7502 89.865 50.7202C91.405 53.0302 91.365 55.7977 90.6975 58.3677Z" fill="#000072"/>
<path d="M50.04 48.0252C54.27 45.6627 59.435 45.8502 63.6275 48.2827C65.2975 49.2502 67.4775 50.1152 70.0075 50.1952C75.9675 50.3802 79.755 44.3027 87.8325 50.1952C88.6975 50.8252 89.365 51.5277 89.865 52.2777C90.6275 53.4227 91.0025 54.6827 91.105 55.9727C91.24 54.1477 90.935 52.3227 89.865 50.7202C89.365 49.9702 88.6975 49.2677 87.8325 48.6377C79.755 42.7427 75.9675 48.8227 70.0075 48.6377C67.4775 48.5577 65.2975 47.6927 63.6275 46.7252C59.435 44.2927 54.27 44.1052 50.04 46.4677C45.4575 49.0252 44.16 53.0127 44.0675 56.5127C44.0575 56.9077 44.0625 57.3002 44.0825 57.6902C44.26 54.2852 45.6225 50.4902 50.04 48.0252Z" fill="white"/>
<path d="M75.2577 48.1552C75.0752 48.2377 74.8577 48.3402 74.6602 48.4427C74.5602 48.4944 74.4602 48.5485 74.3602 48.6052C74.2602 48.6585 74.1611 48.7135 74.0627 48.7702C73.6702 48.9977 73.2827 49.2402 72.9177 49.5102C72.5577 49.7852 72.2077 50.0752 71.9002 50.4077C71.5977 50.7452 71.3177 51.0927 71.0252 51.4902L71.0227 51.4927C71.0052 51.5152 70.9727 51.5202 70.9502 51.5027C70.9352 51.491 70.9277 51.4769 70.9277 51.4602C70.9427 50.9527 71.1327 50.4627 71.3902 50.0277C71.6602 49.6002 71.9752 49.2027 72.3227 48.8402C72.6702 48.4752 73.0527 48.1502 73.4502 47.8477C73.6486 47.6944 73.8536 47.551 74.0652 47.4177C74.2802 47.2802 74.4827 47.1527 74.7277 47.0277C75.0352 46.8702 75.4102 46.9927 75.5677 47.3002C75.7227 47.6077 75.6002 47.9827 75.2952 48.1377C75.2869 48.1427 75.2786 48.1469 75.2702 48.1502L75.2577 48.1552Z" fill="#000072"/>
<path d="M77.3524 71.3174C77.2149 71.1599 77.1024 71.0199 76.9849 70.8699C76.8666 70.7216 76.7524 70.5716 76.6424 70.4199C76.4224 70.1182 76.2108 69.8107 76.0074 69.4974C75.5999 68.8724 75.2174 68.2299 74.8799 67.5649C74.1924 66.2399 73.6474 64.8349 73.2874 63.3774C72.9349 61.9224 72.7699 60.4074 72.8899 58.9074C72.9399 58.1574 73.0624 57.4124 73.2799 56.6949C73.3366 56.5166 73.3966 56.3399 73.4599 56.1649C73.5299 55.9916 73.6049 55.8199 73.6849 55.6499L73.8024 55.3974L73.9424 55.1549C74.0358 54.9949 74.1341 54.8374 74.2374 54.6824C74.2524 54.6624 74.2824 54.6574 74.3049 54.6699C74.3199 54.6832 74.3266 54.6991 74.3249 54.7174L74.3224 54.7199C74.2924 54.9049 74.2574 55.0857 74.2174 55.2624L74.1574 55.5249L74.1099 55.7924C74.0799 55.9699 74.0399 56.1424 74.0049 56.3174C73.9816 56.4941 73.9549 56.6699 73.9249 56.8449C73.8224 57.5449 73.7249 58.2399 73.7249 58.9449C73.7133 59.6482 73.7616 60.3482 73.8699 61.0449C73.9724 61.7374 74.1174 62.4274 74.3224 63.0999C74.5224 63.7749 74.7591 64.4382 75.0324 65.0899C75.3091 65.7382 75.6166 66.3732 75.9549 66.9949C76.2933 67.6149 76.6574 68.2207 77.0474 68.8124C77.2441 69.1057 77.4466 69.3941 77.6549 69.6774L77.9724 70.0999C78.0749 70.2349 78.1899 70.3799 78.2899 70.4974L78.2974 70.5049C78.5199 70.7674 78.4874 71.1624 78.2249 71.3849C77.9649 71.6049 77.5749 71.5749 77.3524 71.3174Z" fill="#000072"/>
<path d="M69.1375 56.5426C69.485 56.9951 69.6925 57.5151 69.8325 58.0501C69.975 58.5876 70.0225 59.1451 70.0275 59.7026C70.0275 60.261 69.98 60.8176 69.885 61.3726C69.8567 61.511 69.8267 61.6493 69.795 61.7876L69.75 61.9926L69.69 62.1951L69.565 62.6026L69.41 62.9976C69.315 63.2651 69.175 63.5126 69.055 63.7676C68.9925 63.8976 68.9125 64.0151 68.8425 64.1376C68.7675 64.2576 68.6975 64.3826 68.6175 64.5001L68.3675 64.8426C68.2825 64.9576 68.2025 65.0751 68.1075 65.1776L67.83 65.4976L67.69 65.6576L67.5375 65.8051C67.1425 66.2076 66.7075 66.5651 66.2575 66.8951C66.0275 67.0501 65.8 67.2151 65.565 67.3626L64.8425 67.7801C62.8775 68.8026 60.7575 69.4151 58.6275 69.7751L57.8275 69.9026L57.4275 69.9651L57.025 70.0126L56.2225 70.1051C55.9559 70.1385 55.6875 70.1651 55.4175 70.1851C54.3375 70.2701 53.245 70.3026 52.14 70.2176C51.5875 70.1626 51.0325 70.0976 50.4775 69.9601C49.9225 69.8251 49.365 69.6376 48.835 69.3376C48.31 69.0401 47.8 68.6101 47.4775 68.0276C47.305 67.7451 47.2025 67.4251 47.1325 67.1076C47.1075 66.9476 47.0775 66.7876 47.075 66.6276C47.0625 66.4676 47.07 66.3126 47.0775 66.1576C47.1175 65.5326 47.305 64.9626 47.535 64.4301C47.77 63.9001 48.06 63.4126 48.3825 62.9526C49.03 62.0351 49.8 61.2376 50.6325 60.5201C52.2975 59.0951 54.2225 57.9726 56.3325 57.3326C57.385 57.0101 58.4875 56.8251 59.6025 56.8326C60.16 56.8451 60.7225 56.8901 61.2625 57.0451C61.8 57.2051 62.315 57.4676 62.715 57.8751C62.74 57.9026 62.74 57.9451 62.7125 57.9726C62.6975 57.9876 62.68 57.9943 62.66 57.9926H62.6575C62.1 57.9376 61.6025 57.8601 61.1025 57.8001C60.6075 57.7376 60.11 57.6801 59.605 57.6926C58.5975 57.7176 57.59 57.9176 56.625 58.2476C55.6575 58.5726 54.73 59.0226 53.8475 59.5476C52.9675 60.0751 52.13 60.6801 51.3675 61.3626C50.605 62.0401 49.91 62.7976 49.3425 63.6201C49.06 64.0326 48.81 64.4601 48.6175 64.9026C48.43 65.3426 48.29 65.8001 48.2675 66.2376C48.2625 66.3476 48.255 66.4551 48.2675 66.5601C48.2675 66.6676 48.29 66.7676 48.305 66.8701C48.3525 67.0676 48.4125 67.2601 48.52 67.4301C48.7125 67.7801 49.0425 68.0626 49.435 68.2876C49.8275 68.5101 50.285 68.6676 50.76 68.7826C51.235 68.9001 51.7375 68.9576 52.2375 69.0051C53.25 69.0826 54.285 69.0551 55.3175 68.9701C55.5759 68.9501 55.835 68.9235 56.095 68.8901L56.8725 68.8001L57.26 68.7551L57.645 68.6926L58.415 68.5701C60.4625 68.2176 62.47 67.6401 64.275 66.7126C65.175 66.2426 66.0075 65.6676 66.725 64.9826C67.445 64.2976 68.04 63.4876 68.4375 62.5826L68.585 62.2426L68.705 61.8926L68.765 61.7151L68.815 61.5351C68.8484 61.4168 68.88 61.2968 68.91 61.1751C69.0167 60.6885 69.0817 60.1926 69.105 59.6876C69.1225 59.1851 69.09 58.6801 69.0725 58.1676C69.0525 57.6551 69.0225 57.1376 69.0125 56.5926L69.01 56.5876C69.01 56.5476 69.04 56.5176 69.08 56.5151C69.1034 56.5168 69.1225 56.526 69.1375 56.5426Z" fill="#201777"/>
<path d="M63.6774 74.5127C58.3849 74.5152 53.0324 73.0252 48.5774 68.7377C45.1974 65.4802 43.3249 61.0202 43.4449 56.4977C43.5674 51.8077 45.7424 48.1527 49.7349 45.9227C54.0574 43.5102 59.5024 43.6102 63.9399 46.1852C65.9199 47.3352 67.9699 47.9502 70.0274 48.0127C71.9449 48.0727 73.6274 47.4402 75.4074 46.7702C78.9524 45.4402 82.6174 44.0602 88.1999 48.1327C91.3849 50.4577 92.4574 54.0502 91.3024 58.5227C90.0224 63.4727 86.5674 67.6027 81.8274 69.8552C77.2949 72.0077 70.5399 74.5127 63.6774 74.5127ZM50.3424 47.0127C46.7049 49.0427 44.8024 52.2452 44.6899 56.5302C44.5799 60.7027 46.3124 64.8252 49.4424 67.8402C53.6199 71.8602 58.6749 73.2627 63.6949 73.2627C70.3249 73.2627 76.8899 70.8202 81.2924 68.7302C85.6999 66.6377 88.9074 62.8027 90.0949 58.2127C91.1274 54.2177 90.2424 51.1652 87.4649 49.1402C82.4274 45.4652 79.2299 46.6652 75.8474 47.9377C74.0299 48.6202 72.1549 49.3277 69.9899 49.2602C67.7224 49.1902 65.4749 48.5177 63.3149 47.2627C59.2549 44.9077 54.2849 44.8127 50.3424 47.0127Z" fill="#000072"/>
<path d="M55.7998 34.3677C55.7998 34.3677 58.0573 32.0777 60.7023 34.5377C63.3448 36.9977 62.9023 40.4077 61.9123 41.6427C60.9223 42.8752 55.7998 34.3677 55.7998 34.3677Z" fill="#FFDAB6"/>
<path d="M61.6599 42.3874C61.6366 42.3874 61.6132 42.3866 61.5899 42.3849C60.9974 42.3449 60.0699 41.8374 57.6649 38.3849C56.3899 36.5524 55.2774 34.7074 55.2674 34.6899C55.1199 34.4449 55.1574 34.1324 55.3574 33.9299C56.2824 32.9874 58.6849 31.8074 61.1249 34.0799C63.9449 36.7049 63.6699 40.4474 62.3999 42.0299C62.2149 42.2624 61.9524 42.3874 61.6599 42.3874ZM56.6149 34.5074C58.4374 37.4749 60.6899 40.5874 61.5449 41.0824C62.1924 40.0324 62.6499 37.2024 60.2774 34.9924C58.6549 33.4849 57.2624 34.0649 56.6149 34.5074Z" fill="#000072"/>
<path d="M33.1752 56.8301C33.1752 56.8301 30.8677 59.0701 33.3102 61.7301C35.7502 64.3926 39.1627 63.9751 40.4052 62.9951C41.6452 62.0151 33.1752 56.8301 33.1752 56.8301Z" fill="#FFDAB6"/>
<path d="M37.7901 64.3826C36.1776 64.3826 34.3301 63.7651 32.8501 62.1526C30.5951 59.6926 31.7926 57.3026 32.7401 56.3826C32.9451 56.1826 33.2576 56.1501 33.5001 56.2976C33.5201 56.3076 35.3551 57.4351 37.1801 58.7226C40.6151 61.1526 41.1151 62.0851 41.1501 62.6751C41.1701 62.9976 41.0426 63.2851 40.7901 63.4826C40.1026 64.0276 39.0151 64.3826 37.7901 64.3826ZM33.3076 57.6426C32.8626 58.2901 32.2701 59.6776 33.7676 61.3101C35.9601 63.7001 38.7951 63.2626 39.8476 62.6226C39.3576 61.7626 36.2651 59.4901 33.3076 57.6426Z" fill="#000072"/>
<path d="M57.3424 58.5476C57.3424 58.5476 44.7299 71.8426 36.9349 61.1526C36.9349 61.1526 30.0674 56.3026 28.9149 49.1226C28.2749 45.1401 29.3949 40.4426 34.4174 35.4551C48.4999 21.4751 60.0949 38.1601 60.0949 38.1601C62.1549 39.6826 63.3124 41.3826 63.8424 43.1301C66.0474 50.4101 57.3424 58.5476 57.3424 58.5476Z" fill="#FFDAB6"/>
<path d="M57.3425 58.5474C57.3425 58.5474 44.73 71.8424 36.935 61.1524C36.935 61.1524 30.0675 56.3024 28.915 49.1224C29.09 49.3774 38.62 63.1999 55.71 54.4999C61.28 51.6624 63.4525 47.4849 63.8425 43.1299C66.0475 50.4099 57.3425 58.5474 57.3425 58.5474Z" fill="#000072"/>
<path d="M63.8424 43.1301C63.3124 41.3826 62.1549 39.6826 60.0949 38.1601C60.0949 38.1601 48.4999 21.4751 34.4174 35.4551C31.1974 38.6551 29.5824 41.7351 29.0049 44.5826C29.8149 42.2276 31.3649 39.7376 33.9524 37.1676C37.5324 33.6126 40.9524 32.0426 44.0624 31.6751C44.2899 31.6476 44.5224 31.7201 44.6824 31.8851C45.2524 32.4876 46.5474 33.1126 48.1249 33.4876C49.7799 33.8801 51.2849 33.8876 52.0324 33.5626C52.2374 33.4726 52.4724 33.4926 52.6674 33.6026C56.4624 35.7626 58.9724 38.9826 59.5174 39.7201C59.5957 39.8251 59.6874 39.9167 59.7924 39.9951C61.7499 41.4876 62.8599 43.1426 63.3749 44.8426C63.8249 46.3351 63.8199 47.8626 63.5249 49.3501C64.2124 47.3451 64.4699 45.2026 63.8424 43.1301Z" fill="white"/>
<path d="M53.6502 40.0948C53.8077 40.7523 53.7327 41.4473 53.5277 42.0973C53.3177 42.7473 52.9552 43.3648 52.4677 43.8648C52.3502 43.9898 52.2177 44.1048 52.0877 44.2198C51.9502 44.3273 51.8127 44.4348 51.6677 44.5273C51.5227 44.6248 51.3702 44.7048 51.2202 44.7873C51.0627 44.8598 50.9102 44.9373 50.7502 44.9923C50.1102 45.2298 49.4352 45.3398 48.7702 45.2748C48.7452 45.2723 48.7277 45.2498 48.7302 45.2248C48.7319 45.2081 48.7394 45.1965 48.7527 45.1898C49.3352 44.8723 49.8827 44.5848 50.3827 44.2573C50.4477 44.219 50.5102 44.1773 50.5702 44.1323L50.7527 44.0073C50.8677 43.9148 50.9902 43.8373 51.1002 43.7398C51.3286 43.5598 51.5427 43.3665 51.7427 43.1598C52.1444 42.7498 52.4977 42.2881 52.8027 41.7748C53.1102 41.2623 53.3752 40.7073 53.6127 40.0948V40.0923C53.6194 40.0823 53.6277 40.079 53.6377 40.0823C53.6444 40.084 53.6486 40.0881 53.6502 40.0948Z" fill="#000072"/>
<path d="M38.9176 54.6824C39.5326 54.4499 40.0901 54.1874 40.6051 53.8849C41.1201 53.5849 41.5843 53.2349 41.9976 52.8349C42.206 52.6366 42.401 52.4241 42.5826 52.1974C42.6801 52.0874 42.7576 51.9649 42.8526 51.8499L42.9776 51.6699C43.0226 51.6099 43.0651 51.5483 43.1051 51.4849C43.4351 50.9849 43.7251 50.4399 44.0476 49.8599C44.0601 49.8399 44.0876 49.8299 44.1101 49.8424C44.1235 49.8508 44.131 49.8624 44.1326 49.8774C44.1926 50.5449 44.0776 51.2174 43.8376 51.8549C43.7801 52.0174 43.7001 52.1674 43.6276 52.3249C43.5451 52.4749 43.4626 52.6274 43.3651 52.7699C43.2726 52.9149 43.1626 53.0499 43.0551 53.1874C42.9376 53.3174 42.8226 53.4474 42.6951 53.5649C42.1926 54.0499 41.5726 54.4074 40.9226 54.6124C40.2701 54.8124 39.5751 54.8824 38.9176 54.7199C38.9076 54.7166 38.9035 54.7091 38.9051 54.6974C38.9068 54.6908 38.911 54.6866 38.9176 54.6849V54.6824Z" fill="#000072"/>
<path d="M50.1474 48.6576C49.8124 48.7826 49.5099 48.9026 49.2349 49.0401C48.9624 49.1776 48.7274 49.3326 48.5374 49.5176C48.3499 49.7051 48.2024 49.9176 48.0724 50.1801C47.9449 50.4426 47.8424 50.7451 47.7099 51.0876C47.7024 51.1051 47.6824 51.1126 47.6674 51.1076C47.6591 51.1042 47.6532 51.0992 47.6499 51.0926C47.4724 50.7651 47.4149 50.3901 47.4674 50.0051C47.5174 49.6226 47.7224 49.2401 48.0224 48.9676C48.3249 48.6926 48.7024 48.5351 49.0724 48.4826C49.4424 48.4351 49.8124 48.4676 50.1499 48.6226C50.1599 48.6276 50.1624 48.6359 50.1574 48.6476C50.1557 48.6526 50.1524 48.6559 50.1474 48.6576Z" fill="#000072"/>
<path d="M44.3498 67.2175C44.1315 67.2175 43.9131 67.2108 43.6948 67.1975C40.7298 67.005 38.1898 65.5025 36.1423 62.7325C35.2248 62.0625 28.1898 56.685 27.5348 48.865C27.1398 44.1575 29.1598 39.5625 33.5423 35.215C37.9223 30.865 42.5298 28.875 47.2373 29.3075C55.0498 30.0175 60.3773 37.0925 61.0398 38.015C63.7948 40.0825 65.2798 42.635 65.4498 45.6C65.8548 52.675 58.6523 59.585 58.1773 60.03C57.7423 60.4875 51.1923 67.2175 44.3498 67.2175ZM45.9948 30.54C42.0698 30.54 38.1898 32.415 34.4498 36.13C30.3523 40.1975 28.4573 44.4475 28.8198 48.7575C29.4548 56.3525 36.8973 61.6875 36.9723 61.7425C37.0306 61.7825 37.0806 61.8308 37.1223 61.8875C38.9448 64.3875 41.1823 65.7425 43.7748 65.91C50.3248 66.335 57.1873 59.2 57.2548 59.13C57.2648 59.12 57.274 59.1108 57.2823 59.1025C57.3548 59.035 64.5398 52.2275 64.1623 45.67C64.0123 43.0775 62.6748 40.83 60.1898 38.99C60.1315 38.9466 60.0823 38.8966 60.0423 38.84C59.9898 38.765 54.6898 31.275 47.1123 30.59C46.739 30.5566 46.3665 30.54 45.9948 30.54Z" fill="#000072"/>
<path d="M49.9523 57.8475C51.7998 59.71 54.8098 59.72 56.6723 57.8725C58.5348 56.0225 58.5448 53.0125 56.6973 51.15C54.8473 49.2875 51.8373 49.2775 49.9748 51.1275C48.1123 52.975 48.1023 55.985 49.9523 57.8475Z" fill="#00DBFF"/>
<path d="M57.6002 52.4277C57.5377 53.5602 57.0727 54.6727 56.2052 55.5352C54.3427 57.3852 51.3327 57.3727 49.4852 55.5102C49.1027 55.1277 48.8027 54.6952 48.5802 54.2327C48.5077 55.5302 48.9652 56.8527 49.9527 57.8477C51.8002 59.7102 54.8102 59.7202 56.6727 57.8727C58.1502 56.4027 58.4627 54.2052 57.6002 52.4277Z" fill="#000072"/>
<path d="M50.1325 52.3725C51.995 50.5225 55.0025 50.535 56.8525 52.3975C57.465 53.0125 57.87 53.755 58.075 54.5375C58.085 53.315 57.6275 52.0875 56.6975 51.15C54.8475 49.2875 51.8375 49.2775 49.975 51.1275C48.73 52.365 48.3125 54.12 48.7275 55.705C48.7375 54.4975 49.205 53.2925 50.1325 52.3725Z" fill="white"/>
<path d="M53.3249 59.6927C51.9874 59.6927 50.6499 59.1827 49.6349 58.1602C47.6174 56.1277 47.6299 52.8302 49.6624 50.8102C51.6949 48.7927 54.9924 48.8052 57.0124 50.8377C59.0299 52.8702 59.0199 56.1677 56.9849 58.1877C55.9724 59.1927 54.6474 59.6927 53.3249 59.6927ZM53.3224 50.1927C52.2249 50.1927 51.1274 50.6102 50.2899 51.4427C48.6024 53.1152 48.5924 55.8477 50.2674 57.5352C51.9399 59.2202 54.6724 59.2302 56.3599 57.5552C58.0449 55.8827 58.0549 53.1502 56.3799 51.4652C55.5399 50.6177 54.4324 50.1927 53.3224 50.1927Z" fill="#000072"/>
<path d="M55.71 60.9398C54.67 60.9398 53.6325 60.5423 52.8425 59.7473C52.0825 58.9823 51.665 57.9673 51.67 56.8873C51.6725 55.8073 52.0975 54.7948 52.8625 54.0348C53.625 53.2773 54.635 52.8623 55.71 52.8623C55.715 52.8623 55.72 52.8623 55.725 52.8623C56.8025 52.8648 57.8175 53.2898 58.5775 54.0548C59.3375 54.8223 59.755 55.8373 59.75 56.9173C59.745 57.9948 59.3225 59.0098 58.5575 59.7698C57.77 60.5498 56.74 60.9398 55.71 60.9398ZM55.71 53.5723C54.825 53.5723 53.9925 53.9173 53.365 54.5398C52.735 55.1673 52.385 55.9998 52.38 56.8898C52.3775 57.7798 52.72 58.6173 53.3475 59.2473C54.64 60.5498 56.7525 60.5573 58.055 59.2648C58.685 58.6373 59.035 57.8023 59.0375 56.9148C59.0425 56.0248 58.6975 55.1873 58.0725 54.5573C57.445 53.9248 56.61 53.5773 55.7225 53.5723C55.7175 53.5723 55.7133 53.5723 55.71 53.5723Z" fill="#000072"/>
<path d="M51.8552 55.955C52.6602 56.7675 53.9702 56.7725 54.7802 55.9675C55.5927 55.1625 55.5977 53.8525 54.7927 53.0425C53.9877 52.23 52.6777 52.225 51.8677 53.03C51.0552 53.835 51.0502 55.145 51.8552 55.955Z" fill="#FFE448"/>
<path d="M54.9223 53.1875C54.9398 53.74 54.7373 54.3 54.3148 54.72C53.5023 55.525 52.1923 55.52 51.3873 54.71C51.3423 54.6633 51.299 54.615 51.2573 54.565C51.2748 55.07 51.4723 55.57 51.8548 55.955C52.6598 56.7675 53.9698 56.7725 54.7798 55.9675C55.5448 55.2075 55.5923 54.0025 54.9223 53.1875Z" fill="#000072"/>
<path d="M53.3251 57.0126C53.3217 57.0126 53.3184 57.0126 53.3151 57.0126C52.6426 57.0101 52.0126 56.7451 51.5401 56.2701C51.0676 55.7926 50.8076 55.1601 50.8101 54.4901C50.8126 53.8176 51.0776 53.1876 51.5526 52.7151C52.5376 51.7401 54.1301 51.7451 55.1076 52.7276C56.0826 53.7126 56.0776 55.3051 55.0951 56.2826C54.6201 56.7526 53.9926 57.0126 53.3251 57.0126ZM52.1726 55.6426C52.4776 55.9501 52.8851 56.1201 53.3176 56.1226C53.3192 56.1226 53.3217 56.1226 53.3251 56.1226C53.7551 56.1226 54.1626 55.9551 54.4676 55.6526C55.1026 55.0201 55.1076 53.9901 54.4751 53.3551C54.1701 53.0476 53.7626 52.8776 53.3301 52.8751C53.3284 52.8751 53.3259 52.8751 53.3226 52.8751C52.8926 52.8751 52.4876 53.0426 52.1801 53.3476C51.8726 53.6526 51.7026 54.0601 51.7001 54.4926C51.6976 54.9276 51.8651 55.3351 52.1726 55.6426Z" fill="#000072"/>
<path d="M35.8825 37.5701C35.14 37.1626 34.4425 36.7301 33.75 36.2526C33.0625 35.7776 32.385 35.2751 31.7575 34.6776C31.445 34.3751 31.1425 34.0526 30.875 33.6601C30.745 33.4626 30.62 33.2476 30.5275 32.9926C30.4375 32.7401 30.375 32.4276 30.44 32.0976C30.4975 31.7651 30.695 31.4701 30.9075 31.2776C31.125 31.0826 31.335 30.9551 31.5925 30.8476C31.8475 30.7476 32.1375 30.6926 32.4225 30.7126C32.705 30.7326 32.98 30.8151 33.2125 30.9401C33.685 31.1926 34.0225 31.5726 34.265 31.9851C34.5075 32.4026 34.6625 32.8701 34.675 33.3801C34.675 33.6351 34.64 33.9051 34.5275 34.1626C34.42 34.4226 34.2275 34.6576 33.9975 34.8201C33.7675 34.9826 33.51 35.0676 33.2675 35.1126C33.0225 35.1576 32.785 35.1601 32.555 35.1476C32.1 35.1101 31.675 35.0051 31.27 34.8726C30.865 34.7359 30.4733 34.5776 30.095 34.3976C29.7175 34.2151 29.345 34.0326 28.995 33.8051C28.6475 33.5751 28.3275 33.3051 28.0575 32.9626C28.0525 32.9559 28.0525 32.9501 28.0575 32.9451C28.0608 32.9434 28.065 32.9426 28.07 32.9426C28.5 33.0151 28.8825 33.1576 29.26 33.3101C29.6325 33.4626 29.99 33.6451 30.36 33.7901C30.73 33.9417 31.1025 34.0692 31.4775 34.1726C31.8525 34.2751 32.2325 34.3401 32.5925 34.3476C32.95 34.3526 33.2875 34.2801 33.4875 34.1201C33.685 33.9676 33.7725 33.7176 33.755 33.4076C33.7175 32.7926 33.2675 32.1026 32.7475 31.8576C32.4891 31.7359 32.24 31.7301 32 31.8401C31.8825 31.8926 31.7425 31.9851 31.6625 32.0676C31.58 32.1551 31.545 32.2226 31.5375 32.2951C31.5275 32.3676 31.54 32.4726 31.59 32.6001C31.6425 32.7276 31.7225 32.8701 31.82 33.0076C32.0225 33.2876 32.285 33.5601 32.565 33.8176C33.705 34.8501 35.1 35.7126 36.4675 36.4951L36.4825 36.5051C36.775 36.6726 36.875 37.0451 36.7075 37.3401C36.5425 37.6276 36.175 37.7301 35.8825 37.5701Z" fill="#000072"/>
<path d="M28.6523 61.5377C48.2798 51.5252 56.4573 70.0827 56.4573 70.0827C65.7348 60.0702 76.4848 68.1477 76.4848 68.1477C81.4898 53.7952 94.9748 59.2552 94.9748 59.2552C94.9748 59.2552 93.4448 69.1502 77.8223 72.3527C77.8223 72.3527 77.2023 72.8102 76.9298 72.8877C61.2823 77.3077 44.9373 73.7452 31.9273 63.9927L28.6523 61.5377Z" fill="white"/>
<path d="M56.4575 70.7074C56.4225 70.7074 56.3875 70.7041 56.3525 70.6974C56.1475 70.6624 55.97 70.5274 55.8875 70.3349C55.8525 70.2599 52.455 62.7449 45.045 60.1124C40.2625 58.4124 34.8425 59.0799 28.935 62.0924C28.63 62.2499 28.2525 62.1274 28.0975 61.8224C27.94 61.5149 28.0625 61.1399 28.37 60.9824C34.5975 57.8049 40.3525 57.1199 45.475 58.9424C51.9775 61.2574 55.495 66.8924 56.6225 69.0149C61.435 64.2574 66.5575 64.0474 70.0725 64.7499C72.905 65.3149 75.1125 66.5224 76.1725 67.1874C77.7625 63.0874 80.22 60.2624 83.49 58.7824C89.08 56.2499 94.9625 58.5774 95.21 58.6774C95.5275 58.8074 95.6825 59.1699 95.5525 59.4874C95.425 59.8074 95.06 59.9624 94.7425 59.8324C94.6575 59.7974 89.0775 57.6124 83.9925 59.9224C80.855 61.3474 78.5275 64.1824 77.0725 68.3524C77.0075 68.5399 76.855 68.6849 76.665 68.7424C76.475 68.8024 76.2675 68.7649 76.11 68.6449C76.085 68.6274 73.4575 66.6849 69.785 65.9624C64.9225 65.0074 60.5925 66.5374 56.9125 70.5074C56.795 70.6349 56.6275 70.7074 56.4575 70.7074Z" fill="#000072"/>
</svg>
